<svg width="74" height="48" viewBox="0 0 74 48" fill="none" xmlns="http://www.w3.org/2000/svg">
<path fill-rule="evenodd" clip-rule="evenodd" d="M17.7358 0.695312H35.4961C37.6446 0.695312 39.3633 2.4269 39.3633 4.5914V13.6101C39.3633 15.7746 37.6446 17.5062 35.4961 17.5062H23.9663L16.9481 23.2782L18.1655 17.5062H17.7358C15.5874 17.5062 13.8687 15.7746 13.8687 13.6101V4.5914C13.8687 2.4269 15.5874 0.695312 17.7358 0.695312Z" stroke="#18FFFF" stroke-miterlimit="1.1803" stroke-linecap="round" stroke-linejoin="round"/>
<path d="M10.9323 32.2243C13.6218 32.2243 15.802 29.737 15.802 26.6688C15.802 23.6006 13.6218 21.1133 10.9323 21.1133C8.24277 21.1133 6.0625 23.6006 6.0625 26.6688C6.0625 29.737 8.24277 32.2243 10.9323 32.2243Z" stroke="#18FFFF" stroke-miterlimit="1.1803" stroke-linecap="round" stroke-linejoin="round"/>
<path d="M63.0675 32.2243C65.757 32.2243 67.9373 29.737 67.9373 26.6688C67.9373 23.6006 65.757 21.1133 63.0675 21.1133C60.378 21.1133 58.1978 23.6006 58.1978 26.6688C58.1978 29.737 60.378 32.2243 63.0675 32.2243Z" stroke="#18FFFF" stroke-miterlimit="1.1803" stroke-linecap="round" stroke-linejoin="round"/>
<path fill-rule="evenodd" clip-rule="evenodd" d="M58.9853 4.1582H46.8109C45.3786 4.1582 44.1611 5.38475 44.1611 6.82774V13.0326C44.1611 14.4756 45.3786 15.7022 46.8109 15.7022H54.6884L59.4866 19.6704L58.6988 15.7022H58.9853C60.4176 15.7022 61.635 14.4756 61.635 13.0326V6.82774C61.635 5.38475 60.4176 4.1582 58.9853 4.1582Z" stroke="#18FFFF" stroke-miterlimit="1.1803" stroke-linecap="round" stroke-linejoin="round"/>
<path d="M4.63037 47.2318V42.6143" stroke="#18FFFF" stroke-miterlimit="1.1803" stroke-linecap="round" stroke-linejoin="round"/>
<path d="M17.2344 47.2318V42.6143" stroke="#18FFFF" stroke-miterlimit="1.1803" stroke-linecap="round" stroke-linejoin="round"/>
<path d="M56.7651 47.2318V42.6143" stroke="#18FFFF" stroke-miterlimit="1.1803" stroke-linecap="round" stroke-linejoin="round"/>
<path d="M69.3696 47.2318V42.6143" stroke="#18FFFF" stroke-miterlimit="1.1803" stroke-linecap="round" stroke-linejoin="round"/>
<path d="M73.3082 42.5425V46.5107C73.3082 46.9436 72.9501 47.3044 72.5204 47.3044H53.5426C53.113 47.3044 52.7549 46.9436 52.7549 46.5107V42.6146C52.7549 37.7085 56.6937 33.7402 61.5634 33.7402H64.4996C67.7223 33.7402 70.5152 35.4718 72.0907 38.1414" stroke="#18FFFF" stroke-miterlimit="1.1803" stroke-linecap="round" stroke-linejoin="round"/>
<path d="M1.90885 38.0692C3.41275 35.4718 6.27731 33.7402 9.49995 33.7402H12.4361C17.3059 33.7402 21.2447 37.7085 21.2447 42.6146V46.5107C21.2447 46.9436 20.8866 47.3044 20.4569 47.3044H1.47916C1.04948 47.2322 0.691406 46.8715 0.691406 46.5107V42.6146" stroke="#18FFFF" stroke-miterlimit="1.1803" stroke-linecap="round" stroke-linejoin="round"/>
</svg>
