<svg width="48" height="48" viewBox="0 0 48 48" fill="none" xmlns="http://www.w3.org/2000/svg">
<g clip-path="url(#clip0_296_2263)">
<path fill-rule="evenodd" clip-rule="evenodd" d="M32 43H28V39C28 38.5576 27.9424 38 27.5 38C27.0576 38 27 38.5576 27 39V43C27 43 27 44 28 44H32C34 44 34 46 34 47H14C14 45.5 15.5 44 17 44H25C25.4424 44 26 43.9424 26 43.5C26 43.0576 25.4424 43 25 43H20V39.2C20 38.7576 19.9416 38.5 19.5 38.5C19.0584 38.5 19 38.7576 19 39.2V43H17C14.944 43 13 44.944 13 47C13 47.4424 13.5584 48 14 48H34C35 48 35 48 35 47C35 44.944 34.056 43 32 43ZM22.4 32C22.4 32.8824 23.1176 33.6 24 33.6C24.8824 33.6 25.6 32.8824 25.6 32C25.6 31.1176 24.8824 30.4 24 30.4C23.1176 30.4 22.4 31.1176 22.4 32ZM48 4V32.8C48 35.0432 46.2432 37 44 37H24H4C1.7568 37 0 35.0432 0 32.8V28C0 27 0 27 1 27H44C44.4424 27 45 27.0576 45 27.5C45 27.9424 44.4424 28 44 28H1V33C1 34.368 2.632 36 4 36H44C45.368 36 47 34.168 47 32.8V4C47 2.6768 45.3232 1 44 1H4C2.6016 1 1.0824 2.7936 1 4V24C1 24.4424 0.9416 25 0.5 25C0.0584 25 0 24.4424 0 24V4C0.1528 1.7328 1.9088 0 4 0H44C46.2056 0 48 1.7944 48 4Z" fill="#18FFFF"/>
<path d="M32 19H17.0571C16.4805 19 16 18.5455 16 18C16 17.4545 16.4805 17 17.0571 17H29.8859" stroke="#18FFFF" stroke-miterlimit="1.1327" stroke-linecap="round" stroke-linejoin="round"/>
<path d="M18 9L17.3069 6H13" stroke="#18FFFF" stroke-miterlimit="1.1327" stroke-linecap="round" stroke-linejoin="round"/>
<path d="M21.5 23.5C22.3284 23.5 23 22.8284 23 22C23 21.1716 22.3284 20.5 21.5 20.5C20.6716 20.5 20 21.1716 20 22C20 22.8284 20.6716 23.5 21.5 23.5Z" stroke="#18FFFF" stroke-miterlimit="1.1327" stroke-linecap="round" stroke-linejoin="round"/>
<path d="M27.5 23.5C28.3284 23.5 29 22.8284 29 22C29 21.1716 28.3284 20.5 27.5 20.5C26.6716 20.5 26 21.1716 26 22C26 22.8284 26.6716 23.5 27.5 23.5Z" stroke="#18FFFF" stroke-miterlimit="1.1327" stroke-linecap="round" stroke-linejoin="round"/>
<path fill-rule="evenodd" clip-rule="evenodd" d="M20.1575 17L18 9H32L29.7466 17H20.1575Z" stroke="#18FFFF" stroke-miterlimit="1.1327" stroke-linecap="round" stroke-linejoin="round"/>
</g>
<defs>
<clipPath id="clip0_296_2263">
<rect width="48" height="48" fill="white"/>
</clipPath>
</defs>
</svg>
