<svg width="52" height="50" viewBox="0 0 52 50" fill="none" xmlns="http://www.w3.org/2000/svg">
<path d="M7.90039 9.85723C11.4772 5.52196 16.6573 2.3634 22.3925 1.55828M26.031 1.31055C31.2112 1.43441 35.5365 2.55562 39.4216 5.34258M44.0999 40.2661C40.2764 44.7871 34.8496 47.8838 28.6211 48.565M26.031 48.6889C20.5425 48.6889 16.6352 47.8154 12.565 44.6569" stroke="#18FFFF" stroke-miterlimit="1.0398" stroke-linecap="round" stroke-linejoin="round"/>
<path fill-rule="evenodd" clip-rule="evenodd" d="M8.70215 41.0713L14.7457 42.1861L10.3672 46.8929L8.70215 41.0713Z" stroke="#18FFFF" stroke-miterlimit="1.0398" stroke-linecap="round" stroke-linejoin="round"/>
<path fill-rule="evenodd" clip-rule="evenodd" d="M43.2979 8.9281L37.2544 7.81331L41.5712 3.10645L43.2979 8.9281Z" stroke="#18FFFF" stroke-miterlimit="1.0398" stroke-linecap="round" stroke-linejoin="round"/>
<path fill-rule="evenodd" clip-rule="evenodd" d="M14.252 22.8013H16.1637C16.3487 21.6246 16.842 20.5098 17.5821 19.5189L16.2254 18.0944L19.1238 15.2455L20.3572 16.4842C21.4055 15.8648 22.5156 15.4313 23.6873 15.1216V13.2637H27.8807V15.1216C29.0524 15.4313 30.1625 15.8648 31.2108 16.4842L32.4442 15.2455L35.3426 18.0944L33.9859 19.5189C34.726 20.5717 35.281 21.6246 35.4043 22.8013H37.316V24.7831H14.252V24.7212V22.8013Z" stroke="#18FFFF" stroke-miterlimit="1.0398" stroke-linecap="round" stroke-linejoin="round"/>
<path fill-rule="evenodd" clip-rule="evenodd" d="M25.784 18.4043C29.2991 18.4043 32.1359 21.2532 32.1359 24.7214H19.4321V24.6595C19.4938 21.2532 22.3306 18.4043 25.784 18.4043Z" stroke="#18FFFF" stroke-miterlimit="1.0398" stroke-linecap="round" stroke-linejoin="round"/>
<path d="M5.31011 18.8374C6.46811 18.8374 7.40685 17.8946 7.40685 16.7317C7.40685 15.5687 6.46811 14.626 5.31011 14.626C4.15212 14.626 3.21338 15.5687 3.21338 16.7317C3.21338 17.8946 4.15212 18.8374 5.31011 18.8374Z" stroke="#18FFFF" stroke-miterlimit="1.0398" stroke-linecap="round" stroke-linejoin="round"/>
<path d="M11.0455 20.014H7.96203L6.66699 18.3418" stroke="#18FFFF" stroke-miterlimit="1.0398" stroke-linecap="round" stroke-linejoin="round"/>
<path d="M5.31011 35.2495C6.46811 35.2495 7.40685 34.3067 7.40685 33.1438C7.40685 31.9808 6.46811 31.0381 5.31011 31.0381C4.15212 31.0381 3.21338 31.9808 3.21338 33.1438C3.21338 34.3067 4.15212 35.2495 5.31011 35.2495Z" stroke="#18FFFF" stroke-miterlimit="1.0398" stroke-linecap="round" stroke-linejoin="round"/>
<path d="M11.0455 29.8613H7.96203L6.66699 31.5335" stroke="#18FFFF" stroke-miterlimit="1.0398" stroke-linecap="round" stroke-linejoin="round"/>
<path d="M10.1821 25.1553H5.00195" stroke="#18FFFF" stroke-miterlimit="1.0398" stroke-linecap="round" stroke-linejoin="round"/>
<path d="M2.90484 27.1987C4.06284 27.1987 5.00158 26.256 5.00158 25.093C5.00158 23.9301 4.06284 22.9873 2.90484 22.9873C1.74685 22.9873 0.808105 23.9301 0.808105 25.093C0.808105 26.256 1.74685 27.1987 2.90484 27.1987Z" stroke="#18FFFF" stroke-miterlimit="1.0398" stroke-linecap="round" stroke-linejoin="round"/>
<path d="M46.69 18.8374C47.848 18.8374 48.7867 17.8946 48.7867 16.7317C48.7867 15.5687 47.848 14.626 46.69 14.626C45.532 14.626 44.5933 15.5687 44.5933 16.7317C44.5933 17.8946 45.532 18.8374 46.69 18.8374Z" stroke="#18FFFF" stroke-miterlimit="1.0398" stroke-linecap="round" stroke-linejoin="round"/>
<path d="M41.0161 19.514C40.74 19.514 40.5161 19.7378 40.5161 20.014C40.5161 20.2901 40.74 20.514 41.0161 20.514V20.014V19.514ZM44.0379 20.014V20.514C44.1886 20.514 44.3312 20.446 44.4262 20.329L44.0379 20.014ZM41.0161 20.014V20.514H44.0379V20.014V19.514H41.0161V20.014ZM44.0379 20.014L44.4262 20.329L45.7829 18.6568L45.3946 18.3418L45.0063 18.0268L43.6496 19.6989L44.0379 20.014Z" fill="#18FFFF"/>
<path d="M46.69 35.2495C47.848 35.2495 48.7867 34.3067 48.7867 33.1438C48.7867 31.9808 47.848 31.0381 46.69 31.0381C45.532 31.0381 44.5933 31.9808 44.5933 33.1438C44.5933 34.3067 45.532 35.2495 46.69 35.2495Z" stroke="#18FFFF" stroke-miterlimit="1.0398" stroke-linecap="round" stroke-linejoin="round"/>
<path d="M41.0161 29.3613C40.74 29.3613 40.5161 29.5852 40.5161 29.8613C40.5161 30.1375 40.74 30.3613 41.0161 30.3613V29.8613V29.3613ZM44.0379 29.8613L44.4262 29.5463C44.3312 29.4293 44.1886 29.3613 44.0379 29.3613V29.8613ZM45.0063 31.8485L45.3213 32.2368L46.0979 31.6068L45.7829 31.2185L45.3946 31.5335L45.0063 31.8485ZM41.0161 29.8613V30.3613H44.0379V29.8613V29.3613H41.0161V29.8613ZM44.0379 29.8613L43.6496 30.1764L45.0063 31.8485L45.3946 31.5335L45.7829 31.2185L44.4262 29.5463L44.0379 29.8613Z" fill="#18FFFF"/>
<path d="M41.8179 25.1553H46.998" stroke="#18FFFF" stroke-miterlimit="1.0398" stroke-linecap="round" stroke-linejoin="round"/>
<path d="M49.0948 27.1987C50.2528 27.1987 51.1915 26.256 51.1915 25.093C51.1915 23.9301 50.2528 22.9873 49.0948 22.9873C47.9368 22.9873 46.998 23.9301 46.998 25.093C46.998 26.256 47.9368 27.1987 49.0948 27.1987Z" stroke="#18FFFF" stroke-miterlimit="1.0398" stroke-linecap="round" stroke-linejoin="round"/>
<path fill-rule="evenodd" clip-rule="evenodd" d="M39.0431 24.7832H13.0806C13.0806 25.0309 13.0806 25.2167 13.0806 25.4645C13.0806 26.0838 13.1422 26.7031 13.2039 27.3224C14.1289 33.6395 19.4941 38.5322 26.0927 38.5322C33.2462 38.5322 39.1048 32.7106 39.1048 25.4645C39.1048 25.2167 39.1048 25.0309 39.0431 24.7832Z" stroke="#18FFFF" stroke-miterlimit="1.0398" stroke-linecap="round" stroke-linejoin="round"/>
<path d="M32.9378 24.7832C32.9378 25.0309 32.9378 25.2167 32.9378 25.4645C32.9378 32.6486 29.8544 38.5322 26.0309 38.5322C22.2075 38.5322 19.124 32.7106 19.124 25.4645C19.124 25.2167 19.124 25.0309 19.124 24.7832H32.9378Z" stroke="#18FFFF" stroke-miterlimit="1.0398" stroke-linecap="round" stroke-linejoin="round"/>
<path d="M26.0923 38.4703V24.7832" stroke="#18FFFF" stroke-miterlimit="1.0398" stroke-linecap="round" stroke-linejoin="round"/>
<path d="M15.3623 32.8343C22.4542 30.6047 29.6078 30.6047 36.6997 32.8343" stroke="#18FFFF" stroke-miterlimit="1.0398" stroke-linecap="round" stroke-linejoin="round"/>
</svg>
