<svg width="48" height="48" viewBox="0 0 48 48" fill="none" xmlns="http://www.w3.org/2000/svg">
<g clip-path="url(#clip0_296_2331)">
<path fill-rule="evenodd" clip-rule="evenodd" d="M32 43H28V39C28 38.5576 27.9424 38 27.5 38C27.0576 38 27 38.5576 27 39V43C27 43 27 44 28 44H32C34 44 34 46 34 47H14C14 45.5 15.5 44 17 44H25C25.4424 44 26 43.9424 26 43.5C26 43.0576 25.4424 43 25 43H20V39.2C20 38.7576 19.9416 38.5 19.5 38.5C19.0584 38.5 19 38.7576 19 39.2V43H17C14.944 43 13 44.944 13 47C13 47.4424 13.5584 48 14 48H34C35 48 35 48 35 47C35 44.944 34.056 43 32 43ZM22.4 32C22.4 32.8824 23.1176 33.6 24 33.6C24.8824 33.6 25.6 32.8824 25.6 32C25.6 31.1176 24.8824 30.4 24 30.4C23.1176 30.4 22.4 31.1176 22.4 32ZM48 4V32.8C48 35.0432 46.2432 37 44 37H24H4C1.7568 37 0 35.0432 0 32.8V28C0 27 0 27 1 27H44C44.4424 27 45 27.0576 45 27.5C45 27.9424 44.4424 28 44 28H1V33C1 34.368 2.632 36 4 36H44C45.368 36 47 34.168 47 32.8V4C47 2.6768 45.3232 1 44 1H4C2.6016 1 1.0824 2.7936 1 4V24C1 24.4424 0.9416 25 0.5 25C0.0584 25 0 24.4424 0 24V4C0.1528 1.7328 1.9088 0 4 0H44C46.2056 0 48 1.7944 48 4Z" fill="#18FFFF"/>
<path d="M41.0514 9.97071H40.0317C39.9243 9.65338 39.812 9.38921 39.6829 9.1348L39.6997 9.17114L40.4254 8.45294C40.6153 8.29021 40.7346 8.05045 40.7346 7.78248C40.7346 7.56225 40.6538 7.36046 40.5198 7.20586L40.5209 7.20694L38.7972 5.48305C38.6437 5.34961 38.4425 5.26878 38.2217 5.26878C37.9538 5.26878 37.7135 5.38866 37.5524 5.57798L37.5513 5.57906L36.8288 6.30052C36.6108 6.18877 36.3472 6.07648 36.0749 5.98264L36.0304 5.96908L36.0353 4.94928C36.037 4.92758 36.038 4.90263 36.038 4.87714C36.038 4.41389 35.6801 4.03417 35.2255 4H35.2228H32.7842C32.3265 4.03417 31.9679 4.41389 31.9679 4.87714C31.9679 4.90263 31.969 4.92758 31.9712 4.95254V4.94928V5.96854C31.6539 6.07594 31.3903 6.18769 31.1359 6.31625L31.1722 6.29943L30.4541 5.57472C30.2919 5.38378 30.0517 5.2639 29.7837 5.2639C29.563 5.2639 29.3617 5.34527 29.2072 5.47925L29.2082 5.47817L27.484 7.2026C27.3506 7.35612 27.2692 7.55791 27.2692 7.77814C27.2692 8.04611 27.3891 8.28641 27.5784 8.44752L27.5794 8.4486L28.3003 9.16951C28.188 9.38812 28.0757 9.65283 27.9819 9.92623L27.9689 9.97071L26.9492 9.96583C26.9275 9.9642 26.9025 9.96311 26.877 9.96311C26.4138 9.96311 26.0342 10.3217 26 10.7762V10.779V13.2172C26.0336 13.6751 26.4138 14.0336 26.877 14.0336C26.9025 14.0336 26.9275 14.0325 26.9524 14.0304H26.9492H27.9689C28.0763 14.3477 28.188 14.6119 28.3171 14.8663L28.3008 14.8305L27.5767 15.5465C27.3864 15.7092 27.2665 15.9501 27.2665 16.2186C27.2665 16.4394 27.3473 16.6412 27.4813 16.7958L27.4802 16.7947L29.2044 18.5186C29.3395 18.652 29.525 18.735 29.7306 18.735C29.7344 18.735 29.7382 18.735 29.742 18.735H29.7414C30.0207 18.728 30.2713 18.6097 30.4509 18.4226L30.4514 18.422L31.1728 17.7006C31.3914 17.8129 31.6561 17.9251 31.9294 18.019L31.9739 18.0325L31.969 19.0513C31.9674 19.073 31.9663 19.0979 31.9663 19.1229C31.9663 19.5861 32.3248 19.9664 32.7793 20H32.7821H35.2207C35.6779 19.9653 36.0359 19.5861 36.0359 19.1229C36.0359 19.0974 36.0348 19.0724 36.0326 19.0475V19.0507V18.0304C36.3499 17.923 36.6146 17.8107 36.8695 17.6816L36.8332 17.6984L37.5497 18.4215C37.7298 18.6081 37.9798 18.7263 38.257 18.7328H38.258H38.2591C38.2624 18.7328 38.2662 18.7328 38.2694 18.7328C38.4745 18.7328 38.66 18.6509 38.7961 18.5186L40.5193 16.7952C40.6516 16.6602 40.7335 16.4746 40.7335 16.2701C40.7335 16.2653 40.7335 16.2609 40.7335 16.256C40.727 15.9778 40.6093 15.7288 40.4233 15.5492L40.4227 15.5487L39.7008 14.8261C39.8125 14.6086 39.9243 14.345 40.0186 14.0727L40.0322 14.0277L41.0514 14.0325C41.0731 14.0342 41.098 14.0353 41.123 14.0353C41.5867 14.0353 41.9664 13.6767 42 13.2216V13.2189V10.7806C41.9658 10.3228 41.5862 9.96474 41.1224 9.96474C41.0969 9.96474 41.072 9.96583 41.0476 9.968H41.0508L41.0514 9.97071ZM41.0535 13.2221L39.7431 13.2156C39.7323 13.2156 39.723 13.221 39.7127 13.2216C39.6053 13.2346 39.511 13.284 39.441 13.3567C39.4112 13.3957 39.3851 13.4397 39.3645 13.4868L39.3629 13.4912C39.3602 13.4988 39.3542 13.5042 39.352 13.5123C39.2219 13.9702 39.0521 14.3689 38.84 14.7404L38.8541 14.7139C38.8248 14.7681 38.8075 14.8321 38.8075 14.9005C38.8075 14.901 38.8075 14.9021 38.8075 14.9026C38.8075 14.9113 38.8091 14.9178 38.8097 14.927C38.8129 15.0285 38.853 15.1196 38.9176 15.188L38.9225 15.2004L39.8483 16.1275C39.9075 16.1866 39.9226 16.2441 39.9438 16.2229L38.2613 17.9224C38.2076 17.9154 38.1604 17.8893 38.1268 17.8519L37.2063 16.9227C37.202 16.9178 37.1944 16.92 37.1901 16.9156C37.1244 16.8549 37.0382 16.8164 36.9427 16.811H36.9417C36.9308 16.8093 36.9178 16.8082 36.9048 16.8077C36.837 16.8077 36.7724 16.8251 36.7171 16.8554L36.7193 16.8544C36.3743 17.0507 35.9746 17.221 35.5553 17.3442L35.5152 17.3545C35.507 17.3567 35.5016 17.3626 35.494 17.3653C35.4419 17.3881 35.3969 17.4152 35.3557 17.4462L35.3573 17.4451C35.3384 17.4635 35.3215 17.4836 35.3069 17.5047L35.3058 17.5058C35.2912 17.5237 35.2771 17.5438 35.2651 17.5655L35.264 17.5677C35.2461 17.6116 35.232 17.6626 35.2244 17.7163L35.2239 17.7201C35.2234 17.7288 35.2185 17.7369 35.2185 17.7456V19.054C35.2185 19.1353 35.1887 19.1885 35.2185 19.1896L32.8265 19.2021C32.7983 19.1657 32.781 19.1191 32.781 19.0686C32.781 19.0643 32.781 19.0599 32.7815 19.0556L32.788 17.7478C32.788 17.7385 32.7837 17.7304 32.7826 17.7217C32.7799 17.693 32.7745 17.6664 32.7663 17.6409L32.7669 17.6436C32.7604 17.6149 32.7517 17.5894 32.7408 17.565L32.7419 17.5677C32.7137 17.521 32.6828 17.4809 32.6481 17.4445C32.6324 17.4315 32.6145 17.4196 32.596 17.4087L32.5939 17.4076C32.57 17.3914 32.5434 17.3773 32.5147 17.3664L32.5119 17.3653C32.5044 17.3626 32.4989 17.3567 32.4908 17.3545C32.0314 17.2238 31.6311 17.054 31.2585 16.8424L31.2861 16.8565C31.2324 16.8272 31.169 16.8099 31.1012 16.8099C31.0893 16.8093 31.0795 16.812 31.0676 16.8126C30.9699 16.8169 30.8821 16.856 30.8153 16.9173C30.811 16.9216 30.8045 16.9194 30.8002 16.9238L29.8754 17.8487C29.8173 17.9067 29.7582 17.9241 29.7788 17.9452L28.079 16.2631C28.0855 16.2088 28.1115 16.1616 28.1495 16.1275L29.0792 15.208L29.0851 15.1939C29.1475 15.1272 29.1876 15.0388 29.192 14.9411V14.9401C29.1925 14.9287 29.1947 14.92 29.1947 14.9086C29.1947 14.9081 29.1947 14.9075 29.1947 14.907C29.1947 14.8386 29.1773 14.7741 29.147 14.7182L29.148 14.7204C28.9501 14.3754 28.7798 13.9767 28.6583 13.5568L28.6485 13.5178C28.6463 13.5096 28.6398 13.5037 28.6371 13.4955C28.6143 13.4445 28.5883 13.4001 28.5579 13.3599L28.559 13.3615C28.5237 13.3285 28.4852 13.2981 28.444 13.272L28.4408 13.2704C28.4131 13.2568 28.3816 13.246 28.348 13.2395L28.3453 13.2389C28.3296 13.2341 28.31 13.2303 28.29 13.2276H28.2878C28.277 13.2265 28.2677 13.221 28.2563 13.221H26.9481C26.8657 13.2221 26.8136 13.1912 26.8125 13.22L26.8006 10.8283C26.8369 10.8001 26.8825 10.7828 26.9329 10.7828C26.9378 10.7828 26.9421 10.7828 26.947 10.7833H26.9465L28.2569 10.7898C28.3393 10.7876 28.4153 10.7605 28.4776 10.716L28.4766 10.7171C28.4896 10.7095 28.5004 10.7019 28.5113 10.6938L28.5102 10.6943C28.5693 10.6466 28.6138 10.5826 28.6376 10.5094L28.6382 10.5066C28.6398 10.5012 28.6458 10.4991 28.6474 10.4931C28.7787 10.0336 28.9484 9.63439 29.1605 9.26173L29.1464 9.28885C29.1757 9.23461 29.1931 9.1706 29.1931 9.10225C29.1931 9.10171 29.1931 9.10171 29.1931 9.10117C29.1936 9.09086 29.1914 9.08327 29.1909 9.07296C29.1871 8.97315 29.1475 8.8831 29.084 8.8153L29.0786 8.80228L28.1538 7.87741C28.0953 7.81774 28.0768 7.75753 28.0584 7.78085L29.7409 6.08082C29.7957 6.08516 29.8434 6.11229 29.8754 6.15189L29.8759 6.15243L30.7964 7.08164C30.8061 7.0914 30.8213 7.0876 30.8316 7.09628C30.8994 7.16192 30.9916 7.2026 31.0936 7.2026C31.1641 7.2026 31.2297 7.18308 31.2861 7.14944L31.2845 7.15053C31.6295 6.95308 32.0287 6.78329 32.4479 6.66124L32.487 6.65148C32.4946 6.64931 32.5 6.64334 32.5076 6.64117C32.5385 6.62978 32.5646 6.61568 32.5895 6.5994L32.5879 6.60049C32.6763 6.55167 32.7403 6.46813 32.762 6.36886L32.7625 6.36669C32.7701 6.34337 32.7761 6.31625 32.7788 6.28804V6.28641C32.7793 6.27773 32.7837 6.27014 32.7837 6.26146V4.95308C32.7837 4.87117 32.8141 4.81801 32.7842 4.81747L35.1762 4.80499C35.2044 4.84133 35.2212 4.88744 35.2212 4.93789C35.2212 4.94277 35.2212 4.94711 35.2207 4.95199L35.2141 6.25983C35.2141 6.26851 35.2185 6.27611 35.219 6.28533C35.2217 6.31516 35.2272 6.34283 35.2358 6.36941L35.2353 6.36669C35.2738 6.49363 35.3671 6.59398 35.487 6.64117L35.4897 6.64226C35.4973 6.64497 35.5032 6.65094 35.5108 6.65311C35.9692 6.78438 36.3678 6.95416 36.7393 7.16572L36.7122 7.15161C36.7692 7.18416 36.8375 7.20369 36.9107 7.20369H36.9113C37.0105 7.19935 37.0995 7.15921 37.1668 7.09628C37.176 7.08815 37.1901 7.09194 37.1988 7.08327L38.1257 6.15839C38.1827 6.1009 38.2412 6.08408 38.2212 6.06292L39.9205 7.74559C39.914 7.79984 39.8885 7.84649 39.8505 7.88066L38.9203 8.80119L38.9143 8.8153C38.8514 8.88202 38.8113 8.97098 38.8069 9.06916V9.07025C38.8064 9.0811 38.8042 9.08978 38.8042 9.10062C38.8042 9.10117 38.8042 9.10171 38.8042 9.10225C38.8042 9.1706 38.8216 9.23515 38.852 9.29102L38.8509 9.28885C39.0488 9.63385 39.2192 10.0325 39.3401 10.4519L39.3499 10.4904C39.3515 10.4969 39.3586 10.4996 39.3602 10.5056C39.3851 10.5799 39.4291 10.6428 39.486 10.6894L39.4866 10.69C39.4969 10.6981 39.5088 10.7063 39.5207 10.7133L39.5224 10.7144C39.5831 10.7578 39.659 10.7849 39.7404 10.7871H41.0492C41.1316 10.7865 41.1837 10.818 41.1848 10.7876L41.1962 13.1793C41.1609 13.208 41.1154 13.2254 41.066 13.2254C41.0606 13.2254 41.0557 13.2254 41.0503 13.2248H41.0508L41.0535 13.2221ZM34.0003 9.42501C32.5776 9.42501 31.4239 10.5788 31.4239 12.0016C31.4239 13.4245 32.5776 14.5782 34.0003 14.5782C35.423 14.5782 36.5766 13.4245 36.5766 12.0016C36.575 10.5793 35.4224 9.42663 34.0003 9.42501ZM34.0003 13.7646C33.0267 13.7646 32.2375 12.9753 32.2375 12.0016C32.2375 11.0279 33.0267 10.2387 34.0003 10.2387C34.9739 10.2387 35.763 11.0279 35.763 12.0016C35.762 12.9748 34.9733 13.7635 34.0003 13.7646Z" fill="#18FFFF"/>
<path d="M21.0514 12.9707H20.0317C19.9243 12.6534 19.812 12.3892 19.6829 12.1348L19.6997 12.1711L20.4254 11.4529C20.6153 11.2902 20.7346 11.0504 20.7346 10.7825C20.7346 10.5622 20.6538 10.3605 20.5198 10.2059L20.5209 10.2069L18.7972 8.48305C18.6437 8.34961 18.4425 8.26878 18.2217 8.26878C17.9538 8.26878 17.7135 8.38866 17.5524 8.57798L17.5513 8.57906L16.8288 9.30052C16.6108 9.18877 16.3472 9.07648 16.0749 8.98264L16.0304 8.96908L16.0353 7.94928C16.037 7.92758 16.038 7.90263 16.038 7.87714C16.038 7.41389 15.6801 7.03417 15.2255 7H15.2228H12.7842C12.3265 7.03417 11.9679 7.41389 11.9679 7.87714C11.9679 7.90263 11.969 7.92758 11.9712 7.95254V7.94928V8.96854C11.6539 9.07594 11.3903 9.18769 11.1359 9.31625L11.1722 9.29943L10.4541 8.57472C10.2919 8.38378 10.0517 8.2639 9.78372 8.2639C9.56297 8.2639 9.36174 8.34527 9.20716 8.47925L9.20824 8.47817L7.48398 10.2026C7.35055 10.3561 7.2692 10.5579 7.2692 10.7781C7.2692 11.0461 7.38906 11.2864 7.57836 11.4475L7.57944 11.4486L8.30028 12.1695C8.18801 12.3881 8.07573 12.6528 7.9819 12.9262L7.96888 12.9707L6.94918 12.9658C6.92749 12.9642 6.90254 12.9631 6.87705 12.9631C6.41384 12.9631 6.03417 13.3217 6 13.7762V13.779V16.2172C6.03363 16.6751 6.41384 17.0336 6.87705 17.0336C6.90254 17.0336 6.92749 17.0325 6.95244 17.0304H6.94918H7.96888C8.07627 17.3477 8.18801 17.6119 8.3171 17.8663L8.30082 17.8305L7.57673 18.5465C7.38635 18.7092 7.26648 18.9501 7.26648 19.2186C7.26648 19.4394 7.3473 19.6412 7.48127 19.7958L7.48019 19.7947L9.20445 21.5186C9.3395 21.652 9.525 21.735 9.73057 21.735C9.73436 21.735 9.73816 21.735 9.74196 21.735H9.74142C10.0207 21.728 10.2713 21.6097 10.4509 21.4226L10.4514 21.422L11.1728 20.7006C11.3914 20.8129 11.6561 20.9251 11.9294 21.019L11.9739 21.0325L11.969 22.0513C11.9674 22.073 11.9663 22.0979 11.9663 22.1229C11.9663 22.5861 12.3248 22.9664 12.7793 23H12.7821H15.2207C15.6779 22.9653 16.0359 22.5861 16.0359 22.1229C16.0359 22.0974 16.0348 22.0724 16.0326 22.0475V22.0507V21.0304C16.3499 20.923 16.6146 20.8107 16.8695 20.6816L16.8332 20.6984L17.5497 21.4215C17.7298 21.6081 17.9798 21.7263 18.257 21.7328H18.258H18.2591C18.2624 21.7328 18.2662 21.7328 18.2694 21.7328C18.4745 21.7328 18.66 21.6509 18.7961 21.5186L20.5193 19.7952C20.6516 19.6602 20.7335 19.4746 20.7335 19.2701C20.7335 19.2653 20.7335 19.2609 20.7335 19.256C20.727 18.9778 20.6093 18.7288 20.4233 18.5492L20.4227 18.5487L19.7008 17.8261C19.8125 17.6086 19.9243 17.345 20.0186 17.0727L20.0322 17.0277L21.0514 17.0325C21.0731 17.0342 21.098 17.0353 21.123 17.0353C21.5867 17.0353 21.9664 16.6767 22 16.2216V16.2189V13.7806C21.9658 13.3228 21.5862 12.9647 21.1224 12.9647C21.0969 12.9647 21.072 12.9658 21.0476 12.968H21.0508L21.0514 12.9707ZM21.0535 16.2221L19.7431 16.2156C19.7323 16.2156 19.723 16.221 19.7127 16.2216C19.6053 16.2346 19.511 16.284 19.441 16.3567C19.4112 16.3957 19.3851 16.4397 19.3645 16.4868L19.3629 16.4912C19.3602 16.4988 19.3542 16.5042 19.352 16.5123C19.2219 16.9702 19.0521 17.3689 18.84 17.7404L18.8541 17.7139C18.8248 17.7681 18.8075 17.8321 18.8075 17.9005C18.8075 17.901 18.8075 17.9021 18.8075 17.9026C18.8075 17.9113 18.8091 17.9178 18.8097 17.927C18.8129 18.0285 18.853 18.1196 18.9176 18.188L18.9225 18.2004L19.8483 19.1275C19.9075 19.1866 19.9226 19.2441 19.9438 19.2229L18.2613 20.9224C18.2076 20.9154 18.1604 20.8893 18.1268 20.8519L17.2063 19.9227C17.202 19.9178 17.1944 19.92 17.1901 19.9156C17.1244 19.8549 17.0382 19.8164 16.9427 19.811H16.9417C16.9308 19.8093 16.9178 19.8082 16.9048 19.8077C16.837 19.8077 16.7724 19.8251 16.7171 19.8554L16.7193 19.8544C16.3743 20.0507 15.9746 20.221 15.5553 20.3442L15.5152 20.3545C15.507 20.3567 15.5016 20.3626 15.494 20.3653C15.4419 20.3881 15.3969 20.4152 15.3557 20.4462L15.3573 20.4451C15.3384 20.4635 15.3215 20.4836 15.3069 20.5047L15.3058 20.5058C15.2912 20.5237 15.2771 20.5438 15.2651 20.5655L15.264 20.5677C15.2461 20.6116 15.232 20.6626 15.2244 20.7163L15.2239 20.7201C15.2234 20.7288 15.2185 20.7369 15.2185 20.7456V22.054C15.2185 22.1353 15.1887 22.1885 15.2185 22.1896L12.8265 22.2021C12.7983 22.1657 12.781 22.1191 12.781 22.0686C12.781 22.0643 12.781 22.0599 12.7815 22.0556L12.788 20.7478C12.788 20.7385 12.7837 20.7304 12.7826 20.7217C12.7799 20.693 12.7745 20.6664 12.7663 20.6409L12.7669 20.6436C12.7604 20.6149 12.7517 20.5894 12.7408 20.565L12.7419 20.5677C12.7137 20.521 12.6828 20.4809 12.6481 20.4445C12.6324 20.4315 12.6145 20.4196 12.596 20.4087L12.5939 20.4076C12.57 20.3914 12.5434 20.3773 12.5147 20.3664L12.512 20.3653C12.5044 20.3626 12.4989 20.3567 12.4908 20.3545C12.0314 20.2238 11.6311 20.054 11.2585 19.8424L11.2861 19.8565C11.2324 19.8272 11.169 19.8099 11.1012 19.8099C11.0893 19.8093 11.0795 19.812 11.0676 19.8126C10.9699 19.8169 10.8821 19.856 10.8154 19.9173C10.811 19.9216 10.8045 19.9194 10.8002 19.9238L9.87539 20.8487C9.81735 20.9067 9.75823 20.9241 9.77884 20.9452L8.07899 19.2631C8.08549 19.2088 8.11153 19.1616 8.1495 19.1275L9.07916 18.208L9.08512 18.1939C9.1475 18.1272 9.18763 18.0388 9.19197 17.9411V17.9401C9.19252 17.9287 9.19468 17.92 9.19468 17.9086C9.19468 17.9081 9.19468 17.9075 9.19468 17.907C9.19468 17.8386 9.17733 17.7741 9.14695 17.7182L9.14804 17.7204C8.95007 17.3754 8.77976 16.9767 8.65826 16.5568L8.6485 16.5178C8.64633 16.5096 8.63982 16.5037 8.63711 16.4955C8.61433 16.4445 8.58829 16.4001 8.55792 16.3599L8.559 16.3615C8.52375 16.3285 8.48524 16.2981 8.44402 16.272L8.44076 16.2704C8.4131 16.2568 8.38164 16.246 8.34801 16.2395L8.3453 16.2389C8.32957 16.2341 8.31004 16.2303 8.28998 16.2276H8.28781C8.27696 16.2265 8.26774 16.221 8.25635 16.221H6.9481C6.86566 16.2221 6.81359 16.1912 6.8125 16.22L6.80057 13.8283C6.83691 13.8001 6.88247 13.7828 6.93291 13.7828C6.93779 13.7828 6.94213 13.7828 6.94702 13.7833H6.94647L8.25689 13.7898C8.33933 13.7876 8.41527 13.7605 8.47764 13.716L8.47656 13.7171C8.48958 13.7095 8.50042 13.7019 8.51127 13.6938L8.51019 13.6943C8.56931 13.6466 8.61378 13.5826 8.63765 13.5094L8.63819 13.5066C8.63982 13.5012 8.64578 13.4991 8.64741 13.4931C8.77867 13.0336 8.94844 12.6344 9.16051 12.2617L9.14641 12.2889C9.1757 12.2346 9.19306 12.1706 9.19306 12.1023C9.19306 12.1017 9.19306 12.1017 9.19306 12.1012C9.1936 12.0909 9.19143 12.0833 9.19089 12.073C9.18709 11.9731 9.1475 11.8831 9.08404 11.8153L9.07861 11.8023L8.15384 10.8774C8.09526 10.8177 8.07682 10.7575 8.05838 10.7809L9.74087 9.08082C9.79565 9.08516 9.84339 9.11229 9.87539 9.15189L9.87593 9.15243L10.7964 10.0816C10.8061 10.0914 10.8213 10.0876 10.8316 10.0963C10.8994 10.1619 10.9916 10.2026 11.0936 10.2026C11.1641 10.2026 11.2297 10.1831 11.2861 10.1494L11.2845 10.1505C11.6295 9.95308 12.0287 9.78329 12.4479 9.66124L12.487 9.65148C12.4946 9.64931 12.5 9.64334 12.5076 9.64117C12.5385 9.62978 12.5646 9.61568 12.5895 9.5994L12.5879 9.60049C12.6763 9.55167 12.7403 9.46813 12.762 9.36886L12.7625 9.36669C12.7701 9.34337 12.7761 9.31625 12.7788 9.28804V9.28641C12.7793 9.27773 12.7837 9.27014 12.7837 9.26146V7.95308C12.7837 7.87117 12.8141 7.81801 12.7842 7.81747L15.1762 7.80499C15.2044 7.84133 15.2212 7.88744 15.2212 7.93789C15.2212 7.94277 15.2212 7.94711 15.2207 7.95199L15.2141 9.25983C15.2141 9.26851 15.2185 9.27611 15.219 9.28533C15.2217 9.31516 15.2272 9.34283 15.2358 9.36941L15.2353 9.36669C15.2738 9.49363 15.3671 9.59398 15.487 9.64117L15.4897 9.64226C15.4973 9.64497 15.5032 9.65094 15.5108 9.65311C15.9692 9.78438 16.3678 9.95416 16.7393 10.1657L16.7122 10.1516C16.7692 10.1842 16.8375 10.2037 16.9107 10.2037H16.9113C17.0105 10.1993 17.0995 10.1592 17.1668 10.0963C17.176 10.0881 17.1901 10.0919 17.1988 10.0833L18.1257 9.15839C18.1827 9.10089 18.2412 9.08408 18.2212 9.06292L19.9205 10.7456C19.914 10.7998 19.8885 10.8465 19.8505 10.8807L18.9203 11.8012L18.9143 11.8153C18.8514 11.882 18.8113 11.971 18.8069 12.0692V12.0702C18.8064 12.0811 18.8042 12.0898 18.8042 12.1006C18.8042 12.1012 18.8042 12.1017 18.8042 12.1023C18.8042 12.1706 18.8216 12.2352 18.852 12.291L18.8509 12.2889C19.0489 12.6338 19.2192 13.0325 19.3401 13.4519L19.3499 13.4904C19.3515 13.4969 19.3586 13.4996 19.3602 13.5056C19.3851 13.5799 19.4291 13.6428 19.486 13.6894L19.4866 13.69C19.4969 13.6981 19.5088 13.7063 19.5207 13.7133L19.5224 13.7144C19.5831 13.7578 19.659 13.7849 19.7404 13.7871H21.0492C21.1316 13.7865 21.1837 13.818 21.1848 13.7876L21.1962 16.1793C21.1609 16.208 21.1154 16.2254 21.066 16.2254C21.0606 16.2254 21.0557 16.2254 21.0503 16.2248H21.0508L21.0535 16.2221ZM14.0003 12.425C12.5776 12.425 11.4239 13.5788 11.4239 15.0016C11.4239 16.4245 12.5776 17.5782 14.0003 17.5782C15.423 17.5782 16.5766 16.4245 16.5766 15.0016C16.575 13.5793 15.4224 12.4266 14.0003 12.425ZM14.0003 16.7646C13.0267 16.7646 12.2375 15.9753 12.2375 15.0016C12.2375 14.0279 13.0267 13.2387 14.0003 13.2387C14.9739 13.2387 15.763 14.0279 15.763 15.0016C15.762 15.9748 14.9733 16.7635 14.0003 16.7646Z" fill="#18FFFF"/>
</g>
<defs>
<clipPath id="clip0_296_2331">
<rect width="48" height="48" fill="white"/>
</clipPath>
</defs>
</svg>
