<svg width="38" height="48" viewBox="0 0 38 48" fill="none" xmlns="http://www.w3.org/2000/svg">
<g clip-path="url(#clip0_296_2354)">
<mask id="path-1-inside-1_296_2354" fill="white">
<path d="M38 32.868V45.3255C38 46.8035 36.8168 48 35.3553 48H2.64469C1.18315 48 0 46.8035 0 45.3255V2.67449C0 1.19648 1.18315 0 2.64469 0H4.663M7.37729 0H29.3004L38 8.93842V27.1672"/>
</mask>
<path d="M39 32.868C39 32.3158 38.5523 31.868 38 31.868C37.4477 31.868 37 32.3158 37 32.868H38H39ZM4.663 1C5.21529 1 5.663 0.552285 5.663 0C5.663 -0.552285 5.21529 -1 4.663 -1V0V1ZM7.37729 -1C6.82501 -1 6.37729 -0.552285 6.37729 0C6.37729 0.552285 6.82501 1 7.37729 1V0V-1ZM29.3004 0L30.017 -0.69747C29.8287 -0.890892 29.5703 -1 29.3004 -1V0ZM38 8.93842H39C39 8.67789 38.8983 8.42765 38.7166 8.24095L38 8.93842ZM37 27.1672C37 27.7194 37.4477 28.1672 38 28.1672C38.5523 28.1672 39 27.7194 39 27.1672H38H37ZM38 32.868H37V45.3255H38H39V32.868H38ZM38 45.3255H37C37 46.2618 36.254 47 35.3553 47V48V49C37.3797 49 39 47.3452 39 45.3255H38ZM35.3553 48V47H2.64469V48V49H35.3553V48ZM2.64469 48V47C1.74597 47 1 46.2618 1 45.3255H0H-1C-1 47.3452 0.620334 49 2.64469 49V48ZM0 45.3255H1V2.67449H0H-1V45.3255H0ZM0 2.67449H1C1 1.73817 1.74597 1 2.64469 1V0V-1C0.620332 -1 -1 0.654789 -1 2.67449H0ZM2.64469 0V1H4.663V0V-1H2.64469V0ZM7.37729 0V1H29.3004V0V-1H7.37729V0ZM29.3004 0L28.5838 0.69747L37.2834 9.63589L38 8.93842L38.7166 8.24095L30.017 -0.69747L29.3004 0ZM38 8.93842H37V27.1672H38H39V8.93842H38Z" fill="#18FFFF" mask="url(#path-1-inside-1_296_2354)"/>
<path d="M17 9.05664H24" stroke="#18FFFF" stroke-miterlimit="10" stroke-linejoin="round"/>
<path d="M17 12.0566H24" stroke="#18FFFF" stroke-miterlimit="10" stroke-linejoin="round"/>
<path d="M17 15.0566H34" stroke="#18FFFF" stroke-miterlimit="10" stroke-linejoin="round"/>
<path d="M17 18.0566H34" stroke="#18FFFF" stroke-miterlimit="10" stroke-linejoin="round"/>
<path fill-rule="evenodd" clip-rule="evenodd" d="M5.12821 8H13.8718C14.5064 8 15 8.50658 15 9.15789V17.8421C15 18.4934 14.5064 19 13.8718 19H5.12821C4.49359 19 4 18.4934 4 17.8421V9.15789C4 8.57895 4.49359 8 5.12821 8Z" stroke="#18FFFF" stroke-miterlimit="10" stroke-linecap="round" stroke-linejoin="round"/>
<path fill-rule="evenodd" clip-rule="evenodd" d="M9.14286 14H9.85714C11.0476 14 12 14.8727 12 15.9636V16.8364C12 16.9455 11.9405 17 11.8214 17H7.17857C7.05952 17 7 16.9455 7 16.8364V15.9636C7 14.8727 8.0119 14 9.14286 14Z" stroke="#18FFFF" stroke-miterlimit="10" stroke-linecap="round" stroke-linejoin="round"/>
<path d="M9.5 9.5C10.3309 9.5 11 10.1403 11 11C11 11.8597 10.3309 12.5 9.5 12.5C8.6691 12.5 8 11.8597 8 11C8 10.1403 8.6691 9.5 9.5 9.5Z" stroke="#18FFFF"/>
<path d="M32 24H22C20.8954 24 20 24.8954 20 26V38C20 39.1046 20.8954 40 22 40H32C33.1046 40 34 39.1046 34 38V26C34 24.8954 33.1046 24 32 24Z" stroke="#18FFFF" stroke-miterlimit="10" stroke-linecap="round" stroke-linejoin="round"/>
<path fill-rule="evenodd" clip-rule="evenodd" d="M27 26C29.1818 26 31 28.7073 31 32C31 35.2927 29.2424 38 27 38C24.8182 38 23 35.2927 23 32C23 28.7073 24.8182 26 27 26Z" stroke="#18FFFF"/>
<path d="M25.7011 33.4165V31.7083C25.7011 30.7516 26.4126 30 27.3182 30H27.3829C28.2885 30 29 30.7516 29 31.7083V33.4165C29 36.9013 23 37 23 32" stroke="#18FFFF" stroke-miterlimit="10" stroke-linecap="round" stroke-linejoin="round"/>
<path d="M4.98633 26H17.0137C17.0886 26 17.2031 26.0425 17.3145 26.1807C17.4239 26.3166 17.5 26.5125 17.5 26.7246V28.2754C17.5 28.4875 17.4239 28.6834 17.3145 28.8193C17.2031 28.9575 17.0886 29 17.0137 29H4.98633C4.91136 29 4.79688 28.9575 4.68555 28.8193C4.5761 28.6834 4.5 28.4875 4.5 28.2754V26.7246C4.5 26.5125 4.5761 26.3166 4.68555 26.1807C4.79688 26.0425 4.91136 26 4.98633 26Z" stroke="#18FFFF"/>
<path d="M4 32.0889H17.4583" stroke="#18FFFF" stroke-miterlimit="10" stroke-linejoin="round"/>
<path d="M4 35.1709H14.2917" stroke="#18FFFF" stroke-miterlimit="10" stroke-linejoin="round"/>
<path d="M4 38.252H11.9167" stroke="#18FFFF" stroke-miterlimit="10" stroke-linejoin="round"/>
<path d="M36.6445 8.20215H30.1582C29.8513 8.20215 29.6672 8.00009 29.667 7.74609V1.41113L36.6445 8.20215Z" stroke="#18FFFF" stroke-miterlimit="10" stroke-linecap="round" stroke-linejoin="round"/>
</g>
<defs>
<clipPath id="clip0_296_2354">
<rect width="38" height="48" fill="white"/>
</clipPath>
</defs>
</svg>
