<svg width="54" height="48" viewBox="0 0 54 48" fill="none" xmlns="http://www.w3.org/2000/svg">
<g clip-path="url(#clip0_296_2419)">
<path d="M32.9297 13.749L36.0308 8.4082" stroke="#18FFFF" stroke-width="1.29411" stroke-miterlimit="10" stroke-linecap="round" stroke-linejoin="round"/>
<path d="M38.7881 24.0283H44.9329" stroke="#18FFFF" stroke-width="1.29411" stroke-miterlimit="10" stroke-linecap="round" stroke-linejoin="round"/>
<path d="M32.8154 34.1934L35.8591 39.5916" stroke="#18FFFF" stroke-width="1.29411" stroke-miterlimit="10" stroke-linecap="round" stroke-linejoin="round"/>
<path d="M38.0407 8.92506C40.2291 8.92506 42.0032 7.15098 42.0032 4.96253C42.0032 2.77409 40.2291 1 38.0407 1C35.8522 1 34.0781 2.77409 34.0781 4.96253C34.0781 7.15098 35.8522 8.92506 38.0407 8.92506Z" stroke="#18FFFF" stroke-width="1.29411" stroke-miterlimit="10" stroke-linecap="round" stroke-linejoin="round"/>
<path d="M48.9528 28.0491C51.1412 28.0491 52.9153 26.275 52.9153 24.0866C52.9153 21.8981 51.1412 20.124 48.9528 20.124C46.7643 20.124 44.9902 21.8981 44.9902 24.0866C44.9902 26.275 46.7643 28.0491 48.9528 28.0491Z" stroke="#18FFFF" stroke-width="1.29398" stroke-miterlimit="10" stroke-linecap="round" stroke-linejoin="round"/>
<path d="M37.8112 47.0003C39.9996 47.0003 41.7737 45.2262 41.7737 43.0377C41.7737 40.8493 39.9996 39.0752 37.8112 39.0752C35.6227 39.0752 33.8486 40.8493 33.8486 43.0377C33.8486 45.2262 35.6227 47.0003 37.8112 47.0003Z" stroke="#18FFFF" stroke-width="1.29398" stroke-miterlimit="10" stroke-linecap="round" stroke-linejoin="round"/>
<path d="M15.8737 8.92506C18.0621 8.92506 19.8362 7.15098 19.8362 4.96253C19.8362 2.77409 18.0621 1 15.8737 1C13.6852 1 11.9111 2.77409 11.9111 4.96253C11.9111 7.15098 13.6852 8.92506 15.8737 8.92506Z" stroke="#18FFFF" stroke-width="1.29398" stroke-miterlimit="10" stroke-linecap="round" stroke-linejoin="round"/>
<path d="M4.96255 28.0491C7.15101 28.0491 8.9251 26.275 8.9251 24.0866C8.9251 21.8981 7.15101 20.124 4.96255 20.124C2.77409 20.124 1 21.8981 1 24.0866C1 26.275 2.77409 28.0491 4.96255 28.0491Z" stroke="#18FFFF" stroke-width="1.29398" stroke-miterlimit="10" stroke-linecap="round" stroke-linejoin="round"/>
<path d="M16.1042 47.0003C18.2926 47.0003 20.0667 45.2262 20.0667 43.0377C20.0667 40.8493 18.2926 39.0752 16.1042 39.0752C13.9157 39.0752 12.1416 40.8493 12.1416 43.0377C12.1416 45.2262 13.9157 47.0003 16.1042 47.0003Z" stroke="#18FFFF" stroke-width="1.29398" stroke-miterlimit="10" stroke-linecap="round" stroke-linejoin="round"/>
<path d="M21 13L18 8" stroke="#18FFFF" stroke-width="1.29411" stroke-miterlimit="10" stroke-linejoin="round"/>
<path d="M15.1272 24.0283H8.98242" stroke="#18FFFF" stroke-width="1.29411" stroke-miterlimit="10" stroke-linecap="round" stroke-linejoin="round"/>
<path d="M21.1003 34.1934L18.0566 39.5916" stroke="#18FFFF" stroke-width="1.29411" stroke-miterlimit="10" stroke-linecap="round" stroke-linejoin="round"/>
<path d="M17.5368 16.8339C21.4801 11.6079 28.8799 10.5727 34.1059 14.516C39.3318 18.4593 40.3211 25.8245 36.3778 31.0505C32.4345 36.2765 25.0347 37.3117 19.8087 33.3684C15.683 30.2552 14.1594 24.9329 15.643 20.297" stroke="#18FFFF" stroke-width="1.29411" stroke-miterlimit="10" stroke-linecap="round" stroke-linejoin="round"/>
<path d="M27.0144 21.6498C28.5368 21.6498 29.7709 20.4157 29.7709 18.8933C29.7709 17.3709 28.5368 16.1367 27.0144 16.1367C25.492 16.1367 24.2578 17.3709 24.2578 18.8933C24.2578 20.4157 25.492 21.6498 27.0144 21.6498Z" stroke="#18FFFF" stroke-width="1.29411" stroke-miterlimit="10" stroke-linecap="round" stroke-linejoin="round"/>
<path fill-rule="evenodd" clip-rule="evenodd" d="M21.7314 29.7716V27.1873C21.7314 25.1773 23.3394 23.5693 25.3494 23.5693H26.9574H28.5654C30.5754 23.5693 32.1834 25.1773 32.1834 27.1873V29.7716C28.7377 31.0924 25.1197 31.0924 21.7314 29.7716Z" stroke="#18FFFF" stroke-width="1.29411" stroke-miterlimit="10" stroke-linecap="round" stroke-linejoin="round"/>
</g>
<defs>
<clipPath id="clip0_296_2419">
<rect width="54" height="48" fill="white"/>
</clipPath>
</defs>
</svg>
