<svg width="478" height="489" viewBox="0 0 478 489" fill="none" xmlns="http://www.w3.org/2000/svg">
<path opacity="0.0344828" d="M204.733 304.31C155.634 263.111 115.062 221.214 89.1556 186.789C76.2 169.574 66.9289 154.25 62.0863 141.831C59.6648 135.621 58.3603 130.163 58.2425 125.572C58.1249 120.986 59.1915 117.298 61.4768 114.574C63.7621 111.851 67.2091 110.16 71.7461 109.479C76.2874 108.798 81.8898 109.135 88.4255 110.441C101.496 113.054 118.198 119.522 137.402 129.292C175.802 148.827 224.107 181.508 273.206 222.707C322.305 263.905 362.877 305.801 388.783 340.226C401.739 357.441 411.01 372.766 415.853 385.185C418.274 391.395 419.579 396.854 419.696 401.444C419.814 406.03 418.747 409.719 416.462 412.442C414.177 415.166 410.73 416.856 406.193 417.537C401.651 418.218 396.049 417.881 389.513 416.575C376.442 413.962 359.741 407.493 340.537 397.723C302.137 378.188 253.832 345.508 204.733 304.31Z" stroke="#212730"/>
<path opacity="0.0689655" d="M201.307 299.317C155.985 253.996 119.22 208.722 96.4119 172.171C85.0061 153.892 77.1058 137.818 73.3639 125.025C71.4929 118.628 70.6691 113.076 70.9519 108.493C71.2344 103.913 72.6184 100.332 75.1324 97.8183C77.6464 95.3043 81.2276 93.9203 85.8067 93.6378C90.3901 93.355 95.9418 94.1789 102.339 96.0498C115.132 99.7917 131.207 107.691 149.486 119.097C186.037 141.905 231.31 178.671 276.632 223.993C321.953 269.314 358.719 314.587 381.526 351.138C392.932 369.417 400.833 385.492 404.574 398.286C406.445 404.682 407.269 410.234 406.986 414.818C406.704 419.397 405.32 422.978 402.806 425.492C400.292 428.006 396.711 429.39 392.132 429.672C387.548 429.955 381.997 429.131 375.6 427.26C362.806 423.518 346.732 415.618 328.453 404.212C291.901 381.404 246.628 344.639 201.307 299.317Z" stroke="#212730"/>
<path opacity="0.103448" d="M198.168 294.037C156.969 244.938 124.289 196.632 104.753 158.232C94.9842 139.029 88.5149 122.327 85.9023 109.257C84.596 102.721 84.2592 97.1185 84.9403 92.5771C85.6208 88.04 87.3117 84.5932 90.0352 82.3078C92.7588 80.0225 96.4469 78.9559 101.033 79.0736C105.624 79.1914 111.083 80.4959 117.292 82.9173C129.711 87.7599 145.036 97.0304 162.251 109.986C196.675 135.892 238.572 176.465 279.771 225.564C320.969 274.663 353.65 322.967 373.185 361.367C382.955 380.571 389.424 397.273 392.036 410.344C393.342 416.88 393.679 422.483 392.998 427.024C392.318 431.561 390.627 435.008 387.903 437.293C385.18 439.578 381.492 440.645 376.905 440.527C372.315 440.41 366.856 439.105 360.646 436.684C348.227 431.841 332.903 422.569 315.688 409.614C281.263 383.707 239.366 343.136 198.168 294.037Z" stroke="#212730"/>
<path opacity="0.137931" d="M195.34 288.496C158.577 235.994 130.232 185.023 114.118 145.066C106.059 125.085 101.07 107.883 99.6068 94.6343C98.8751 88.0095 99.0278 82.3992 100.102 77.9345C101.176 73.474 103.16 70.1876 106.073 68.1483C108.985 66.1091 112.752 65.368 117.311 65.8849C121.874 66.4023 127.198 68.1777 133.173 71.1311C145.122 77.0376 159.581 87.6085 175.601 102.015C207.637 130.823 245.838 174.893 282.601 227.396C319.363 279.898 347.709 330.868 363.823 370.824C371.882 390.806 376.871 408.009 378.334 421.258C379.066 427.882 378.913 433.493 377.839 437.958C376.765 442.418 374.781 445.704 371.868 447.744C368.956 449.783 365.189 450.524 360.63 450.007C356.067 449.49 350.743 447.714 344.768 444.761C332.819 438.854 318.361 428.282 302.34 413.876C270.304 385.067 232.103 340.999 195.34 288.496Z" stroke="#212730"/>
<path opacity="0.172414" d="M192.843 282.725C160.796 227.218 137 173.971 124.43 132.762C118.144 112.154 114.673 94.5828 114.37 81.2568C114.218 74.5934 114.859 69.0178 116.319 64.6637C117.777 60.3137 120.04 57.2129 123.119 55.4352C126.198 53.6575 130.016 53.2476 134.512 54.1598C139.012 55.073 144.162 57.3056 149.856 60.7685C161.246 67.694 174.728 79.4848 189.432 95.233C218.835 126.724 253.049 173.955 285.096 229.462C317.143 284.969 340.939 338.215 353.509 379.424C359.796 400.032 363.266 417.604 363.569 430.93C363.721 437.593 363.08 443.169 361.62 447.523C360.162 451.873 357.899 454.974 354.82 456.752C351.741 458.529 347.923 458.939 343.427 458.027C338.927 457.114 333.777 454.881 328.083 451.418C316.693 444.493 303.212 432.701 288.508 416.953C259.105 385.462 224.89 338.232 192.843 282.725Z" stroke="#212730"/>
<path opacity="0.206897" d="M190.697 276.749C163.61 218.66 144.546 163.541 135.615 121.394C131.149 100.316 129.222 82.5097 130.082 69.2079C130.512 62.5567 131.636 57.0582 133.47 52.8479C135.301 48.6415 137.827 45.7497 141.049 44.2471C144.271 42.7446 148.11 42.6689 152.509 43.9696C156.913 45.2715 161.848 47.9444 167.219 51.8905C177.961 59.7823 190.365 72.7032 203.64 89.673C230.187 123.606 260.155 173.64 287.242 231.729C314.329 289.818 333.394 344.935 342.325 387.083C346.791 408.161 348.717 425.968 347.857 439.27C347.427 445.921 346.303 451.42 344.469 455.63C342.638 459.836 340.112 462.728 336.89 464.231C333.668 465.733 329.829 465.809 325.43 464.508C321.026 463.206 316.091 460.533 310.72 456.587C299.977 448.695 287.575 435.773 274.299 418.803C247.753 384.87 217.784 334.837 190.697 276.749Z" stroke="#212730"/>
<path opacity="0.241379" d="M188.919 270.601C166.997 210.372 152.81 153.802 147.586 111.037C144.974 89.6499 144.607 71.7433 146.623 58.5671C147.63 51.9787 149.23 46.5991 151.423 42.5646C153.615 38.5339 156.382 35.8732 159.723 34.6572C163.064 33.4412 166.895 33.7004 171.164 35.3795C175.438 37.0603 180.121 40.1532 185.128 44.5523C195.142 53.3503 206.371 67.3031 218.117 85.3654C241.605 121.483 267.099 173.939 289.02 234.167C310.941 294.396 325.13 350.965 330.353 393.73C332.965 415.117 333.332 433.025 331.316 446.201C330.308 452.789 328.709 458.169 326.516 462.204C324.324 466.234 321.556 468.895 318.216 470.111C314.875 471.327 311.044 471.068 306.775 469.389C302.501 467.708 297.818 464.615 292.811 460.216C282.797 451.418 271.568 437.464 259.822 419.402C236.334 383.284 210.84 330.83 188.919 270.601Z" stroke="#212730"/>
<path opacity="0.275862" d="M187.522 264.317C170.933 202.407 161.73 144.816 160.254 101.757C159.515 80.2245 160.71 62.3541 163.867 49.4037C165.445 42.9282 167.507 37.7085 170.044 33.8805C172.578 30.0561 175.567 27.6468 179.001 26.7265C182.435 25.8064 186.229 26.3984 190.336 28.4433C194.446 30.4901 198.842 33.9794 203.447 38.7982C212.655 48.4355 222.626 63.3139 232.754 82.3312C253.004 120.359 273.829 174.836 290.417 236.746C307.006 298.656 316.21 356.247 317.686 399.305C318.425 420.838 317.229 438.709 314.073 451.66C312.495 458.135 310.432 463.355 307.896 467.183C305.361 471.007 302.372 473.417 298.938 474.337C295.504 475.257 291.711 474.665 287.604 472.62C283.493 470.573 279.097 467.084 274.492 462.265C265.284 452.628 255.314 437.749 245.186 418.731C224.936 380.703 204.111 326.227 187.522 264.317Z" stroke="#212730"/>
<path opacity="0.310345" d="M186.516 257.927C175.386 194.807 171.237 136.633 173.519 93.6096C174.661 72.0942 177.409 54.396 181.682 41.7699C183.818 35.4566 186.328 30.4365 189.188 26.8442C192.046 23.2552 195.234 21.1156 198.735 20.4981C202.236 19.8808 205.964 20.8012 209.877 23.1962C213.794 25.5935 217.869 29.4527 222.036 34.6544C230.369 45.0576 239.006 60.7484 247.437 80.576C264.296 120.224 280.293 176.309 291.423 239.429C302.553 302.549 306.702 360.723 304.42 403.746C303.279 425.262 300.53 442.96 296.257 455.587C294.121 461.9 291.611 466.92 288.751 470.512C285.893 474.101 282.705 476.241 279.204 476.858C275.703 477.476 271.975 476.555 268.062 474.16C264.145 471.763 260.07 467.904 255.903 462.702C247.57 452.299 238.934 436.607 230.503 416.779C213.644 377.132 197.646 321.047 186.516 257.927Z" stroke="#212730"/>
<path opacity="0.344828" d="M185.91 251.466C180.324 187.616 181.261 129.302 187.284 86.6412C190.296 65.3072 194.576 47.9158 199.933 35.7102C202.612 29.6071 205.549 24.8249 208.712 21.4955C211.872 18.1692 215.234 16.3156 218.776 16.0057C222.318 15.6958 225.951 16.9376 229.64 19.6645C233.333 22.3941 237.056 26.5938 240.754 32.1389C248.149 43.2288 255.385 59.6126 262.056 80.0995C275.396 121.066 286.444 178.332 292.03 242.182C297.616 306.032 296.68 364.346 290.657 407.006C287.645 428.34 283.364 445.732 278.007 457.938C275.328 464.041 272.39 468.824 269.228 472.153C266.068 475.479 262.706 477.333 259.164 477.643C255.622 477.953 251.989 476.711 248.3 473.984C244.607 471.254 240.884 467.055 237.186 461.51C229.791 450.42 222.556 434.035 215.885 413.548C202.545 372.581 191.496 315.316 185.91 251.466Z" stroke="#212730"/>
<path opacity="0.37931" d="M185.706 244.97C185.706 180.876 191.722 122.865 201.44 80.8921C206.301 59.9017 212.08 42.9496 218.48 31.2573C221.681 25.4109 225.024 20.9029 228.465 17.8618C231.903 14.8236 235.413 13.2701 238.969 13.27C242.524 13.27 246.035 14.8237 249.473 17.8618C252.914 20.9028 256.257 25.411 259.457 31.2573C265.858 42.9496 271.638 59.9017 276.498 80.8921C286.216 122.865 292.231 180.876 292.231 244.97C292.231 309.064 286.216 367.074 276.498 409.047C271.638 430.038 265.858 446.991 259.457 458.683C256.257 464.529 252.914 469.038 249.473 472.079C246.035 475.117 242.524 476.67 238.969 476.67C235.413 476.67 231.903 475.117 228.465 472.079C225.024 469.038 221.681 464.529 218.48 458.683C212.08 446.991 206.301 430.038 201.44 409.047C191.722 367.074 185.706 309.064 185.706 244.97Z" stroke="#212730"/>
<path opacity="0.413793" d="M185.909 238.473C191.495 174.623 202.544 117.357 215.883 76.3906C222.554 55.9038 229.789 39.5198 237.185 28.4299C240.882 22.8847 244.606 18.6851 248.298 15.9555C251.988 13.2285 255.621 11.9869 259.163 12.2967C262.704 12.6066 266.066 14.4603 269.226 17.7865C272.389 21.1158 275.327 25.8982 278.005 32.0012C283.362 44.2069 287.643 61.5982 290.655 82.9323C296.679 125.593 297.615 183.907 292.029 247.757C286.442 311.607 275.394 368.872 262.055 409.839C255.384 430.326 248.148 446.711 240.753 457.801C237.055 463.346 233.331 467.545 229.639 470.275C225.949 473.002 222.316 474.244 218.775 473.934C215.233 473.624 211.871 471.77 208.711 468.444C205.548 465.115 202.611 460.332 199.932 454.229C194.575 442.023 190.295 424.631 187.283 403.297C181.26 360.637 180.322 302.323 185.909 238.473Z" stroke="#212730"/>
<path opacity="0.448276" d="M186.517 232.011C197.646 168.891 213.645 112.806 230.504 73.1583C238.935 53.3308 247.57 37.6398 255.904 27.2366C260.071 22.0348 264.146 18.1757 268.063 15.7784C271.976 13.3833 275.703 12.463 279.205 13.0803C282.706 13.6977 285.894 15.8374 288.751 19.4263C291.612 23.0186 294.122 28.0389 296.258 34.3521C300.531 46.9782 303.28 64.6765 304.421 86.1919C306.703 129.215 302.554 187.389 291.424 250.509C280.294 313.629 264.297 369.714 247.438 409.362C239.006 429.19 230.37 444.881 222.036 455.284C217.869 460.486 213.794 464.345 209.878 466.743C205.965 469.138 202.237 470.058 198.736 469.441C195.235 468.823 192.047 466.684 189.189 463.095C186.328 459.502 183.819 454.482 181.682 448.169C177.409 435.543 174.662 417.844 173.52 396.328C171.238 353.305 175.387 295.132 186.517 232.011Z" stroke="#212730"/>
<path opacity="0.482759" d="M187.522 225.623C204.111 163.713 224.936 109.236 245.187 71.208C255.314 52.1908 265.284 37.3121 274.493 27.6748C279.097 22.8559 283.493 19.3667 287.604 17.3199C291.711 15.275 295.504 14.683 298.938 15.6032C302.373 16.5233 305.362 18.9328 307.896 22.7571C310.433 26.5851 312.495 31.8049 314.073 38.2803C317.229 51.2308 318.425 69.1013 317.687 90.6344C316.211 133.693 307.007 191.284 290.418 253.194C273.829 315.104 253.005 369.58 232.754 407.608C222.627 426.626 212.656 441.505 203.447 451.142C198.843 455.961 194.447 459.45 190.336 461.497C186.229 463.542 182.436 464.134 179.002 463.214C175.567 462.293 172.578 459.884 170.044 456.06C167.507 452.232 165.445 447.012 163.867 440.536C160.711 427.586 159.516 409.715 160.254 388.182C161.73 345.123 170.934 287.533 187.522 225.623Z" stroke="#212730"/>
<path opacity="0.517241" d="M188.919 219.337C210.841 159.108 236.335 106.653 259.823 70.5355C271.569 52.4732 282.798 38.5201 292.811 29.7221C297.818 25.3229 302.501 22.2301 306.775 20.5493C311.044 18.8701 314.875 18.611 318.216 19.8269C321.557 21.0429 324.325 23.7037 326.516 27.7344C328.709 31.7688 330.309 37.1486 331.317 43.7369C333.332 56.9131 332.966 74.8199 330.354 96.2067C325.13 138.972 310.942 195.542 289.02 255.771C267.099 315.999 241.606 368.454 218.118 404.572C206.372 422.634 195.142 436.588 185.128 445.386C180.121 449.785 175.438 452.878 171.165 454.559C166.895 456.238 163.065 456.497 159.724 455.281C156.383 454.065 153.615 451.404 151.424 447.373C149.23 443.339 147.631 437.959 146.623 431.371C144.607 418.195 144.975 400.288 147.587 378.901C152.81 336.135 166.998 279.565 188.919 219.337Z" stroke="#212730"/>
<path opacity="0.551724" d="M190.698 213.191C217.785 155.102 247.754 105.068 274.3 71.1349C287.576 54.1651 299.978 41.2437 310.72 33.3519C316.092 29.4058 321.027 26.733 325.43 25.4311C329.83 24.1304 333.668 24.2061 336.891 25.7086C340.113 27.2112 342.638 30.1031 344.47 34.3093C346.303 38.5196 347.428 44.0183 347.858 50.6694C348.717 63.9712 346.792 81.7779 342.325 102.856C333.395 145.003 314.33 200.121 287.242 258.21C260.155 316.299 230.187 366.332 203.641 400.265C190.365 417.235 177.962 430.157 167.22 438.049C161.848 441.995 156.913 444.668 152.51 445.97C148.11 447.27 144.271 447.195 141.049 445.692C137.827 444.189 135.302 441.298 133.47 437.091C131.637 432.881 130.512 427.382 130.082 420.731C129.223 407.429 131.149 389.622 135.616 368.545C144.547 326.397 163.61 271.279 190.698 213.191Z" stroke="#212730"/>
<path opacity="0.586207" d="M192.844 207.215C224.891 151.708 259.106 104.477 288.509 72.986C303.213 57.2379 316.694 45.4466 328.084 38.5211C333.778 35.0581 338.928 32.8256 343.428 31.9124C347.924 31.0001 351.742 31.4101 354.821 33.1877C357.9 34.9654 360.163 38.0664 361.621 42.4163C363.081 46.7703 363.722 52.3461 363.57 59.0093C363.267 72.3354 359.797 89.9066 353.511 110.515C340.941 151.724 317.144 204.97 285.097 260.477C253.05 315.984 218.836 363.215 189.433 394.706C174.729 410.454 161.247 422.245 149.857 429.171C144.163 432.634 139.013 434.866 134.513 435.78C130.017 436.692 126.199 436.282 123.12 434.504C120.041 432.727 117.778 429.626 116.32 425.276C114.86 420.922 114.219 415.346 114.371 408.683C114.674 395.356 118.145 377.785 124.431 357.177C137.002 315.968 160.797 262.722 192.844 207.215Z" stroke="#212730"/>
<path opacity="0.62069" d="M195.338 201.443C232.101 148.94 270.303 104.871 302.338 76.0627C318.359 61.6561 332.817 51.0846 344.766 45.1781C350.741 42.2247 356.065 40.4494 360.628 39.9319C365.187 39.415 368.954 40.1561 371.866 42.1953C374.779 44.2346 376.763 47.5211 377.837 51.9815C378.911 56.4462 379.064 62.0566 378.332 68.6813C376.869 81.9302 371.881 99.1321 363.822 119.114C347.708 159.071 319.362 210.041 282.599 262.543C245.836 315.046 207.636 359.115 175.6 387.923C159.579 402.33 145.12 412.901 133.171 418.808C127.196 421.761 121.872 423.537 117.309 424.054C112.75 424.571 108.983 423.83 106.071 421.791C103.158 419.751 101.174 416.465 100.1 412.005C99.0258 407.54 98.8731 401.93 99.6048 395.305C101.068 382.056 106.058 364.854 114.116 344.872C130.23 304.915 158.576 253.945 195.338 201.443Z" stroke="#212730"/>
<path opacity="0.655172" d="M198.169 195.901C239.368 146.803 281.265 106.231 315.689 80.3241C332.905 67.3686 348.229 58.0974 360.647 53.2548C366.857 50.8334 372.316 49.5289 376.906 49.4111C381.493 49.2934 385.181 50.3601 387.904 52.6454C390.628 54.9307 392.319 58.3776 392.999 62.9147C393.68 67.456 393.344 73.0584 392.037 79.5941C389.425 92.665 382.956 109.367 373.187 128.57C353.652 166.97 320.971 215.276 279.772 264.375C238.573 313.473 196.677 354.045 162.253 379.952C145.037 392.907 129.712 402.179 117.293 407.021C111.084 409.443 105.625 410.747 101.034 410.865C96.448 410.983 92.7598 409.916 90.0363 407.631C87.3128 405.345 85.6219 401.898 84.9414 397.361C84.2602 392.82 84.597 387.218 85.9034 380.682C88.5159 367.611 94.9857 350.909 104.755 331.706C124.29 293.306 156.97 245 198.169 195.901Z" stroke="#212730"/>
<path opacity="0.689655" d="M201.308 190.622C246.629 145.301 291.903 108.535 328.454 85.7271C346.733 74.3212 362.807 66.4209 375.6 62.6791C381.997 60.8081 387.549 59.9843 392.133 60.2671C396.712 60.5496 400.293 61.9336 402.807 64.4476C405.321 66.9616 406.705 70.5428 406.987 75.1218C407.27 79.7052 406.446 85.257 404.575 91.6539C400.833 104.447 392.934 120.522 381.528 138.801C358.72 175.352 321.954 220.626 276.632 265.947C231.311 311.268 186.039 348.034 149.487 370.842C131.208 382.248 115.133 390.148 102.34 393.89C95.9426 395.761 90.3908 396.584 85.8075 396.302C81.2284 396.019 77.6472 394.635 75.1332 392.121C72.6193 389.607 71.2352 386.026 70.9527 381.447C70.6699 376.863 71.4938 371.312 73.3647 364.915C77.1066 352.121 85.0074 336.047 96.4134 317.768C119.221 281.217 155.986 235.943 201.308 190.622Z" stroke="#212730"/>
<path opacity="0.724138" d="M204.734 185.629C253.833 144.43 302.139 111.75 340.539 92.215C359.743 82.4457 376.444 75.9764 389.515 73.3638C396.051 72.0575 401.653 71.7207 406.194 72.4019C410.731 73.0824 414.178 74.7733 416.463 77.4968C418.749 80.2203 419.815 83.9085 419.698 88.4948C419.58 93.0854 418.275 98.5442 415.854 104.754C411.011 117.172 401.741 132.497 388.785 149.713C362.879 184.137 322.306 226.034 273.207 267.232C224.109 308.431 175.804 341.111 137.404 360.647C118.2 370.416 101.498 376.885 88.4268 379.498C81.8912 380.804 76.2887 381.141 71.7474 380.46C67.2104 379.779 63.7634 378.088 61.4781 375.365C59.1929 372.641 58.1262 368.953 58.2439 364.367C58.3617 359.776 59.6662 354.317 62.0876 348.108C66.9302 335.689 76.2019 320.365 89.1576 303.149C115.064 268.725 155.635 226.828 204.734 185.629Z" stroke="#212730"/>
<path opacity="0.758621" d="M208.419 180.946C260.922 144.184 311.892 115.838 351.849 99.7238C371.831 91.6654 389.032 86.6763 402.281 85.2129C408.906 84.4811 414.516 84.6339 418.981 85.7082C423.441 86.7816 426.727 88.7665 428.767 91.6788C430.806 94.5911 431.547 98.3583 431.03 102.917C430.513 107.48 428.737 112.804 425.784 118.779C419.877 130.728 409.307 145.187 394.9 161.207C366.092 193.243 322.022 231.444 269.519 268.207C217.017 304.969 166.047 333.316 126.091 349.43C106.109 357.488 88.9064 362.477 75.6573 363.94C69.0327 364.672 63.4222 364.519 58.9576 363.445C54.4972 362.371 51.2106 360.387 49.1714 357.474C47.1322 354.562 46.391 350.795 46.908 346.236C47.4254 341.673 49.2008 336.349 52.1541 330.374C58.0607 318.425 68.6327 303.967 83.0396 287.946C111.848 255.91 155.916 217.709 208.419 180.946Z" stroke="#212730"/>
<path opacity="0.793103" d="M212.337 176.596C267.844 144.549 321.091 120.753 362.3 108.183C382.909 101.897 400.479 98.4258 413.805 98.1226C420.469 97.9711 426.044 98.6122 430.398 100.072C434.748 101.53 437.849 103.793 439.627 106.872C441.405 109.951 441.815 113.769 440.902 118.265C439.989 122.765 437.756 127.915 434.294 133.609C427.368 144.999 415.577 158.481 399.829 173.185C368.338 202.588 321.107 236.802 265.6 268.849C210.093 300.896 156.847 324.692 115.638 337.262C95.0299 343.549 77.4582 347.019 64.1321 347.322C57.4689 347.474 51.893 346.833 47.539 345.373C43.1891 343.915 40.0881 341.652 38.3105 338.573C36.5329 335.494 36.1228 331.676 37.0351 327.18C37.9483 322.68 40.1809 317.53 43.6438 311.836C50.5694 300.446 62.3612 286.965 78.1096 272.261C109.6 242.858 156.83 208.643 212.337 176.596Z" stroke="#212730"/>
<path opacity="0.827586" d="M216.46 172.596C274.549 145.508 329.667 126.444 371.815 117.514C392.892 113.047 410.699 111.121 424.001 111.981C430.652 112.41 436.15 113.535 440.361 115.368C444.567 117.2 447.459 119.725 448.961 122.947C450.464 126.17 450.54 130.008 449.239 134.408C447.937 138.811 445.264 143.747 441.318 149.118C433.426 159.86 420.505 172.263 403.536 185.539C369.602 212.085 319.568 242.053 261.479 269.141C203.391 296.228 148.274 315.292 106.126 324.223C85.0479 328.69 67.2406 330.615 53.9387 329.756C47.2877 329.326 41.7889 328.201 37.5787 326.368C33.3724 324.536 30.4805 322.011 28.978 318.789C27.4755 315.567 27.3997 311.728 28.7004 307.329C30.0023 302.925 32.6752 297.99 36.6213 292.618C44.5132 281.876 57.4351 269.474 74.4051 256.198C108.339 229.652 158.371 199.683 216.46 172.596Z" stroke="#212730"/>
<path opacity="0.862069" d="M220.753 168.964C280.981 147.043 337.551 132.855 380.317 127.632C401.704 125.02 419.61 124.653 432.787 126.668C439.375 127.676 444.755 129.276 448.789 131.469C452.82 133.66 455.48 136.428 456.696 139.769C457.912 143.11 457.653 146.94 455.974 151.21C454.293 155.483 451.2 160.167 446.801 165.174C438.003 175.187 424.051 186.417 405.988 198.163C369.87 221.651 317.415 247.144 257.186 269.066C196.958 290.987 140.389 305.175 97.6232 310.399C76.2362 313.011 58.3288 313.377 45.1525 311.362C38.5642 310.354 33.1844 308.754 29.15 306.561C25.1194 304.37 22.4585 301.602 21.2425 298.261C20.0266 294.92 20.2857 291.09 21.9649 286.82C23.6456 282.547 26.7385 277.863 31.1377 272.856C39.9358 262.843 53.8895 251.614 71.952 239.868C108.07 216.38 160.524 190.886 220.753 168.964Z" stroke="#212730"/>
<path opacity="0.896552" d="M225.184 165.713C287.094 149.124 344.686 139.921 387.744 138.444C409.277 137.706 427.147 138.901 440.098 142.057C446.573 143.635 451.793 145.698 455.621 148.234C459.445 150.769 461.855 153.758 462.775 157.192C463.695 160.626 463.103 164.42 461.058 168.526C459.011 172.637 455.522 177.033 450.703 181.638C441.066 190.846 426.187 200.817 407.17 210.944C369.142 231.195 314.665 252.019 252.755 268.608C190.845 285.197 133.255 294.401 90.1965 295.877C68.6633 296.615 50.7921 295.42 37.8415 292.264C31.3662 290.685 26.1463 288.623 22.3183 286.086C18.494 283.552 16.0846 280.563 15.1644 277.129C14.2443 273.695 14.8362 269.901 16.8811 265.794C18.9279 261.684 22.4172 257.288 27.236 252.683C36.8734 243.475 51.7527 233.504 70.7702 223.377C108.798 203.126 163.274 182.301 225.184 165.713Z" stroke="#212730"/>
<path opacity="0.931035" d="M229.72 162.853C292.841 151.724 351.015 147.575 394.038 149.857C415.553 150.998 433.252 153.746 445.878 158.019C452.191 160.156 457.211 162.665 460.803 165.526C464.392 168.384 466.532 171.571 467.149 175.073C467.767 178.574 466.846 182.301 464.451 186.214C462.054 190.131 458.195 194.206 452.993 198.373C442.59 206.707 426.899 215.343 407.072 223.774C367.424 240.633 311.338 256.631 248.218 267.76C185.098 278.89 126.925 283.04 83.9017 280.758C62.3861 279.616 44.6871 276.868 32.0609 272.595C25.7478 270.458 20.7275 267.949 17.1352 265.088C13.5463 262.23 11.4065 259.043 10.7891 255.541C10.1718 252.04 11.0921 248.313 13.4872 244.4C15.8845 240.483 19.7436 236.408 24.9454 232.241C35.3487 223.907 51.0404 215.272 70.8681 206.84C110.516 189.981 166.6 173.983 229.72 162.853Z" stroke="#212730"/>
<path opacity="0.965517" d="M234.328 160.394C298.178 154.807 356.493 155.745 399.153 161.768C420.487 164.78 437.878 169.06 450.084 174.417C456.187 177.096 460.969 180.033 464.299 183.196C467.625 186.356 469.479 189.718 469.789 193.26C470.098 196.801 468.857 200.434 466.13 204.124C463.4 207.817 459.201 211.54 453.655 215.238C442.565 222.633 426.182 229.869 405.695 236.54C364.728 249.879 307.462 260.927 243.612 266.514C179.762 272.1 121.449 271.163 78.7882 265.14C57.4539 262.128 40.0618 257.847 27.8561 252.49C21.7532 249.812 16.9707 246.874 13.6414 243.711C10.3153 240.552 8.46146 237.189 8.1516 233.648C7.8418 230.106 9.08346 226.473 11.8104 222.783C14.54 219.091 18.7396 215.367 24.2848 211.67C35.3748 204.274 51.7594 197.039 72.2465 190.368C113.213 177.029 170.478 165.98 234.328 160.394Z" stroke="#212730"/>
<path d="M238.97 158.337C303.064 158.337 361.075 164.353 403.048 174.071C424.038 178.931 440.99 184.711 452.683 191.111C458.529 194.312 463.037 197.655 466.078 201.096C469.116 204.533 470.67 208.044 470.67 211.599C470.67 215.155 469.116 218.666 466.078 222.103C463.037 225.544 458.529 228.887 452.683 232.088C440.99 238.488 424.038 244.269 403.048 249.129C361.075 258.847 303.064 264.862 238.97 264.862C174.876 264.862 116.866 258.847 74.8926 249.129C53.902 244.269 36.9492 238.488 25.2568 232.088C19.4106 228.887 14.9023 225.544 11.8613 222.103C8.82326 218.666 7.26953 215.155 7.26953 211.599C7.2696 208.044 8.82317 204.533 11.8613 201.096C14.9024 197.655 19.4105 194.312 25.2568 191.111C36.9492 184.711 53.902 178.931 74.8926 174.071C116.866 164.353 174.876 158.337 238.97 158.337Z" stroke="#212730"/>
</svg>
