<svg width="50" height="48" viewBox="0 0 50 48" fill="none" xmlns="http://www.w3.org/2000/svg">
<path d="M47.3002 48H2.6997C1.2093 48 0 46.839 0 45.4146V2.58543C0 1.15466 1.2093 0 2.6997 0H47.3068C48.7972 0 50 1.16094 50 2.58543V45.4083C50 46.839 48.7907 48 47.3002 48Z" fill="#F4F2ED"/>
<path d="M14.2281 11.1002C18.6998 11.7807 22.5253 15.035 22.5253 20.4051C22.5253 26.0599 18.1729 30.3535 12.4846 30.3535C6.75247 30.3535 2.40002 26.0599 2.40002 20.4113C2.40002 18.1655 3.13379 16.2043 4.14978 14.5154L11.4561 2.63672H19.7533L14.2281 11.1002ZM12.4783 17.318C10.7286 17.318 9.38648 18.6852 9.38648 20.4051C9.38648 22.125 10.7286 23.5357 12.4783 23.5357C14.2281 23.5357 15.5263 22.1375 15.5263 20.4051C15.5263 18.6791 14.2281 17.318 12.4783 17.318Z" fill="#0B0B0B"/>
<path d="M42.5252 24.9772V29.9081H35.614V24.9772H24.2626V19.1987L35.614 2.63672H42.5252V18.4006H45.6171V24.9772H42.5252ZM35.614 18.4006V12.1025L31.5062 18.4006H35.614Z" fill="#0B0B0B"/>
<path d="M3.35999 33.397H7.52431C9.61897 33.397 11.0677 34.6096 11.0677 36.3543C11.0677 37.5298 10.6099 38.3155 9.87612 38.7485C10.7792 39.2311 11.3687 40.0787 11.3687 41.316C11.3687 43.0978 9.82596 44.3909 7.59952 44.3909H3.35999V33.397ZM7.50548 36.0573H6.1508V37.4493H7.51175C7.93822 37.4493 8.20158 37.2081 8.20158 36.7564C8.20158 36.3048 7.93822 36.0573 7.50548 36.0573ZM7.59324 40.0973H6.1508V41.7491H7.59324C8.13258 41.7491 8.49633 41.4707 8.49633 40.9201C8.49012 40.3695 8.13258 40.0973 7.59324 40.0973Z" fill="#0B0B0B"/>
<path d="M14.492 39.7075L10.9674 33.397H14.0843L15.8906 36.9915L17.7093 33.397H20.8262L17.2829 39.7385V44.3971H14.492V39.7075Z" fill="#0B0B0B"/>
<path d="M24.1815 36.0574H21.6039V33.4033H29.5436V36.0574H26.9661V44.4034H24.1815V36.0574Z" fill="#0B0B0B"/>
<path d="M30.3527 44.3971V33.397H36.875V36.0511H33.1372V37.5236H36.5426V40.1777H33.1372V41.7491H36.875V44.4033L30.3527 44.3971Z" fill="#0B0B0B"/>
<path d="M44.1249 36.54C43.5667 36.1812 42.5319 35.7976 41.7292 35.7976C40.9264 35.7976 40.6442 36.1193 40.6442 36.4905C40.6442 36.7504 40.9076 37.0226 41.3654 37.2824L42.6323 37.994C44.106 38.8353 44.7144 39.8562 44.7144 41.1306C44.7144 42.9433 43.5291 44.5705 40.8261 44.5705C39.7599 44.5705 38.7125 44.3477 37.9725 44.0508V41.0564C38.5809 41.5266 39.7286 41.9906 40.7131 41.9906C41.3717 41.9906 41.7417 41.7493 41.7417 41.2791C41.7417 41.0193 41.5285 40.7779 41.0017 40.4872L39.6721 39.751C38.1167 38.8786 37.6589 37.8888 37.6589 36.5771C37.6589 34.9748 38.6623 33.2178 41.7417 33.2178C42.5131 33.2178 43.3974 33.3786 44.1186 33.6694L44.1249 36.54Z" fill="#0B0B0B"/>
</svg>
