<svg width="36" height="36" viewBox="0 0 36 36" fill="none" xmlns="http://www.w3.org/2000/svg">
<rect x="0.5" y="0.5" width="35" height="35" rx="17.5" stroke="url(#paint0_linear_123_969)" stroke-opacity="0.2"/>
<path d="M11.4172 22.8438C11.4641 22.6727 11.3614 22.4348 11.2633 22.2633C11.2329 22.2121 11.1998 22.1625 11.1641 22.1148C10.3232 20.8396 9.87499 19.3455 9.87504 17.818C9.86098 13.4332 13.4969 9.875 17.993 9.875C21.9141 9.875 25.1875 12.5914 25.952 16.1973C26.0667 16.7319 26.1247 17.2771 26.125 17.8238C26.125 22.2148 22.6293 25.8289 18.1332 25.8289C17.418 25.8289 16.4536 25.6492 15.9274 25.502C15.4012 25.3547 14.8758 25.1594 14.7403 25.107C14.6015 25.0537 14.4542 25.0263 14.3055 25.0262C14.1434 25.0256 13.9829 25.0579 13.8336 25.1211L11.1836 26.0773C11.1257 26.1024 11.0643 26.1184 11.0016 26.125C10.952 26.1248 10.9029 26.1149 10.8571 26.0956C10.8114 26.0764 10.7699 26.0482 10.7351 26.0128C10.7003 25.9775 10.6729 25.9355 10.6544 25.8895C10.6359 25.8434 10.6267 25.7942 10.6274 25.7445C10.6306 25.701 10.6385 25.6579 10.6508 25.616L11.4172 22.8438Z" stroke="#F4F2ED" stroke-width="1.25" stroke-miterlimit="10" stroke-linecap="round"/>
<path d="M14.25 19.25C14.9404 19.25 15.5 18.6904 15.5 18C15.5 17.3096 14.9404 16.75 14.25 16.75C13.5596 16.75 13 17.3096 13 18C13 18.6904 13.5596 19.25 14.25 19.25Z" fill="#F4F2ED"/>
<path d="M18 19.25C18.6904 19.25 19.25 18.6904 19.25 18C19.25 17.3096 18.6904 16.75 18 16.75C17.3096 16.75 16.75 17.3096 16.75 18C16.75 18.6904 17.3096 19.25 18 19.25Z" fill="#F4F2ED"/>
<path d="M21.75 19.25C22.4404 19.25 23 18.6904 23 18C23 17.3096 22.4404 16.75 21.75 16.75C21.0596 16.75 20.5 17.3096 20.5 18C20.5 18.6904 21.0596 19.25 21.75 19.25Z" fill="#F4F2ED"/>
<defs>
<linearGradient id="paint0_linear_123_969" x1="28" y1="4.5" x2="8" y2="32" gradientUnits="userSpaceOnUse">
<stop stop-color="#D946FF"/>
<stop offset="1" stop-color="#18FFFF"/>
</linearGradient>
</defs>
</svg>
