<svg width="36" height="36" viewBox="0 0 36 36" fill="none" xmlns="http://www.w3.org/2000/svg">
<rect x="0.5" y="0.5" width="35" height="35" rx="17.5" stroke="url(#paint0_linear_123_964)" stroke-opacity="0.2"/>
<path d="M25.6174 22.6089C24.9971 21.9839 23.4948 21.0718 22.7658 20.7042C21.8166 20.2261 21.7385 20.187 20.9924 20.7413C20.4948 21.1113 20.1639 21.4417 19.5815 21.3175C18.9991 21.1933 17.7334 20.4929 16.6252 19.3882C15.517 18.2835 14.776 16.9812 14.6514 16.4007C14.5268 15.8202 14.8627 15.4933 15.2291 14.9945C15.7455 14.2913 15.7065 14.1742 15.2651 13.2249C14.9209 12.4867 13.9823 10.9984 13.3549 10.3812C12.6838 9.71829 12.6838 9.83548 12.2514 10.0152C11.8994 10.1633 11.5616 10.3433 11.2424 10.5531C10.6174 10.9683 10.2705 11.3132 10.028 11.8316C9.78538 12.3499 9.6764 13.5652 10.9291 15.8409C12.1819 18.1167 13.0608 19.2804 14.8799 21.0945C16.6991 22.9085 18.0979 23.8839 20.1428 25.0308C22.6725 26.4476 23.6428 26.1714 24.1627 25.9292C24.6826 25.687 25.0291 25.3433 25.4451 24.7183C25.6554 24.3996 25.8359 24.0623 25.9842 23.7105C26.1643 23.2796 26.2815 23.2796 25.6174 22.6089Z" stroke="#F4F2ED" stroke-width="1.25" stroke-miterlimit="10"/>
<defs>
<linearGradient id="paint0_linear_123_964" x1="28" y1="4.5" x2="8" y2="32" gradientUnits="userSpaceOnUse">
<stop stop-color="#D946FF"/>
<stop offset="1" stop-color="#18FFFF"/>
</linearGradient>
</defs>
</svg>
