<svg width="340" height="340" viewBox="0 0 340 340" fill="none" xmlns="http://www.w3.org/2000/svg">
<path opacity="0.0344828" d="M24.232 170.27C1.46224 161.104 4.95875 127.836 29.1368 123.604L75.8519 115.428C89.3534 113.065 98.5441 100.415 96.6195 86.8436L89.96 39.8883C86.5133 15.5857 117.072 1.97979 132.826 20.8026L163.266 57.1709C172.063 67.6817 187.614 69.3163 198.404 60.8641L235.739 31.6191C255.063 16.4831 282.125 36.1452 273.701 59.2002L257.424 103.745C252.72 116.619 259.08 130.904 271.795 136.022L315.789 153.733C338.559 162.899 335.063 196.166 310.884 200.399L264.169 208.575C250.668 210.938 241.477 223.588 243.402 237.159L250.061 284.115C253.508 308.417 222.949 322.023 207.195 303.2L176.756 266.832C167.959 256.321 152.408 254.687 141.618 263.139L104.282 292.384C84.9588 307.52 57.8964 287.858 66.3205 264.803L82.5971 220.258C87.3012 207.384 80.9414 193.099 68.2263 187.98L24.232 170.27Z" stroke="#631E75"/>
<path opacity="0.0689655" d="M26.7575 163.067C4.49879 152.721 9.73142 119.683 34.0978 116.722L79.2391 111.237C92.8458 109.584 102.686 97.4321 101.474 83.779L97.4539 38.484C95.2838 14.0343 126.513 2.0463 141.261 21.6679L168.581 58.0193C176.816 68.9761 192.26 71.4221 203.478 63.5464L240.695 37.4168C260.784 23.3126 286.78 44.3643 277.161 66.9468L259.34 108.783C253.969 121.393 259.573 135.991 272.002 141.768L313.239 160.933C335.499 171.279 330.266 204.318 305.899 207.279L260.758 212.764C247.151 214.417 237.311 226.569 238.522 240.222L242.543 285.517C244.713 309.967 213.484 321.955 198.736 302.333L171.416 265.982C163.18 255.025 147.737 252.579 136.519 260.455L99.3019 286.584C79.2128 300.688 53.2165 279.637 62.8357 257.054L80.6563 215.219C86.0278 202.608 80.4243 188.01 67.9945 182.233L26.7575 163.067Z" stroke="#631E75"/>
<path opacity="0.103448" d="M29.6378 156.152C7.95091 144.655 14.9057 111.936 39.3936 110.254L82.8128 107.273C96.4872 106.334 106.95 94.714 106.455 81.0163L104.881 37.5238C103.993 12.994 135.807 2.65678 149.507 23.0234L173.799 59.1345C181.449 70.5075 196.744 73.7585 208.359 66.4805L245.238 43.3716C266.038 30.3385 290.896 52.7214 280.108 74.7694L260.981 113.862C254.957 126.174 259.789 141.045 271.899 147.465L310.351 167.848C332.038 179.345 325.083 212.064 300.595 213.746L257.177 216.727C243.502 217.666 233.04 229.286 233.535 242.984L235.108 286.476C235.995 311.006 204.183 321.343 190.482 300.977L166.191 264.865C158.541 253.492 143.246 250.241 131.631 257.519L94.752 280.628C73.9522 293.661 49.0932 271.279 59.8811 249.231L79.0088 210.138C85.0329 197.826 80.201 182.955 68.0906 176.536L29.6378 156.152Z" stroke="#631E75"/>
<path opacity="0.137931" d="M32.8571 149.541C11.8017 136.925 20.4592 104.615 45.0017 104.217L86.5647 103.544C100.27 103.322 111.326 92.2656 111.548 78.5606L112.222 36.9975C112.62 12.4548 144.931 3.79677 157.547 24.8525L178.911 60.5111C185.955 72.2688 201.059 76.3157 213.039 69.6557L249.371 49.4568C270.824 37.5299 294.477 61.1835 282.55 82.6368L262.352 118.968C255.691 130.948 259.738 146.052 271.496 153.097L307.154 174.461C328.21 187.076 319.552 219.387 295.01 219.785L253.447 220.459C239.742 220.681 228.685 231.737 228.463 245.442L227.79 287.006C227.392 311.548 195.081 320.205 182.466 299.15L161.101 263.492C154.056 251.734 138.952 247.687 126.972 254.347L90.6416 274.545C69.1883 286.472 45.5348 262.82 57.4617 241.366L77.6596 205.035C84.3199 193.055 80.273 177.951 68.5151 170.906L32.8571 149.541Z" stroke="#631E75"/>
<path opacity="0.172414" d="M36.3645 143.246C15.9981 129.546 26.3349 97.7325 50.8645 98.6197L90.4553 100.052C104.153 100.548 115.773 90.0846 116.712 76.41L119.427 36.8867C121.108 12.3986 153.827 5.44346 165.324 27.1302L183.879 62.133C190.299 74.2435 205.17 79.0754 217.482 73.0512L253.067 55.6397C275.115 44.8519 297.498 69.7111 284.465 90.5108L263.428 124.081C256.151 135.696 259.402 150.991 270.774 158.641L303.646 180.753C324.012 194.454 313.676 226.267 289.146 225.38L249.555 223.947C235.858 223.452 224.238 233.914 223.298 247.588L220.585 287.113C218.903 311.601 186.183 318.555 174.687 296.868L156.132 261.866C149.713 249.755 134.842 244.923 122.53 250.947L86.9437 268.359C64.8957 279.146 42.5135 254.288 55.5467 233.489L76.5819 199.918C83.86 188.303 80.6091 173.009 69.236 165.358L36.3645 143.246Z" stroke="#631E75"/>
<path opacity="0.206897" d="M40.1456 137.284C20.5242 122.537 32.5117 91.3079 56.9612 93.4778L94.4784 96.808C108.131 98.0197 120.283 88.1793 121.937 74.5726L126.479 37.183C129.44 12.8165 162.479 7.58347 172.825 29.8423L188.7 63.9981C194.477 76.4279 209.075 82.0313 221.685 76.66L256.338 61.8998C278.92 52.2811 299.97 78.277 285.866 98.3659L264.225 129.192C256.349 140.41 258.795 155.854 269.752 164.089L299.861 186.718C319.482 201.466 307.494 232.694 283.045 230.524L245.528 227.195C231.875 225.983 219.723 235.823 218.07 249.43L213.526 286.819C210.565 311.185 177.527 316.419 167.181 294.16L151.306 260.004C145.529 247.574 130.931 241.97 118.321 247.342L83.6687 262.102C61.0863 271.721 40.035 245.725 54.1391 225.636L75.7817 194.81C83.6574 183.592 81.2112 168.149 70.2543 159.914L40.1456 137.284Z" stroke="#631E75"/>
<path opacity="0.241379" d="M44.1834 131.661C25.3606 115.907 38.9665 85.3476 63.2691 88.7941L98.6278 93.8096C112.199 95.7342 124.849 86.5432 127.212 73.0418L133.369 37.8641C137.601 13.6858 170.869 10.189 180.035 32.959L193.371 66.0883C198.49 78.8032 212.775 85.1631 225.649 80.4592L259.192 68.2021C282.247 59.7781 301.909 86.8407 286.773 106.164L264.751 134.278C256.299 145.068 257.933 160.619 268.444 169.417L295.831 192.337C314.653 208.091 301.048 238.651 276.745 235.204L241.386 230.189C227.815 228.264 215.165 237.455 212.802 250.957L206.645 286.134C202.413 310.313 169.145 313.809 159.979 291.039L146.642 257.911C141.524 245.196 127.239 238.836 114.365 243.54L80.8216 255.796C57.7666 264.22 38.1047 237.158 53.2409 217.834L75.2634 189.72C83.7155 178.93 82.0812 163.379 71.5703 154.582L44.1834 131.661Z" stroke="#631E75"/>
<path opacity="0.275862" d="M48.434 126.392C30.4615 109.674 45.6477 79.8697 69.7366 84.5833L102.869 91.0672C116.32 93.6992 129.434 85.1828 132.501 71.8238L140.054 38.9191C145.545 14.9954 178.95 13.2445 186.913 36.4631L197.864 68.398C202.31 81.3635 216.242 88.4623 229.345 84.4384L261.618 74.5273C285.082 67.3217 303.3 95.3756 287.173 113.88L264.993 139.332C255.988 149.665 256.806 165.28 266.842 174.616L291.562 197.609C309.534 214.326 294.348 244.131 270.259 239.417L237.127 232.934C223.676 230.302 210.562 238.818 207.495 252.177L199.942 285.081C194.45 309.005 161.046 310.756 153.084 287.538L142.132 255.603C137.686 242.637 123.754 235.539 110.651 239.563L78.3784 249.474C54.9141 256.68 36.6955 228.625 52.8223 210.12L75.0034 184.669C84.0088 174.336 83.1903 158.721 73.1544 149.385L48.434 126.392Z" stroke="#631E75"/>
<path opacity="0.310345" d="M52.8958 121.481C35.8229 103.845 52.5481 74.8764 76.3572 80.8443L107.21 88.5786C120.506 91.9113 134.047 84.0929 137.809 70.9124L146.538 40.3258C153.275 16.7223 186.726 16.7221 193.462 40.3256L202.19 70.9126C205.952 84.0929 219.493 91.911 232.789 88.5787L263.643 80.8446C287.452 74.8766 304.178 103.846 287.104 121.482L264.979 144.334C255.446 154.182 255.446 169.819 264.979 179.667L287.104 202.519C304.177 220.154 287.452 249.124 263.643 243.155L232.789 235.422C219.493 232.089 205.952 239.908 202.19 253.088L193.462 283.675C186.726 307.279 153.275 307.279 146.538 283.676L137.809 253.088C134.048 239.908 120.506 232.089 107.211 235.422L76.3574 243.156C52.5481 249.125 35.8227 220.155 52.8959 202.52L75.02 179.666C84.5539 169.818 84.554 154.182 75.0201 144.334L52.8958 121.481Z" stroke="#631E75"/>
<path opacity="0.344828" d="M57.5226 116.935C41.396 98.4306 59.6145 70.3768 83.0786 77.5825L111.619 86.3475C124.722 90.3714 138.654 83.2724 143.1 70.3069L152.785 42.0657C160.748 18.8471 194.152 20.5972 199.644 44.5207L206.324 73.6201C209.39 86.9795 222.504 95.4956 235.956 92.8633L265.256 87.1296C289.345 82.4158 304.531 112.221 286.558 128.939L264.698 149.273C254.662 158.609 253.843 174.224 262.849 184.557L282.464 207.065C298.59 225.569 280.372 253.623 256.908 246.417L228.368 237.653C215.265 233.629 201.333 240.728 196.887 253.693L187.202 281.935C179.239 305.153 145.835 303.402 140.343 279.478L133.664 250.379C130.597 237.02 117.483 228.504 104.032 231.136L74.731 236.869C50.642 241.583 35.4561 211.779 53.4287 195.062L75.2892 174.727C85.3254 165.392 86.1439 149.777 77.1384 139.443L57.5226 116.935Z" stroke="#631E75"/>
<path opacity="0.37931" d="M62.3119 112.762C47.176 93.4385 66.8376 66.3765 89.8924 74.8004L116.102 84.3777C128.976 89.0818 143.26 82.7216 148.379 70.0067L158.799 44.1213C167.965 21.3512 201.233 24.8477 205.465 49.0258L210.276 76.512C212.639 90.0134 225.289 99.204 238.86 97.2797L266.489 93.3617C290.791 89.9153 304.396 120.474 285.573 136.228L264.175 154.137C253.664 162.935 252.03 178.486 260.482 189.276L277.689 211.243C292.825 230.566 273.164 257.628 250.109 249.204L223.899 239.628C211.025 234.924 196.741 241.283 191.622 253.998L181.201 279.884C172.034 302.653 138.768 299.157 134.536 274.979L129.724 247.492C127.361 233.991 114.711 224.8 101.14 226.725L73.5128 230.643C49.2103 234.09 35.6045 203.531 54.427 187.777L75.8261 169.867C86.3368 161.07 87.9709 145.52 79.5189 134.729L62.3119 112.762Z" stroke="#631E75"/>
<path opacity="0.413793" d="M67.2222 108.957C53.1181 88.8674 74.1698 62.8707 96.7523 72.4899L120.628 82.6611C133.239 88.0324 147.836 82.4286 153.614 69.9991L164.551 46.4647C174.897 24.2056 207.936 29.4383 210.897 53.8049L214.028 79.567C215.681 93.1737 227.833 103.014 241.486 101.802L267.336 99.5081C291.785 97.3381 303.773 128.567 284.151 143.315L263.405 158.907C252.448 167.142 250.002 182.586 257.878 193.804L272.791 215.043C286.895 235.132 265.843 261.129 243.261 251.51L219.385 241.339C206.775 235.967 192.177 241.571 186.4 254.001L175.462 277.535C165.116 299.794 132.077 294.562 129.116 270.195L125.986 244.433C124.332 230.826 112.181 220.986 98.5276 222.198L72.6776 224.492C48.2278 226.662 36.2402 195.432 55.862 180.685L76.608 165.093C87.5647 156.858 90.011 141.414 82.1352 130.196L67.2222 108.957Z" stroke="#631E75"/>
<path opacity="0.448276" d="M72.2151 105.528C59.1819 84.7283 81.5646 59.8699 103.613 70.6575L125.17 81.2055C137.482 87.2296 152.353 82.3975 158.773 70.2871L170.013 49.0829C181.51 27.3957 214.23 34.3504 215.912 58.8386L217.556 82.7821C218.495 96.4565 230.115 106.919 243.812 106.424L267.796 105.556C292.326 104.668 302.662 136.482 282.296 150.182L262.383 163.578C251.01 171.228 247.759 186.523 255.037 198.138L267.78 218.475C280.814 239.274 258.431 264.133 236.383 253.345L214.825 242.797C202.513 236.773 187.642 241.605 181.223 253.715L169.982 274.92C158.485 296.607 125.765 289.652 124.084 265.164L122.44 241.221C121.501 227.547 109.881 217.084 96.1836 217.579L72.1994 218.447C47.6696 219.335 37.3328 187.52 57.6995 173.82L77.6126 160.425C88.9857 152.774 92.2368 137.479 84.9587 125.865L72.2151 105.528Z" stroke="#631E75"/>
<path opacity="0.482759" d="M77.2864 102.47C65.3597 81.0165 89.0126 57.3635 110.466 69.2903L129.735 80.0039C141.715 86.6641 156.819 82.6169 163.863 70.8592L175.195 51.9468C187.811 30.891 220.122 39.5486 220.52 64.0913L220.877 86.1352C221.099 99.8402 232.155 110.897 245.86 111.119L267.905 111.476C292.447 111.874 301.104 144.185 280.049 156.8L261.136 168.132C249.379 175.177 245.331 190.28 251.991 202.26L262.705 221.53C274.632 242.983 250.979 266.636 229.526 254.709L210.256 243.996C198.276 237.336 183.172 241.383 176.127 253.141L164.796 272.053C152.18 293.109 119.87 284.452 119.472 259.909L119.115 237.864C118.893 224.159 107.836 213.103 94.1312 212.881L72.0866 212.524C47.544 212.127 38.8864 179.815 59.9422 167.2L78.8546 155.868C90.6124 148.823 94.6595 133.72 87.9993 121.74L77.2864 102.47Z" stroke="#631E75"/>
<path opacity="0.517241" d="M82.4123 99.7838C71.6246 77.7358 96.4831 55.3532 117.283 68.3863L134.312 79.0563C145.927 86.3342 161.221 83.0836 168.871 71.7109L180.089 55.0366C193.789 34.6703 225.601 45.0068 224.714 69.5364L223.988 89.6191C223.492 103.317 233.955 114.937 247.63 115.876L267.678 117.252C292.166 118.934 299.121 151.653 277.434 163.15L259.679 172.562C247.568 178.982 242.737 193.853 248.761 206.165L257.592 224.215C268.38 246.263 243.521 268.646 222.721 255.613L205.693 244.943C194.078 237.665 178.784 240.916 171.133 252.289L159.917 268.962C146.217 289.329 114.403 278.992 115.291 254.462L116.018 234.38C116.513 220.682 106.05 209.062 92.3758 208.123L72.3272 206.746C47.839 205.065 40.8843 172.346 62.5715 160.849L80.3262 151.437C92.4366 145.018 97.2686 130.147 91.2445 117.835L82.4123 99.7838Z" stroke="#631E75"/>
<path opacity="0.551724" d="M87.5585 97.4653C77.9396 74.8829 103.935 53.8319 124.024 67.9358L138.874 78.3612C150.092 86.2368 165.535 83.7912 173.771 72.8345L184.671 58.3299C199.419 38.7088 230.647 50.6966 228.477 75.1461L226.873 93.2184C225.661 106.871 235.502 119.023 249.108 120.677L267.12 122.865C291.486 125.826 296.719 158.864 274.46 169.21L258.007 176.857C245.577 182.635 239.974 197.232 245.345 209.842L252.456 226.535C262.074 249.117 236.079 270.168 215.99 256.065L201.14 245.639C189.922 237.763 174.478 240.209 166.243 251.166L155.342 265.67C140.595 285.291 109.367 273.304 111.537 248.854L113.14 230.782C114.351 217.129 104.511 204.977 90.9044 203.324L72.8942 201.135C48.5277 198.174 43.2945 165.136 65.5533 154.79L82.0066 147.143C94.4363 141.366 100.04 126.768 94.6686 114.158L87.5585 97.4653Z" stroke="#631E75"/>
<path opacity="0.586207" d="M92.686 95.5085C84.262 72.4536 111.325 52.7913 130.648 67.9274L143.394 77.9115C154.185 86.3637 169.735 84.7297 178.532 74.2187L188.925 61.8022C204.679 42.9798 235.237 56.5855 231.791 80.888L229.517 96.9187C227.593 110.49 236.784 123.14 250.285 125.503L266.234 128.295C290.412 132.527 293.909 165.794 271.139 174.96L256.119 181.007C243.404 186.126 237.044 200.41 241.749 213.284L247.305 228.492C255.729 251.547 228.666 271.209 209.343 256.073L196.597 246.089C185.806 237.637 170.256 239.271 161.459 249.782L151.066 262.198C135.312 281.021 104.754 267.415 108.2 243.112L110.474 227.082C112.398 213.511 103.208 200.861 89.7061 198.498L73.7576 195.706C49.5794 191.474 46.0826 158.207 68.8522 149.04L83.8725 142.993C96.5875 137.874 102.947 123.59 98.2427 110.716L92.686 95.5085Z" stroke="#631E75"/>
<path opacity="0.62069" d="M97.8141 93.9057C90.6084 70.4416 118.662 52.2232 137.167 68.3497L147.902 77.7045C158.235 86.7099 173.85 85.8919 183.185 75.8558L192.884 65.4296C209.601 47.4574 239.406 62.6438 234.692 86.7327L231.957 100.707C229.325 114.158 237.841 127.272 251.201 130.339L265.078 133.524C289.002 139.015 290.753 172.42 267.535 180.382L254.065 185.002C241.1 189.448 234.002 203.38 238.025 216.482L242.205 230.094C249.411 253.559 221.357 271.777 202.852 255.65L192.118 246.295C181.785 237.29 166.17 238.108 156.834 248.144L147.136 258.57C130.419 276.543 100.613 261.356 105.327 237.267L108.062 223.294C110.695 209.842 102.178 196.729 88.8191 193.662L74.9408 190.476C51.0171 184.985 49.2667 151.579 72.4853 143.617L85.9541 138.998C98.9196 134.552 106.019 120.62 101.995 107.517L97.8141 93.9057Z" stroke="#631E75"/>
<path opacity="0.655172" d="M102.866 92.6487C96.8985 68.8396 125.867 52.1143 143.503 69.1873L152.331 77.7337C162.178 87.2674 177.814 87.2677 187.662 77.7341L196.49 69.188C214.125 52.1149 243.095 68.8402 237.127 92.6495L234.139 104.567C230.807 117.862 238.625 131.404 251.805 135.165L263.62 138.538C287.223 145.274 287.224 178.724 263.621 185.461L251.805 188.832C238.624 192.594 230.807 206.135 234.139 219.43L237.127 231.349C243.095 255.158 214.126 271.883 196.49 254.81L187.662 246.264C177.814 236.73 162.178 236.73 152.33 246.264L143.503 254.811C125.868 271.884 96.8983 255.158 102.866 231.349L105.854 219.431C109.186 206.135 101.368 192.594 88.1877 188.832L76.3723 185.461C52.7689 178.725 52.7691 145.274 76.3726 138.538L88.1875 135.166C101.368 131.404 109.186 117.863 105.854 104.567L102.866 92.6487Z" stroke="#631E75"/>
<path opacity="0.689655" d="M107.864 91.7249C103.15 67.6361 132.955 52.45 149.672 70.4224L156.712 77.9897C166.047 88.0256 181.662 88.8443 191.995 79.8392L199.786 73.0494C218.291 56.9226 246.345 75.1404 239.139 98.6046L236.105 108.485C232.082 121.587 239.18 135.519 252.146 139.966L261.921 143.318C285.14 151.28 283.389 184.685 259.465 190.177L249.393 192.489C236.034 195.556 227.518 208.669 230.15 222.12L232.134 232.263C236.848 256.352 207.043 271.538 190.326 253.565L183.287 245.998C173.952 235.962 158.337 235.144 148.003 244.149L140.212 250.939C121.708 267.066 93.6532 248.847 100.859 225.383L103.893 215.504C107.917 202.401 100.818 188.469 87.8528 184.023L78.0766 180.67C54.8585 172.708 56.6095 139.303 80.5331 133.812L90.6056 131.5C103.965 128.433 112.481 115.319 109.849 101.868L107.864 91.7249Z" stroke="#631E75"/>
<path opacity="0.724138" d="M112.759 91.1326C109.312 66.8301 139.871 53.2246 155.625 72.0474L161.005 78.4752C169.802 88.9862 185.352 90.6209 196.143 82.1687L202.742 76.9997C222.065 61.8635 249.128 81.5254 240.704 104.58L237.827 112.453C233.123 125.328 239.483 139.612 252.198 144.731L259.974 147.861C282.744 157.028 279.247 190.296 255.069 194.528L246.812 195.973C233.311 198.336 224.12 210.986 226.045 224.557L227.222 232.856C230.668 257.159 200.11 270.765 184.355 251.942L178.975 245.514C170.178 235.003 154.627 233.368 143.836 241.821L137.237 246.99C117.914 262.126 90.8522 242.464 99.2763 219.409L102.153 211.535C106.857 198.661 100.497 184.377 87.782 179.258L80.0064 176.128C57.2363 166.961 60.7324 133.694 84.9106 129.462L93.1674 128.016C106.669 125.653 115.86 113.003 113.935 99.4321L112.759 91.1326Z" stroke="#631E75"/>
<path opacity="0.758621" d="M117.554 90.8546C115.384 66.4049 146.613 54.417 161.361 74.0386L165.224 79.1791C173.459 90.1361 188.903 92.5823 200.121 84.7065L205.384 81.0113C225.473 66.9075 251.469 87.9589 241.85 110.541L239.33 116.457C233.958 129.068 239.562 143.666 251.992 149.443L257.823 152.153C280.082 162.499 274.85 195.537 250.483 198.498L244.099 199.274C230.492 200.928 220.653 213.079 221.865 226.732L222.433 233.138C224.603 257.587 193.373 269.575 178.626 249.954L174.763 244.813C166.527 233.856 151.084 231.41 139.866 239.286L134.603 242.981C114.514 257.085 88.5179 236.033 98.137 213.451L100.657 207.535C106.028 194.924 100.425 180.327 87.995 174.549L82.1638 171.839C59.9047 161.493 65.1372 128.455 89.5035 125.494L95.8878 124.718C109.494 123.064 119.334 110.913 118.122 97.2599L117.554 90.8546Z" stroke="#631E75"/>
<path opacity="0.793103" d="M122.232 90.8759C121.345 66.3462 153.158 56.0095 166.858 76.3759L169.359 80.0918C177.009 91.4647 192.303 94.7158 203.918 87.438L207.713 85.0598C228.513 72.0267 253.371 94.4098 242.584 116.458L240.615 120.481C234.591 132.793 239.423 147.664 251.533 154.084L255.49 156.18C277.177 167.677 270.223 200.396 245.735 202.078L241.266 202.385C227.592 203.324 217.13 214.944 217.625 228.641L217.787 233.117C218.674 257.647 186.861 267.984 173.161 247.617L170.66 243.901C163.01 232.528 147.716 229.277 136.101 236.555L132.306 238.933C111.506 251.966 86.6476 229.583 97.4355 207.535L99.4042 203.513C105.428 191.201 100.596 176.33 88.486 169.911L84.5289 167.813C62.8418 156.317 69.7962 123.597 94.2841 121.915L98.7527 121.608C112.427 120.669 122.889 109.049 122.394 95.3517L122.232 90.8759Z" stroke="#631E75"/>
<path opacity="0.827586" d="M126.73 91.1816C127.127 66.6392 159.438 57.9814 172.054 79.037L173.352 81.2045C180.397 92.962 195.5 97.0092 207.48 90.3493L209.688 89.1215C231.142 77.1948 254.794 100.848 242.867 122.301L241.64 124.509C234.98 136.489 239.027 151.592 250.785 158.637L252.951 159.936C274.007 172.551 265.35 204.861 240.807 205.259L238.281 205.301C224.576 205.523 213.52 216.579 213.298 230.284L213.257 232.81C212.859 257.352 180.549 266.01 167.933 244.954L166.634 242.787C159.589 231.029 144.486 226.983 132.506 233.643L130.298 234.87C108.845 246.797 85.1917 223.144 97.1185 201.691L98.3456 199.483C105.006 187.503 100.959 172.399 89.201 165.355L87.0344 164.057C65.9786 151.441 74.6367 119.13 99.1793 118.732L101.705 118.691C115.41 118.469 126.467 107.413 126.689 93.7079L126.73 91.1816Z" stroke="#631E75"/>
<path opacity="0.862069" d="M131.058 92.2078C132.74 67.7198 165.701 60.7136 177.197 82.4006C183.617 94.5111 198.658 99.3987 210.97 93.3746C233.018 82.5868 255.566 107.628 242.532 128.428C235.254 140.043 238.543 155.512 249.916 163.163C270.282 176.863 259.869 208.911 235.339 208.024C221.642 207.529 209.889 218.111 208.95 231.785C207.268 256.273 174.307 263.279 162.811 241.592C156.391 229.482 141.35 224.595 129.038 230.619C106.99 241.407 84.442 216.365 97.4755 195.565C104.753 183.95 101.465 168.481 90.0924 160.83C69.7257 147.13 80.139 115.082 104.669 115.97C118.366 116.465 130.119 105.882 131.058 92.2078Z" stroke="#631E75"/>
<path opacity="0.896552" d="M135.376 91.5147C138.3 67.4558 170.921 62.2892 181.136 84.267C186.843 96.546 201.264 102.082 213.722 96.7757C236.019 87.278 256.804 112.946 242.878 132.781C235.098 143.863 237.514 159.119 248.338 167.255C267.712 181.816 255.876 212.65 231.735 210.507C218.247 209.31 206.243 219.032 204.61 232.473C201.686 256.532 169.065 261.698 158.85 239.721C153.143 227.442 138.722 221.906 126.264 227.212C103.967 236.709 83.1825 211.042 97.108 191.207C104.888 180.125 102.472 164.869 91.6479 156.733C72.2742 142.172 84.1104 111.338 108.251 113.481C121.739 114.678 133.743 104.956 135.376 91.5147Z" stroke="#631E75"/>
<path opacity="0.931035" d="M139.681 91.0855C143.784 67.6451 176.036 64.2553 184.923 86.3304C189.891 98.6727 203.757 104.845 216.253 100.279C238.605 92.1124 257.667 118.349 242.993 137.082C234.788 147.557 236.375 162.651 246.578 171.19C264.826 186.464 251.635 216.09 228.074 212.749C214.901 210.881 202.622 219.802 200.328 232.908C196.225 256.348 163.974 259.738 155.087 237.663C150.119 225.32 136.252 219.147 123.755 223.713C101.404 231.88 82.3427 205.643 97.0169 186.91C105.221 176.436 103.635 161.341 93.432 152.802C75.1838 137.529 88.3739 107.903 111.934 111.244C125.108 113.112 137.388 104.191 139.681 91.0855Z" stroke="#631E75"/>
<path opacity="0.965517" d="M143.925 90.904C149.151 68.1385 180.939 66.4726 188.516 88.5671C192.755 100.93 206.039 107.698 218.533 103.861C240.861 97.0043 258.197 123.701 242.851 141.309C234.265 151.162 235.045 166.05 244.614 174.952C261.717 190.86 247.266 219.221 224.344 214.736C211.518 212.226 199.013 220.347 196.089 233.085C190.864 255.85 159.076 257.516 151.499 235.421C147.26 223.059 133.975 216.29 121.482 220.127C99.1536 226.984 81.8174 200.288 97.1635 182.679C105.75 172.827 104.97 157.938 95.4003 149.037C78.2978 133.129 92.7485 104.766 115.671 109.252C128.497 111.761 141.001 103.642 143.925 90.904Z" stroke="#631E75"/>
<path d="M148.099 90.9702C154.388 68.9317 185.622 68.9317 191.911 90.9702C195.433 103.311 208.112 110.631 220.561 107.51C242.791 101.938 258.407 128.987 242.467 145.453C233.54 154.673 233.54 169.314 242.467 178.535C258.408 195.001 242.791 222.049 220.561 216.477C208.112 213.357 195.433 220.677 191.911 233.018C185.621 255.056 154.388 255.056 148.099 233.018C144.577 220.677 131.898 213.357 119.449 216.477C97.2187 222.049 81.6029 195.001 97.5439 178.535C106.47 169.314 106.471 154.673 97.5439 145.453C81.6029 128.987 97.2188 101.938 119.449 107.51C131.898 110.631 144.577 103.311 148.099 90.9702Z" stroke="#631E75"/>
</svg>
