<svg width="128" height="49" viewBox="0 0 128 49" fill="none" xmlns="http://www.w3.org/2000/svg">
<g clip-path="url(#clip0_125_15)">
<path d="M80.8591 37.1962C80.8036 37.1962 80.7443 37.1866 80.6831 37.1656C80.3904 37.068 80.245 36.7658 80.3387 36.4501C80.4019 36.2397 80.5013 36.0159 80.6467 35.7672C81.4616 34.3708 82.2804 32.9743 83.0991 31.5798L84.1416 29.8046C84.4114 29.3436 84.6811 28.8826 84.9699 28.3852L85.5897 27.3197L84.9738 27.5474C84.8418 27.5952 84.7423 27.6315 84.6428 27.6736C81.0695 29.1734 77.7276 30.2523 74.4278 30.9734C73.4522 31.1858 72.5723 31.3618 71.6579 31.3618C71.4494 31.3618 71.2447 31.3522 71.0496 31.3331C70.6517 31.2948 70.2672 31.1992 69.9343 31.0557C69.2323 30.7515 68.888 30.1413 68.9664 29.336C68.976 29.2269 68.9855 29.1198 68.9932 29.0222L69.0142 28.7716L68.8746 28.7602C66.5924 28.5574 64.1248 28.4579 61.33 28.4579C59.901 28.4579 58.363 28.4828 56.4922 28.5364C54.805 28.5842 53.091 28.6875 51.4363 28.7889L50.5258 28.8443C50.2235 28.8616 49.8869 28.9419 49.5253 29.0835C43.1285 31.576 37.141 33.5521 31.2224 35.1283C29.5812 35.5644 27.827 36.0102 26.0231 36.2148C25.7744 36.2435 24.8505 36.3277 24.2881 36.2741C24.1752 36.2627 23.7525 36.1995 23.6453 36.1575C23.3048 36.0236 23.0198 35.8017 22.9299 35.5243C22.8457 35.2565 22.8285 34.9294 23.0389 34.6558C23.8443 33.6056 25.4511 32.8424 26.4114 32.4636C27.3545 32.0944 28.3225 31.752 29.2579 31.423L29.8471 31.2145C30.1187 31.1188 30.3387 31.027 30.5147 30.784C31.1172 29.9558 31.7255 29.1313 32.3339 28.3087C33.9637 26.1031 35.6432 23.8286 37.1621 21.4949C37.3935 21.1372 37.7742 20.6054 37.9885 20.2476C38.0918 20.0774 38.4131 19.5246 38.2869 19.4155C38.1606 19.3065 37.1736 19.7675 32.3319 23.7273C31.4214 24.4714 30.551 25.2691 29.6653 26.0438C29.0379 26.5909 28.4143 27.138 27.7868 27.6813C27.4942 27.9338 27.1823 28.1653 26.8858 28.3795C26.7194 28.5 26.5453 28.5995 26.3694 28.676C26.2412 28.7315 26.1226 28.7583 26.0174 28.7583C25.8739 28.7583 25.7515 28.7085 25.6386 28.6071C25.4186 28.4063 25.3746 28.1404 25.5124 27.8592C25.719 27.4383 25.9447 27.0768 26.1857 26.7822C27.1498 25.6058 27.9666 24.6436 28.7567 23.7502C30.0192 22.3232 31.3047 20.8885 32.5481 19.4997L32.6514 19.3849C33.2616 18.7039 35.3926 16.5117 35.297 16.3682C35.2013 16.2248 34.4553 16.6628 34.4553 16.6628C34.329 16.724 34.2028 16.7853 34.0804 16.8503C31.6069 18.1874 29.3267 19.7159 27.4234 21.0358C22.8075 24.2323 18.3944 27.71 14.2701 30.9983C13.7326 31.4268 13.2084 31.8859 12.6996 32.3316L12.6651 32.3622C12.4968 32.5095 12.3285 32.6568 12.1601 32.8041C12.0358 32.9112 11.9076 32.9686 11.7871 32.9686C11.6972 32.9686 11.6111 32.938 11.5308 32.8768C11.3376 32.7314 11.2859 32.4732 11.4064 32.2627C11.5193 32.0695 11.6723 31.8859 11.8426 31.7443C12.7302 31.0059 13.5394 30.346 14.3179 29.73C18.3178 26.568 22.4536 23.2969 26.7003 20.3376C28.7089 18.9373 31.1038 17.3247 33.6423 15.9799C34.0344 15.7714 34.4668 15.5667 35.0024 15.3372C35.2205 15.2434 35.45 15.1784 35.6681 15.1497C35.714 15.144 35.7599 15.1401 35.8039 15.1401C36.0411 15.1401 36.242 15.2281 36.3682 15.3888C36.5002 15.5552 36.5385 15.7867 36.4773 16.0373C36.4218 16.2668 36.3032 16.5174 36.1463 16.7413C35.8211 17.2004 35.4672 17.6882 35.0693 18.1377C33.7628 19.6106 32.4486 21.0759 31.1325 22.5412L29.6194 24.2265C29.4932 24.3662 28.1599 25.8602 28.2134 25.887C28.267 25.9137 29.5831 24.8444 29.5831 24.8444C29.6711 24.7736 29.761 24.7009 29.8471 24.6263C31.8078 22.8932 33.4548 21.4624 35.2932 20.1501C35.955 19.6776 36.6609 19.2414 37.3457 18.8206L37.5714 18.681C37.7991 18.5394 38.0688 18.4208 38.3481 18.3385C38.4629 18.3041 38.5738 18.2869 38.679 18.2869C38.9048 18.2869 39.0999 18.3692 39.228 18.5184C39.3753 18.6905 39.4346 18.943 39.3906 19.2338C39.3486 19.5207 39.2433 19.8268 39.0865 20.1233C38.7938 20.6761 38.461 21.3036 38.065 21.8698C36.703 23.8076 35.3161 25.7569 33.9732 27.643L32.4907 29.7281L31.8652 30.6138L32.9823 30.3556C33.5141 30.2312 34.0077 30.1164 34.5012 30.0112C35.8919 29.7185 36.967 29.5005 37.9866 29.3073C38.3825 29.2327 38.6599 29.0548 38.9067 28.7162C40.4045 26.6713 41.9291 24.6206 43.402 22.6369L44.764 20.8024L45.3398 20.02L45.0223 20.0544C43.997 20.1635 42.8951 20.2993 41.7971 20.5671C41.7588 20.5767 41.7187 20.5881 41.6804 20.5996C41.6039 20.6207 41.5331 20.6417 41.4643 20.6475C41.447 20.6475 41.4298 20.6494 41.4107 20.6494C41.2079 20.6494 41.0434 20.5422 40.9784 20.372C40.8961 20.152 40.9726 19.9225 41.1658 19.8153C41.3705 19.7025 41.6096 19.6164 41.8564 19.5686L42.1013 19.5207C42.7268 19.3983 43.3714 19.2721 44.0104 19.2051C45.9826 18.9966 47.7616 18.8149 49.5827 18.6867C50.6654 18.6102 51.6544 18.5738 52.607 18.5738C54.0551 18.5738 55.3808 18.6599 56.6605 18.8359C57.4601 18.9469 58.2923 19.1343 59.132 19.3945C59.5433 19.5207 59.9374 19.7637 60.3181 19.9951L60.5285 20.1233C60.6815 20.2151 60.8498 20.305 61.0737 20.305C61.0947 20.305 61.1157 20.305 61.1387 20.3031C65.8407 19.9607 70.6306 19.9167 75.2637 19.8746C77.4196 19.8555 79.6501 19.8345 81.8614 19.7828H81.915C82.2172 19.7752 82.5195 19.7675 82.8217 19.7675C82.9365 19.7675 83.0494 19.7675 83.1641 19.7713C83.3554 19.7752 83.5352 19.8058 83.6825 19.8593C83.8815 19.9301 83.9943 20.1137 83.9771 20.3337C83.9599 20.5556 83.8528 20.6934 83.6577 20.7469C83.474 20.7967 83.2693 20.8043 83.0742 20.8062C81.2072 20.8292 79.3421 20.8502 77.4751 20.8713C73.5842 20.9153 69.5632 20.9631 65.5843 21.0205C64.6795 21.0339 63.7632 21.0932 62.8775 21.1525C62.4873 21.1773 62.099 21.2041 61.7087 21.2252C61.6246 21.2309 61.5404 21.2424 61.4505 21.2577C61.4103 21.2634 61.2114 21.2921 61.2114 21.2921L61.2018 21.4031C61.0985 22.5451 60.3123 23.2662 59.4821 24.0295L59.1014 24.3815L59.6657 24.3949C59.7576 24.3987 59.8322 24.4006 59.9029 24.4006H59.9833L61.9938 24.3413C63.4055 24.2992 64.8077 24.2591 66.2118 24.2227C66.25 24.2227 66.2883 24.2227 66.3285 24.2227C66.558 24.2227 66.7933 24.238 67.019 24.2533C67.13 24.261 67.2409 24.2686 67.3519 24.2744C67.4418 24.2782 67.5145 24.2858 67.5833 24.3031C67.8798 24.3796 68.0807 24.6187 68.0463 24.8578C68.0099 25.1122 67.8091 25.2538 67.482 25.2538H67.4552C67.1338 25.2461 66.8105 25.2366 66.4872 25.227C65.9918 25.2117 65.5193 25.1983 65.0468 25.1907C64.8345 25.1868 64.6202 25.1849 64.406 25.1849C62.0531 25.1849 59.7557 25.3705 57.8179 25.5541C57.3071 25.6019 56.8518 25.7435 56.4272 25.9864C55.9681 26.2485 55.4975 26.4819 54.9982 26.7306C54.7801 26.8396 54.5621 26.9467 54.3402 27.0596L53.42 27.446C53.42 27.446 56.563 27.3427 57.3568 27.3178C58.9924 27.2681 60.6624 27.2164 62.3018 27.1973C62.7073 27.1935 63.1109 27.1897 63.5165 27.1897C64.6814 27.1897 66.2175 27.2145 67.7708 27.4135C68.3963 27.4938 68.8421 27.6755 69.2591 28.0256L69.3872 28.1327L69.4714 27.9873C69.4886 27.9587 69.5039 27.928 69.5192 27.8974C69.5517 27.8343 69.5785 27.7827 69.611 27.7444C69.7717 27.5589 69.9267 27.3695 70.0835 27.1801C70.4413 26.7439 70.8124 26.2963 71.2275 25.9195C73.0715 24.2495 75.126 23.0635 77.3335 22.3959C77.7486 22.2696 78.2154 22.2007 78.6841 22.195C79.1106 22.195 79.4397 22.3423 79.6329 22.6197C79.828 22.899 79.8567 23.2854 79.7113 23.6833C79.5066 24.2418 79.1106 24.7048 78.4966 25.0988C78.3914 25.1677 78.2766 25.2021 78.1676 25.2021C78.0184 25.2021 77.8825 25.1333 77.7965 25.0127C77.6377 24.7908 77.6932 24.5479 77.9533 24.3279L78.0413 24.2552C78.3129 24.0295 78.6228 23.7311 78.7893 23.3848C78.9557 23.0386 78.6458 22.9525 78.0241 23.14C77.8098 23.205 77.542 23.3141 77.2723 23.4097C74.9194 24.2418 72.8975 25.5254 71.2619 27.2222C70.8449 27.6545 70.4585 28.1901 70.1428 28.7736C69.8884 29.2422 69.8349 29.6057 69.9802 29.8792C70.1275 30.1604 70.47 30.3269 71.0285 30.3881C71.2141 30.4091 71.4073 30.4187 71.6043 30.4187C72.2949 30.4187 72.9548 30.2963 73.567 30.1623C76.5837 29.5081 79.6979 28.5038 83.0876 27.0921C83.1297 27.0749 83.1699 27.0538 83.233 27.0194L83.6691 26.7937L83.342 26.6904C82.8887 26.5488 82.5348 26.4857 82.1943 26.4857C82.1579 26.4857 82.0412 26.4895 82.0412 26.4895C81.8098 26.4895 81.6032 26.413 81.4119 26.2542C81.255 26.1242 81.2053 25.9501 81.2665 25.7377C81.3239 25.5388 81.4635 25.4355 81.6816 25.4317H81.7199C81.8901 25.4317 82.0642 25.4565 82.2249 25.4852C82.7242 25.5694 83.2234 25.6574 83.7208 25.7454L83.7935 25.7588C84.199 25.8296 84.6026 25.9003 85.0082 25.9692C85.1115 25.9864 85.2148 25.996 85.3162 25.996C85.9513 25.996 86.5309 25.6593 86.8656 25.0931C87.275 24.4006 87.6844 23.7062 88.0918 23.0137L88.2563 22.7325C89.538 20.5556 90.8637 18.3041 92.2142 16.0928C92.7402 15.232 93.3581 14.4056 93.9569 13.6079C94.1711 13.3209 94.3758 13.0512 94.5747 12.7777C94.766 12.5156 95.0109 12.2516 95.2978 11.9915C95.4222 11.8786 95.5675 11.8174 95.7091 11.8174C95.8507 11.8174 95.9807 11.8786 96.0726 11.9915C96.1969 12.1426 96.2791 12.3492 95.9425 12.7337L95.8583 12.8312C95.3074 13.4606 94.7373 14.111 94.24 14.7996C92.6905 16.9383 91.3591 19.2568 90.0736 21.5006L89.7982 21.9788C89.4863 22.5221 89.1765 23.0673 88.8589 23.6259L88.155 24.7794C88.155 24.7794 91.9445 23.2854 93.3237 22.6962L93.4786 22.6292C96.0611 21.5274 98.7315 20.3873 101.368 19.2835C103.791 18.2678 106.265 17.252 108.656 16.2726L108.816 16.2075C110.01 15.7178 111.202 15.2281 112.396 14.7365C112.633 14.6389 112.87 14.5337 113.105 14.4304C113.316 14.3367 113.528 14.243 113.74 14.155C113.905 14.0861 114.083 14.0172 114.257 13.9866C114.293 13.9809 114.33 13.9771 114.364 13.9771C114.605 13.9771 114.802 14.1282 114.867 14.3597C114.936 14.6103 114.789 14.8742 114.513 14.989C105.775 18.6293 97.0367 22.2677 88.2984 25.9099C88.197 25.952 88.0995 25.9979 87.9694 26.0572L87.3554 26.3403L87.7226 26.4455C87.8125 26.4704 87.8891 26.4934 87.9579 26.5144C88.0899 26.5546 88.1913 26.5833 88.2946 26.6062C92.2467 27.4326 96.3863 28.4866 100.6 29.7377C104.486 30.8912 109.056 32.3259 113.48 34.2044C114.045 34.4435 114.609 34.6998 115.154 34.9466C115.582 35.1417 116.011 35.3349 116.443 35.5243C116.644 35.6123 116.874 35.6773 117.168 35.729C117.482 35.7844 117.633 35.9126 117.664 36.1479C117.698 36.4157 117.551 36.6223 117.274 36.7007C117.191 36.7237 117.098 36.7352 116.996 36.7352C116.922 36.7352 116.845 36.7294 116.769 36.716C116.6 36.6892 116.428 36.6127 116.265 36.5362C112.166 34.6195 107.94 33.179 104.717 32.1384C98.6684 30.1853 93.559 28.764 88.637 27.6622C88.2468 27.5742 87.8546 27.4957 87.4625 27.4154L86.814 27.2834L86.6705 27.4976C86.6131 27.5818 86.5691 27.6468 86.529 27.7157L86.3262 28.0677C84.8265 30.6731 83.3267 33.2804 81.8308 35.8877C81.6931 36.1269 81.5707 36.3736 81.4521 36.6127L81.3468 36.8232C81.2168 37.0814 81.0523 37.2115 80.8552 37.2115L80.8591 37.1962ZM43.5933 29.5273L42.2945 29.7224C40.9191 29.9271 39.5073 30.1375 38.1205 30.3632C35.142 30.8433 32.242 31.5167 29.5027 32.3622C27.8997 32.8577 26.6333 33.3818 25.52 34.0112C25.2273 34.1776 24.0796 34.7935 24.1848 35.0174C24.3665 35.398 25.6405 35.1302 25.9523 35.0824C26.7347 34.9638 27.5439 34.8414 28.3263 34.6539C32.9536 33.5501 37.7111 31.9031 43.9664 29.9844C44.6397 29.7778 46.0151 29.38 45.9424 29.2805C45.8697 29.181 43.7253 29.5081 43.5914 29.5273H43.5933ZM53.3072 19.5456C53.0834 19.5456 52.8576 19.5475 52.6338 19.5533C51.4191 19.58 50.1872 19.6413 48.9935 19.7025C48.4426 19.7292 47.8974 19.7579 47.3522 19.7809C46.9352 19.8 46.5699 19.9416 46.3594 20.2419C46.2313 20.4236 45.7492 21.0855 45.6249 21.2538C43.9109 23.5876 42.2026 25.9271 40.4963 28.2666C40.4466 28.3355 40.0908 28.8902 40.0908 28.8902L41.1333 28.7544C41.8009 28.6684 42.4685 28.5784 43.1361 28.4885L43.1993 28.4809C44.7277 28.2743 46.3097 28.06 47.8745 27.8955L48.2379 27.8573C50.3594 27.6373 50.4875 27.6239 52.6836 26.6904C52.7123 26.6808 52.7237 26.677 52.7333 26.6732C54.6424 25.8449 56.4922 25.0013 58.1507 23.7942C58.6022 23.4652 59.0823 23.096 59.6275 22.5202C60.209 21.9062 60.3448 21.535 60.2281 21.1295C60.1459 20.8445 59.4649 20.4963 59.1684 20.4102C59.0268 20.3682 58.8872 20.3261 58.7456 20.284C58.2578 20.1367 57.7528 19.9837 57.244 19.888C56.0427 19.6585 54.7534 19.5475 53.3053 19.5475L53.3072 19.5456Z" fill="#F4F2ED"/>
</g>
<defs>
<clipPath id="clip0_125_15">
<rect width="106.33" height="25.3922" fill="white" transform="translate(11.3398 11.804)"/>
</clipPath>
</defs>
</svg>
