<svg width="131" height="66" viewBox="0 0 131 66" fill="none" xmlns="http://www.w3.org/2000/svg">
<path d="M13.9589 34.578C11.9676 34.578 10.2702 34.2225 8.86681 33.5114C7.48238 32.7811 6.42035 31.6569 5.68073 30.1387C4.9411 28.6204 4.57129 26.689 4.57129 24.3444C4.57129 20.8852 5.39626 18.3196 7.04619 16.6476C8.71509 14.9564 11.0288 14.1108 13.9873 14.1108C15.6183 14.1108 17.0786 14.3895 18.3682 14.9468C19.6767 15.5041 20.7008 16.3401 21.4405 17.4548C22.199 18.5502 22.5783 19.9531 22.5783 21.6635H19.3354C19.3354 20.6065 19.1173 19.7225 18.6811 19.0114C18.2449 18.3004 17.6191 17.7623 16.8036 17.3971C16.007 17.032 15.0778 16.8494 14.0157 16.8494C12.6882 16.8494 11.5598 17.1185 10.6305 17.6566C9.72022 18.1754 9.02801 18.9634 8.55389 20.0204C8.09874 21.0774 7.87116 22.4226 7.87116 24.0562V24.6904C7.87116 26.3239 8.09874 27.6692 8.55389 28.7261C9.02801 29.7831 9.72022 30.5711 10.6305 31.09C11.5408 31.5896 12.6692 31.8395 14.0157 31.8395C15.1157 31.8395 16.0734 31.6665 16.8889 31.3206C17.7044 30.9554 18.3302 30.4173 18.7664 29.7063C19.2216 28.9952 19.4492 28.1112 19.4492 27.0542H22.5783C22.5783 28.7646 22.199 30.1771 21.4405 31.2917C20.7008 32.4064 19.6767 33.2328 18.3682 33.7709C17.0786 34.309 15.6088 34.578 13.9589 34.578Z" fill="#F4F2ED"/>
<path d="M23.9896 34.2321L31.6419 14.4568H35.7098L43.3905 34.2321H39.9769L38.2416 29.6486H28.9963L27.261 34.2321H23.9896ZM30.0204 26.91H37.1891L34.9986 21.1158C34.9417 20.9428 34.8564 20.7026 34.7426 20.3951C34.6288 20.0876 34.5056 19.7513 34.3728 19.3862C34.259 19.021 34.1357 18.6559 34.003 18.2908C33.8892 17.9064 33.7849 17.5605 33.6901 17.253H33.5194C33.4056 17.6181 33.2634 18.0505 33.0927 18.5502C32.922 19.0499 32.7513 19.5303 32.5806 19.9915C32.4289 20.4528 32.2962 20.8275 32.1824 21.1158L30.0204 26.91Z" fill="#F4F2ED"/>
<path d="M45.9028 34.2321V14.4568H48.9751L57.879 26.8524C57.9928 26.9677 58.1161 27.131 58.2489 27.3424C58.4006 27.5538 58.5428 27.7652 58.6756 27.9766C58.8083 28.188 58.9031 28.361 58.96 28.4955H59.1023C59.1023 28.2073 59.1023 27.9286 59.1023 27.6595C59.1023 27.3905 59.1023 27.1214 59.1023 26.8524V14.4568H62.1746V34.2321H59.2161L50.1983 21.6923C50.0466 21.4617 49.8569 21.1735 49.6294 20.8275C49.4018 20.4624 49.2311 20.1837 49.1173 19.9915H48.9751C48.9751 20.2606 48.9751 20.5393 48.9751 20.8275C48.9751 21.0966 48.9751 21.3849 48.9751 21.6923V34.2321H45.9028Z" fill="#F4F2ED"/>
<path d="M66.7937 34.2321V14.4568H69.866L78.7699 26.8524C78.8837 26.9677 79.007 27.131 79.1397 27.3424C79.2915 27.5538 79.4337 27.7652 79.5664 27.9766C79.6992 28.188 79.794 28.361 79.8509 28.4955H79.9932C79.9932 28.2073 79.9932 27.9286 79.9932 27.6595C79.9932 27.3905 79.9932 27.1214 79.9932 26.8524V14.4568H83.0654V34.2321H80.1069L71.0892 21.6923C70.9375 21.4617 70.7478 21.1735 70.5202 20.8275C70.2927 20.4624 70.122 20.1837 70.0082 19.9915H69.866C69.866 20.2606 69.866 20.5393 69.866 20.8275C69.866 21.0966 69.866 21.3849 69.866 21.6923V34.2321H66.7937Z" fill="#F4F2ED"/>
<path d="M85.551 34.2321L93.2033 14.4568H97.2712L104.952 34.2321H101.538L99.803 29.6486H90.5577L88.8224 34.2321H85.551ZM91.5818 26.91H98.7505L96.5601 21.1158C96.5032 20.9428 96.4178 20.7026 96.304 20.3951C96.1903 20.0876 96.067 19.7513 95.9342 19.3862C95.8204 19.021 95.6972 18.6559 95.5644 18.2908C95.4506 17.9064 95.3463 17.5605 95.2515 17.253H95.0808C94.967 17.6181 94.8248 18.0505 94.6541 18.5502C94.4834 19.0499 94.3127 19.5303 94.1421 19.9915C93.9903 20.4528 93.8576 20.8275 93.7438 21.1158L91.5818 26.91Z" fill="#F4F2ED"/>
<path d="M45.9583 57.6541V37.8787H53.4968C55.5071 37.8787 57.2234 38.2343 58.6458 38.9453C60.0681 39.6372 61.1586 40.7134 61.9172 42.174C62.6948 43.6153 63.0835 45.4795 63.0835 47.7664C63.0835 50.0341 62.6948 51.8983 61.9172 53.3588C61.1586 54.8194 60.0681 55.9052 58.6458 56.6163C57.2234 57.3082 55.5071 57.6541 53.4968 57.6541H45.9583ZM49.1444 54.8867H53.4684C54.4735 54.8867 55.3649 54.7522 56.1424 54.4831C56.939 54.214 57.6027 53.8009 58.1337 53.2435C58.6837 52.6862 59.0915 51.9848 59.357 51.1392C59.6414 50.2744 59.7837 49.2558 59.7837 48.0835V47.4781C59.7837 46.2866 59.6414 45.2681 59.357 44.4225C59.0915 43.5577 58.6837 42.8466 58.1337 42.2893C57.6027 41.7319 56.939 41.3188 56.1424 41.0497C55.3649 40.7806 54.4735 40.6461 53.4684 40.6461H49.1444V54.8867Z" fill="#F4F2ED"/>
<path d="M75.613 58C73.6027 58 71.8579 57.6252 70.3787 56.8757C68.9184 56.1262 67.79 54.9924 66.9935 53.4742C66.2159 51.9559 65.8271 50.0533 65.8271 47.7664C65.8271 45.4602 66.2159 43.5577 66.9935 42.0586C67.79 40.5404 68.9184 39.4066 70.3787 38.6571C71.8579 37.9076 73.6027 37.5328 75.613 37.5328C77.6611 37.5328 79.4154 37.9076 80.8757 38.6571C82.336 39.4066 83.4549 40.5404 84.2324 42.0586C85.029 43.5577 85.4272 45.4602 85.4272 47.7664C85.4272 50.0533 85.029 51.9559 84.2324 53.4742C83.4549 54.9924 82.336 56.1262 80.8757 56.8757C79.4154 57.6252 77.6611 58 75.613 58ZM75.613 55.2614C76.656 55.2614 77.5758 55.1173 78.3723 54.829C79.1878 54.5408 79.8705 54.0987 80.4205 53.503C80.9895 52.9072 81.4162 52.1577 81.7006 51.2545C82.0041 50.3512 82.1558 49.3038 82.1558 48.1123V47.4781C82.1558 46.2482 82.0041 45.1816 81.7006 44.2783C81.4162 43.3751 80.9895 42.6256 80.4205 42.0298C79.8705 41.4341 79.1878 40.992 78.3723 40.7038C77.5758 40.4155 76.656 40.2714 75.613 40.2714C74.5889 40.2714 73.6691 40.4155 72.8536 40.7038C72.0571 40.992 71.3743 41.4341 70.8054 42.0298C70.2554 42.6256 69.8382 43.3751 69.5537 44.2783C69.2692 45.1816 69.127 46.2482 69.127 47.4781V48.1123C69.127 49.3038 69.2692 50.3512 69.5537 51.2545C69.8382 52.1577 70.2554 52.9072 70.8054 53.503C71.3743 54.0987 72.0571 54.5408 72.8536 54.829C73.6691 55.1173 74.5889 55.2614 75.613 55.2614Z" fill="#F4F2ED"/>
<path d="M97.5502 58C95.5589 58 93.8615 57.6445 92.4581 56.9334C91.0737 56.2031 90.0117 55.0789 89.272 53.5606C88.5324 52.0424 88.1626 50.111 88.1626 47.7664C88.1626 44.3072 88.9876 41.7416 90.6375 40.0696C92.3064 38.3784 94.6201 37.5328 97.5786 37.5328C99.2096 37.5328 100.67 37.8115 101.959 38.3688C103.268 38.9261 104.292 39.7621 105.032 40.8767C105.79 41.9722 106.17 43.3751 106.17 45.0855H102.927C102.927 44.0285 102.709 43.1445 102.272 42.4334C101.836 41.7223 101.21 41.1842 100.395 40.8191C99.5984 40.4539 98.6691 40.2714 97.6071 40.2714C96.2795 40.2714 95.1511 40.5404 94.2218 41.0785C93.3115 41.5974 92.6193 42.3854 92.1452 43.4423C91.69 44.4993 91.4625 45.8446 91.4625 47.4781V48.1123C91.4625 49.7459 91.69 51.0911 92.1452 52.1481C92.6193 53.2051 93.3115 53.993 94.2218 54.5119C95.1322 55.0116 96.2606 55.2614 97.6071 55.2614C98.707 55.2614 99.6647 55.0885 100.48 54.7425C101.296 54.3774 101.922 53.8393 102.358 53.1282C102.813 52.4172 103.04 51.5331 103.04 50.4761H106.17C106.17 52.1865 105.79 53.5991 105.032 54.7137C104.292 55.8284 103.268 56.6547 101.959 57.1928C100.67 57.7309 99.2001 58 97.5502 58Z" fill="#F4F2ED"/>
<path d="M110.638 45.0422V44.5675C110.638 44.1285 110.719 43.7252 110.88 43.3577C111.051 42.9799 111.273 42.6379 111.545 42.3316C111.827 42.0253 112.139 41.7343 112.482 41.4587C112.825 41.183 113.172 40.9176 113.525 40.6623C113.988 40.3254 114.416 39.9885 114.809 39.6516C115.202 39.3147 115.52 38.9522 115.761 38.5643C116.013 38.1763 116.139 37.7424 116.139 37.2625C116.139 36.9869 116.074 36.7316 115.943 36.4968C115.822 36.262 115.63 36.0731 115.369 35.9302C115.107 35.7771 114.764 35.7005 114.341 35.7005C113.877 35.7005 113.5 35.7822 113.207 35.9455C112.925 36.0987 112.714 36.3131 112.573 36.5887C112.442 36.8542 112.376 37.1656 112.376 37.5229V38.1508H110.805C110.794 38.0997 110.784 38.0232 110.774 37.9211C110.764 37.819 110.759 37.6913 110.759 37.5382C110.759 36.7827 110.925 36.1752 111.258 35.7158C111.6 35.2462 112.049 34.9041 112.603 34.6897C113.167 34.4651 113.772 34.3528 114.416 34.3528C115.041 34.3528 115.565 34.4447 115.988 34.6285C116.421 34.802 116.764 35.0369 117.016 35.3329C117.278 35.629 117.464 35.9557 117.575 36.3131C117.696 36.6704 117.756 37.0175 117.756 37.3544C117.756 37.8445 117.671 38.2886 117.499 38.6868C117.338 39.085 117.106 39.4576 116.804 39.8047C116.512 40.1519 116.164 40.4888 115.761 40.8155C115.369 41.132 114.945 41.4485 114.492 41.765C114.21 41.959 113.933 42.158 113.661 42.3622C113.399 42.5664 113.167 42.7757 112.966 42.9901C112.764 43.1943 112.628 43.3934 112.558 43.5874H117.817V45.0422H110.638Z" fill="#F4F2ED"/>
<path d="M123.67 45.0422V42.5766H118.97V41.2596C119.383 40.5449 119.761 39.8252 120.103 39.1003C120.446 38.3754 120.758 37.6199 121.04 36.8337C121.322 36.0374 121.559 35.2104 121.75 34.3528H123.398C123.267 34.9041 123.1 35.4708 122.899 36.0527C122.708 36.6244 122.491 37.186 122.249 37.7373C122.017 38.2886 121.786 38.7991 121.554 39.2687C121.322 39.7384 121.106 40.1468 120.904 40.4939C120.703 40.841 120.541 41.0962 120.42 41.2596H123.67V38.2427C123.74 38.0691 123.811 37.8853 123.881 37.6913C123.962 37.4872 124.037 37.283 124.108 37.0788C124.178 36.8644 124.244 36.6602 124.304 36.4662C124.365 36.2722 124.42 36.0884 124.471 35.9149H125.241V41.2596H126.571V42.5766H125.241V45.0422H123.67Z" fill="#F4F2ED"/>
<path d="M103.128 1.4198C106.758 9.8733 104.124 16.5301 103.131 18.5364C98.8562 11.4269 101.951 3.80649 103.128 1.4198ZM106.88 23.2541C106.156 23.0545 105.493 22.6759 104.95 22.1526C104.407 21.6292 104.001 20.9774 103.769 20.2561C106.18 21.5378 106.192 20.1972 106.88 23.2541ZM103.934 19.3577C106.219 17.8088 109.633 17.5137 112.755 19.3328C111.232 20.0164 107.438 21.3241 103.934 19.3577ZM107.102 17.2941C106.106 17.4306 105.14 17.7332 104.242 18.1897C104.673 17.1764 105.018 16.1275 105.272 15.0548C106.685 13.5915 110.129 10.3752 113.767 9.5978C113.171 11.0366 111.377 14.5033 107.102 17.2941Z" fill="#F4F2ED"/>
</svg>
