<svg width="129" height="58" viewBox="0 0 129 58" fill="none" xmlns="http://www.w3.org/2000/svg">
<g clip-path="url(#clip0_125_23)">
<path d="M64.5838 22.4504C69.5003 22.4504 73.486 18.4647 73.486 13.5482C73.486 8.63163 69.5003 4.646 64.5838 4.646C59.6673 4.646 55.6816 8.63163 55.6816 13.5482C55.6816 18.4647 59.6673 22.4504 64.5838 22.4504Z" fill="#F4F2ED" stroke="#F4F2ED" stroke-width="0.291971" stroke-miterlimit="10"/>
<path d="M47.1738 13.5482H82.0264Z" fill="#F4F2ED"/>
<path d="M47.1738 13.5482H82.0264" stroke="#F4F2ED" stroke-width="0.408759" stroke-miterlimit="10"/>
<path d="M83.326 15.0226C84.1403 15.0226 84.8005 14.3625 84.8005 13.5482C84.8005 12.7339 84.1403 12.0737 83.326 12.0737C82.5117 12.0737 81.8516 12.7339 81.8516 13.5482C81.8516 14.3625 82.5117 15.0226 83.326 15.0226Z" fill="#F4F2ED" stroke="#F4F2ED" stroke-width="0.408759" stroke-miterlimit="10"/>
<path d="M45.7401 15.0226C46.5544 15.0226 47.2146 14.3625 47.2146 13.5482C47.2146 12.7339 46.5544 12.0737 45.7401 12.0737C44.9258 12.0737 44.2656 12.7339 44.2656 13.5482C44.2656 14.3625 44.9258 15.0226 45.7401 15.0226Z" fill="#F4F2ED" stroke="#F4F2ED" stroke-width="0.408759" stroke-miterlimit="10"/>
<path d="M26.8436 36.9117H25.6933C25.01 35.6591 23.7137 34.8007 21.9502 34.8007C19.4305 34.8007 17.6845 36.6635 17.6845 39.0839C17.6845 41.5044 19.4334 43.3671 21.9502 43.3671C23.7137 43.3671 25.01 42.5087 25.6933 41.2562H26.8436C26.102 43.0927 24.2947 44.3861 21.9502 44.3861C18.8057 44.3861 16.5195 42.0854 16.5195 39.0839C16.5195 36.0825 18.8057 33.7817 21.9502 33.7817C24.2947 33.7817 26.102 35.0781 26.8436 36.9117Z" fill="#F4F2ED"/>
<path d="M37.377 41.9802H32.0456L31.158 44.1788H29.9492L34.2324 33.9832H35.193L39.4762 44.1788H38.2675L37.3799 41.9802H37.377ZM32.4397 41.0021H36.9828L34.7113 35.3233L32.4397 41.0021Z" fill="#F4F2ED"/>
<path d="M43.4531 33.9832H44.6181V43.1598H49.6429V44.1788H43.4531V33.9832Z" fill="#F4F2ED"/>
<path d="M58.7318 44.3248L54.7406 36.4445V44.1788H53.707V33.9832H54.6092L58.7318 42.2839L62.8545 33.9832H63.7567V44.1788H62.7231V36.4445L58.7318 44.3248Z" fill="#F4F2ED"/>
<path d="M75.1621 41.9802H69.8307L68.9431 44.1788H67.7344L72.0176 33.9832H72.9782L77.2614 44.1788H76.0526L75.165 41.9802H75.1621ZM70.2249 41.0021H74.768L72.4964 35.3233L70.2249 41.0021Z" fill="#F4F2ED"/>
<path d="M84.6164 40.9438H82.4032V44.176H81.2383V33.9803H85.1127C87.2967 33.9803 88.7536 35.5833 88.7536 37.446C88.7536 39.0636 87.6616 40.4913 85.9711 40.8533L89.0748 44.173H87.6032L84.6193 40.9409L84.6164 40.9438ZM84.9959 39.9395C86.6865 39.9395 87.6032 38.7307 87.6032 37.449C87.6032 36.1672 86.6865 34.9876 84.9959 34.9876H82.4032V39.9395H84.9959Z" fill="#F4F2ED"/>
<path d="M97.6377 33.7788C100.771 33.7788 103.057 36.0795 103.057 39.081C103.057 42.0825 100.771 44.3832 97.6377 44.3832C94.5049 44.3832 92.2188 42.0971 92.2188 39.081C92.2188 36.0649 94.5195 33.7788 97.6377 33.7788ZM93.3866 39.081C93.3866 41.4547 95.1209 43.3642 97.6407 43.3642C100.16 43.3642 101.895 41.4576 101.895 39.081C101.895 36.7044 100.175 34.7978 97.6407 34.7978C95.1063 34.7978 93.3866 36.6898 93.3866 39.081Z" fill="#F4F2ED"/>
<path d="M107.34 33.9832H108.505V44.1788H107.34V33.9832Z" fill="#F4F2ED"/>
<path d="M112.163 34.0095C112.645 34.0095 112.957 34.3745 112.957 34.7978C112.957 35.2212 112.642 35.5862 112.163 35.5862C111.684 35.5862 111.369 35.2212 111.369 34.7978C111.369 34.3745 111.684 34.0095 112.163 34.0095ZM112.163 35.5307C112.613 35.5307 112.89 35.1832 112.89 34.8008C112.89 34.4183 112.61 34.0708 112.163 34.0708C111.717 34.0708 111.436 34.4183 111.436 34.8008C111.436 35.1832 111.72 35.5307 112.163 35.5307ZM112.549 34.6548H112.441C112.397 34.5672 112.312 34.5 112.178 34.5C112.006 34.5 111.883 34.6227 111.883 34.8008C111.883 34.9789 112.006 35.1015 112.178 35.1015C112.312 35.1015 112.397 35.0314 112.441 34.9467H112.549C112.496 35.0869 112.35 35.1949 112.178 35.1949C111.944 35.1949 111.778 35.0197 111.778 34.8008C111.778 34.5818 111.944 34.4066 112.178 34.4066C112.35 34.4066 112.496 34.5146 112.549 34.6548Z" fill="#F4F2ED"/>
</g>
<defs>
<clipPath id="clip0_125_23">
<rect width="96.6423" height="40" fill="white" transform="translate(16.5195 4.5)"/>
</clipPath>
</defs>
</svg>
