<svg width="90" height="52" viewBox="0 0 90 52" fill="none" xmlns="http://www.w3.org/2000/svg">
<g clip-path="url(#clip0_125_43)">
<path d="M2.29299 43.0693L0.932028 44.4851V47.2661H-0.328125V38.0128H0.932028V42.7659L5.26696 38.0128H6.93036L3.09949 42.1591L6.98076 47.3167H5.36777L2.29299 43.0693Z" fill="#F4F2ED"/>
<path d="M9.50144 37.7097C10.0055 37.7097 10.4087 38.1142 10.4087 38.6199C10.4087 39.1255 10.0055 39.4795 9.50144 39.4795C8.99737 39.4795 8.64453 39.1255 8.64453 38.6199C8.64453 38.1142 9.04778 37.7097 9.50144 37.7097ZM8.89656 47.317V40.9964H10.1567V47.2664H8.89656V47.317Z" fill="#F4F2ED"/>
<path d="M14.0887 47.3169H12.8789V40.9963H14.0887V41.9065C14.5423 41.0975 15.2984 40.7941 16.0041 40.7941C17.5163 40.7941 18.2724 41.9065 18.2724 43.2717V47.2663H17.0626V43.474C17.0626 42.6144 16.7098 41.9065 15.6008 41.9065C14.6431 41.9065 14.1391 42.665 14.1391 43.6257L14.0887 47.3169Z" fill="#F4F2ED"/>
<path d="M26.3362 45.4965C25.9834 46.6089 24.9753 47.4685 23.5135 47.4685C21.8501 47.4685 20.3379 46.2549 20.3379 44.0807C20.3379 42.1086 21.7493 40.7434 23.3623 40.7434C25.2777 40.7434 26.3866 42.0581 26.3866 44.0301C26.3866 44.1818 26.3866 44.3335 26.3866 44.4346H21.6484C21.6484 45.547 22.5054 46.3561 23.5639 46.3561C24.6224 46.3561 25.0761 45.7999 25.3281 45.092L26.3362 45.4965ZM25.0761 43.4739C25.0761 42.5637 24.4712 41.8558 23.3623 41.8558C22.3541 41.8558 21.6989 42.6649 21.6484 43.4739H25.0761Z" fill="#F4F2ED"/>
<path d="M34.5028 44.1313C34.5028 46.0528 33.1922 47.4686 31.2768 47.4686C29.3613 47.4686 28.0508 46.0528 28.0508 44.1313C28.0508 42.2099 29.3613 40.7941 31.2768 40.7941C33.1922 40.7941 34.5028 42.2099 34.5028 44.1313ZM33.2426 44.1313C33.2426 42.665 32.3353 41.9065 31.2768 41.9065C30.2182 41.9065 29.3109 42.665 29.3109 44.1313C29.3109 45.5977 30.2182 46.3562 31.2768 46.3562C32.3353 46.3562 33.2426 45.5977 33.2426 44.1313Z" fill="#F4F2ED"/>
<path d="M49.4722 47.3167V40.086L46.2966 47.3167H45.1373L42.0121 40.086V47.3167H40.752V38.0128H42.4658L45.7422 45.5469L49.0186 38.0128H50.7324V47.3167H49.4722Z" fill="#F4F2ED"/>
<path d="M59.0999 45.4965C58.747 46.6089 57.7389 47.4685 56.2772 47.4685C54.6137 47.4685 53.1016 46.2549 53.1016 44.0807C53.1016 42.1086 54.5129 40.7434 56.1259 40.7434C58.0414 40.7434 59.1503 42.0581 59.1503 44.0301C59.1503 44.1818 59.1503 44.3335 59.0999 44.4346H54.3617C54.4121 45.547 55.2186 46.3561 56.2772 46.3561C57.3357 46.3561 57.7893 45.7999 58.0414 45.092C58.0414 45.1425 59.0999 45.4965 59.0999 45.4965ZM57.8901 43.4739C57.8397 42.5637 57.2853 41.8558 56.1763 41.8558C55.1178 41.8558 54.5129 42.6649 54.4625 43.4739H57.8901Z" fill="#F4F2ED"/>
<path d="M65.7543 46.3563C65.4518 46.9631 64.7965 47.4687 63.7884 47.4687C61.9738 47.4687 60.8145 46.0024 60.8145 44.1315C60.8145 42.2606 62.0242 40.8448 63.7884 40.8448C64.8974 40.8448 65.5022 41.401 65.7038 41.9066V37.8109H66.9136V46.1035C66.9136 46.7103 66.964 47.1653 66.964 47.2665H65.7543C65.7038 47.1148 65.7038 46.8114 65.7038 46.4069V46.3563H65.7543ZM63.9396 46.3563C65.0486 46.3563 65.7543 45.3956 65.7543 44.0809C65.7543 42.7662 65.0486 41.9066 63.9396 41.9066C62.8307 41.9066 62.0746 42.8168 62.0746 44.1315C62.0746 45.4462 62.7803 46.3563 63.9396 46.3563Z" fill="#F4F2ED"/>
<path d="M70.2905 37.7097C70.7946 37.7097 71.1978 38.1142 71.1978 38.6199C71.1978 39.1255 70.7946 39.4795 70.2905 39.4795C69.7864 39.4795 69.4336 39.075 69.4336 38.6199C69.4336 38.1648 69.8368 37.7097 70.2905 37.7097ZM69.6856 47.317V40.9964H70.8954V47.2664H69.6856V47.317Z" fill="#F4F2ED"/>
<path d="M74.3734 44.1313C74.3734 45.5471 75.2807 46.3562 76.2889 46.3562C77.4482 46.3562 77.9019 45.5471 78.0531 45.0415L79.1116 45.4966C78.8092 46.4067 77.9019 47.4686 76.2889 47.4686C74.4742 47.4686 73.1133 46.0528 73.1133 44.1313C73.1133 42.2099 74.4742 40.7941 76.2889 40.7941C77.9523 40.7941 78.8092 41.8559 79.0612 42.8166L77.9523 43.2717C77.8011 42.665 77.3474 41.9571 76.2889 41.9571C75.2807 41.9571 74.3734 42.665 74.3734 44.1313Z" fill="#F4F2ED"/>
<path d="M82.6899 43.6763L84.4037 43.4235C84.8069 43.373 84.9078 43.1707 84.9078 42.9684C84.9078 42.3617 84.5045 41.856 83.5468 41.856C82.6899 41.856 82.1858 42.4122 82.1354 43.1201L80.9761 42.8673C81.1273 41.6538 82.1858 40.8447 83.5468 40.8447C85.4118 40.8447 86.1679 41.9066 86.1679 43.1707V46.3057C86.1679 46.8619 86.2183 47.1653 86.2687 47.3675H85.059C85.0086 47.2159 85.0086 46.963 85.0086 46.5079C84.7565 46.963 84.1013 47.5698 82.9923 47.5698C81.7322 47.5698 80.8753 46.6596 80.8753 45.6989C80.7744 44.4854 81.6313 43.828 82.6899 43.6763ZM84.8573 44.5865V44.2831L82.9419 44.5865C82.4378 44.6876 82.0346 44.991 82.0346 45.5472C82.0346 46.0023 82.4379 46.4574 83.0427 46.4574C84.0508 46.4574 84.8573 45.9517 84.8573 44.5865Z" fill="#F4F2ED"/>
<path d="M88.6387 47.317V37.8109H89.8484V47.317H88.6387Z" fill="#F4F2ED"/>
<path d="M33.1424 17.3829C37.6522 17.3829 41.3081 13.7155 41.3081 9.19145C41.3081 4.66744 37.6522 1 33.1424 1C28.6325 1 24.9766 4.66744 24.9766 9.19145C24.9766 13.7155 28.6325 17.3829 33.1424 17.3829Z" fill="#F4F2ED"/>
<path d="M13.4844 1H-0.427734V33.7658H13.4844V1Z" fill="#F4F2ED"/>
<path d="M41.3086 33.7153L27.3965 17.3829H13.4844L27.3461 33.7153H41.3086Z" fill="#F4F2ED"/>
<path d="M81.8341 17.3324C86.3161 17.3324 89.9495 13.6876 89.9495 9.19154C89.9495 4.69546 86.3161 1.05066 81.8341 1.05066C77.3521 1.05066 73.7188 4.69546 73.7188 9.19154C73.7188 13.6876 77.3521 17.3324 81.8341 17.3324Z" fill="#F4F2ED"/>
<path d="M48.2637 1V33.7658H62.1758V17.3829L76.0374 33.7152H89.9999L62.1758 1H48.2637Z" fill="#F4F2ED"/>
</g>
<defs>
<clipPath id="clip0_125_43">
<rect width="90" height="52" fill="white"/>
</clipPath>
</defs>
</svg>
