<svg width="112" height="58" viewBox="0 0 112 58" fill="none" xmlns="http://www.w3.org/2000/svg">
<path d="M4.97461 13.6754V24.1653H7.31505C9.56188 24.1653 9.6555 24.1187 9.6555 22.8599C9.6555 20.3889 10.5917 18.1977 12.3236 16.7058C13.8683 15.3072 14.2428 15.2139 16.5832 15.4004C18.83 15.5869 19.3917 15.8666 20.7492 17.3119C21.9194 18.6173 22.2939 19.4565 22.3407 20.9018C22.3875 21.9274 22.4343 23.0464 22.4811 23.3261C22.5279 23.7457 23.3237 23.9322 24.8684 23.9322H27.2088L27.3493 21.8808C27.6301 17.918 25.0088 13.4423 21.2641 11.5308C17.8471 9.8058 15.0385 9.89904 10.4981 11.8105C9.74912 12.0903 9.6555 11.7639 9.6555 7.6612V3.18551H7.31505H4.97461V13.6754Z" fill="#F4F2ED"/>
<path d="M28.8477 5.51657V7.84766H31.4221H33.9966V5.51657V3.18549H31.4221H28.8477V5.51657Z" fill="#F4F2ED"/>
<path d="M29.0339 10.7847C28.9402 11.1111 28.8934 14.2347 28.9402 17.6848L29.0807 23.9321L31.5615 24.0719L33.9956 24.2118V17.2185V10.1787H31.6552C30.1573 10.1787 29.2211 10.4118 29.0339 10.7847Z" fill="#F4F2ED"/>
<path d="M104.209 24.8645V31.6246H106.549H108.89V24.8645V18.1043H106.549H104.209V24.8645Z" fill="#F4F2ED"/>
<path d="M12.7921 25.6105C10.0772 26.4031 6.61331 29.8065 5.67713 32.6038C3.24307 39.7835 7.97077 46.9166 15.4602 47.3828C17.4262 47.5227 18.924 47.3362 20.1411 46.8234C22.4815 45.8443 22.4815 45.8443 21.4985 47.5227C19.907 50.2734 16.0687 51.2058 13.0261 49.6207C12.1836 49.2011 11.2474 48.3153 10.9665 47.7092C10.4984 46.6835 10.124 46.5437 7.92396 46.5437C4.92819 46.5437 4.74096 47.1964 6.75374 50.1801C10.8261 56.241 18.456 57.22 23.7454 52.2781C26.7879 49.4342 27.4433 47.3828 27.4433 40.343C27.4433 33.8626 26.9752 31.8578 24.7284 29.2936C21.873 25.8902 17.0517 24.445 12.7921 25.6105ZM20.4687 32.0443C22.2475 33.7693 22.5751 34.8416 22.2943 37.4524C22.0602 39.4105 20.7964 41.0423 18.7368 41.9747C11.9963 44.9119 6.70693 36.52 12.2304 31.6713C13.6346 30.4592 14.29 30.2261 16.3028 30.2261C18.4092 30.2261 18.8304 30.4125 20.4687 32.0443Z" fill="#F4F2ED"/>
<path d="M33.2945 25.7507C30.0647 27.196 28.8945 29.7602 28.8477 35.448V38.6183H31.4221H33.9966V34.9818C33.9966 31.2054 34.4179 30.2264 35.9626 30.2264C36.6647 30.2264 36.8052 29.8068 36.8052 27.6622C36.8052 25.3311 36.7115 25.098 35.7754 25.098C35.1669 25.1446 34.0903 25.4243 33.2945 25.7507Z" fill="#F4F2ED"/>
<path d="M43.7786 25.704C41.0169 26.7296 39.1914 28.2682 37.7403 30.8323C34.2764 36.8465 37.3658 45.0053 43.7786 46.9168C47.1957 47.9425 47.5702 47.756 47.5702 45.1918C47.5702 43.0006 47.4765 42.8607 46.1659 42.581C44.4808 42.208 41.9531 40.2033 41.9531 39.2709C41.9531 38.758 43.2169 38.6182 48.8808 38.6182H55.7617L56.6511 40.7161C58.0553 44.2128 62.549 47.4763 65.9661 47.4763C66.6214 47.4763 66.7618 47.0567 66.7618 45.1918C66.7618 43.0472 66.6682 42.8607 65.2639 42.3945C63.766 41.8817 61.1447 39.7371 61.1447 38.9911C61.1447 38.8047 64.9363 38.6182 69.5703 38.6182H77.9959V36.054C77.9959 31.9979 76.0768 28.7344 72.4257 26.5898C70.6469 25.5641 69.7108 25.331 66.9958 25.331C64.2809 25.331 63.3448 25.5641 61.5192 26.5898C60.349 27.3357 58.8511 28.5479 58.2426 29.2938L57.1192 30.6925L56.0894 29.3405C53.6553 26.0303 47.6638 24.2587 43.7786 25.704ZM50.7064 31.1587C51.5021 31.6249 52.4383 32.4641 52.7191 32.9769C53.234 33.956 53.1404 33.956 47.3361 33.956C41.5318 33.956 41.4382 33.956 41.9531 32.9769C42.7488 31.5317 45.2765 30.2263 47.3361 30.2263C48.3659 30.2263 49.8638 30.6459 50.7064 31.1587ZM69.9916 30.879C70.6937 31.2519 71.6767 32.0911 72.098 32.7438L72.847 33.956H66.9958C61.1915 33.956 61.0979 33.956 61.6128 32.9769C62.9235 30.5526 67.2299 29.4803 69.9916 30.879Z" fill="#F4F2ED"/>
<path d="M79.8691 31.8581V38.6183H82.4436H85.0181V36.2406C85.0181 34.096 85.2054 33.6764 86.8437 32.0446C88.4352 30.4595 88.9033 30.2264 90.8692 30.2264C92.0863 30.2264 93.6778 30.5527 94.4267 31.0189C96.065 31.998 97.6565 35.0284 97.6565 37.1264C97.6565 38.6183 97.6565 38.6183 99.997 38.6183H102.337V36.6136C102.337 33.0703 101.495 31.0656 98.8735 28.548C96.9544 26.6831 95.8778 26.0304 93.9586 25.5642C91.2905 24.9581 88.482 25.1912 86.3756 26.3102C85.1117 26.9629 85.0181 26.9162 85.0181 26.0304C85.0181 25.1912 84.7373 25.098 82.4436 25.098H79.8691V31.8581Z" fill="#F4F2ED"/>
<path d="M104.209 36.2872V38.6183H106.549H108.89V36.2872V33.9561H106.549H104.209V36.2872Z" fill="#F4F2ED"/>
</svg>
