<svg width="518" height="507" viewBox="0 0 518 507" fill="none" xmlns="http://www.w3.org/2000/svg">
<path opacity="0.0526316" d="M424.119 417.09C412.632 427.991 379.124 443.822 336.985 419.947C284.311 390.102 271.72 332.408 226.364 295.947C192.888 269.036 98.8014 221.25 35.9081 245.922" stroke="#212730"/>
<path opacity="0.105263" d="M437.785 392.482C427.5 404.523 395.831 423.771 351.427 404.43C295.922 380.255 277.369 324.193 228.45 292.673C192.345 269.409 93.7787 231.72 33.8088 262.83" stroke="#212730"/>
<path opacity="0.157895" d="M449.247 367.141C440.278 380.192 410.793 402.645 364.611 388.052C306.883 369.81 282.572 315.995 230.627 289.761C192.287 270.398 90.3213 243.219 33.9319 280.427" stroke="#212730"/>
<path opacity="0.210526" d="M458.442 341.299C450.886 355.216 423.91 380.627 376.455 370.942C317.137 358.835 287.334 307.856 232.931 287.195C192.777 271.946 88.5291 255.573 36.3379 298.472" stroke="#212730"/>
<path opacity="0.263158" d="M465.328 315.195C459.268 329.826 435.096 357.918 386.889 353.245C326.63 347.405 291.662 299.821 235.397 284.96C193.869 273.991 88.481 268.605 41.0599 316.725" stroke="#212730"/>
<path opacity="0.315789" d="M469.892 289.077C465.395 304.26 444.292 334.725 395.86 335.117C335.321 335.608 295.57 291.939 238.06 283.041C195.613 276.473 90.2394 282.133 48.1081 334.946" stroke="#212730"/>
<path opacity="0.368421" d="M472.144 263.181C469.258 278.751 451.456 311.255 403.33 316.708C343.174 323.523 299.076 284.249 240.951 281.411C198.051 279.316 93.8453 295.96 57.4652 352.887" stroke="#212730"/>
<path opacity="0.421053" d="M472.121 237.75C470.879 253.537 456.571 287.724 409.28 298.177C350.165 311.244 302.204 276.794 244.1 280.047C201.216 282.448 99.3212 309.893 69.091 370.311" stroke="#212730"/>
<path opacity="0.473684" d="M469.884 213.022C470.298 228.852 459.642 264.347 413.702 279.687C356.278 298.861 304.978 269.613 247.533 278.922C205.134 285.793 106.667 323.738 82.9175 386.985" stroke="#212730"/>
<path opacity="0.526316" d="M465.517 189.222C467.584 204.922 460.697 241.336 416.612 261.394C361.506 286.465 307.43 262.74 251.273 278.003C209.825 289.268 115.863 337.297 98.8549 402.681" stroke="#212730"/>
<path opacity="0.578947" d="M459.13 166.568C462.827 181.966 459.784 218.9 418.037 243.456C365.853 274.15 309.594 256.208 255.34 277.257C215.296 292.792 126.869 350.381 116.789 417.184" stroke="#212730"/>
<path opacity="0.631579" d="M450.854 145.263C456.14 160.19 456.974 197.241 418.023 226.026C369.334 262.007 311.507 250.043 259.75 276.648C221.55 296.284 139.627 362.8 136.585 430.291" stroke="#212730"/>
<path opacity="0.684211" d="M440.84 125.5C447.658 139.793 452.36 176.553 416.631 209.252C371.97 250.125 313.209 244.272 264.517 276.14C228.578 299.662 154.057 374.377 158.086 441.816" stroke="#212730"/>
<path opacity="0.736842" d="M429.259 107.453C437.533 120.955 446.052 157.022 413.937 193.276C373.793 238.594 314.742 238.915 269.648 275.699C236.365 302.848 170.062 384.944 181.118 451.592" stroke="#212730"/>
<path opacity="0.789474" d="M416.298 91.2734C425.938 103.837 438.18 138.816 410.031 178.228C374.843 227.494 316.149 233.986 275.147 275.282C244.884 305.762 187.526 394.338 205.488 459.465" stroke="#212730"/>
<path opacity="0.842105" d="M402.16 77.0953C413.061 88.5819 428.893 122.09 405.017 164.229C375.172 216.903 317.478 229.494 281.017 274.85C254.106 308.326 206.321 402.412 230.992 465.306" stroke="#212730"/>
<path opacity="0.894737" d="M387.062 65.0323C399.104 75.3166 418.351 106.986 399.011 151.39C374.835 206.895 318.774 225.448 287.254 274.367C263.989 310.472 226.3 409.038 257.411 469.008" stroke="#212730"/>
<path opacity="0.947368" d="M371.23 55.1735C384.28 64.1428 406.733 93.6271 392.14 139.809C373.899 197.537 320.084 221.848 293.849 273.794C274.487 312.133 247.307 414.099 284.516 470.489" stroke="#212730"/>
<path d="M354.897 47.5818C368.813 55.1379 394.225 82.1137 384.539 129.568C372.432 188.887 321.453 218.69 300.792 273.093C285.543 313.247 269.17 417.495 312.07 469.686" stroke="#212730"/>
</svg>
