<svg width="357" height="348" viewBox="0 0 357 348" fill="none" xmlns="http://www.w3.org/2000/svg">
<path d="M5.15116 89.312C-19.6936 -0.717477 72.3407 -9.88139 138.759 17.3028C177.511 31.2833 202.96 -12.195 250.966 5.15667C298.972 22.5083 241.423 77.166 314.878 105.218C388.333 133.27 352.473 258.78 288.272 260.226C224.071 261.672 241.712 282.783 177.511 331.078C113.31 379.374 5.15131 312.281 32.0463 241.428C58.9413 170.576 32.046 186.77 5.15116 89.312Z" stroke="#212730"/>
<path d="M143.327 159.378C140.46 150.803 153.887 136.97 164.684 142.873C174.57 148.279 184.638 144.633 191.289 147.043C208.8 153.388 202.359 156.747 210.187 164.283C219.712 173.452 224.257 197.464 202.359 197.464C184.349 197.464 189.738 206.212 176.251 210.088C162.765 213.963 147.471 207.366 147.471 189.996C147.471 183.473 148.101 173.659 143.327 159.378Z" stroke="#212730"/>
<path d="M17.711 95.2441C-5.13573 12.6196 79.7524 3.03118 141.114 28.2808C177.242 41.4818 201.293 1.62464 245.539 17.618C290.773 33.969 237.87 83.9631 305.359 110.15C373.003 136.485 340.816 252.768 280.46 254.083C220.458 255.397 236.985 275.384 177.395 319.642C117.804 363.899 18.0878 302.305 42.5378 236.315C66.9879 171.311 42.5949 185.141 17.711 95.2441Z" stroke="#212730"/>
<path d="M30.2704 101.176C9.4217 25.9565 87.1637 15.9436 143.469 39.2587C176.973 51.6802 199.625 15.4441 240.112 30.0791C282.574 45.4295 234.317 90.7601 295.84 115.082C357.671 139.7 329.158 246.756 272.648 247.939C216.845 249.122 232.258 267.986 177.278 308.205C122.298 348.424 31.024 292.33 53.029 231.202C75.034 172.045 53.1434 183.511 30.2704 101.176Z" stroke="#212730"/>
<path d="M42.8304 107.11C23.9797 39.2954 94.5756 28.858 145.824 50.2384C176.704 61.8804 197.958 29.2655 234.686 42.5422C274.375 56.892 230.764 97.559 286.321 120.015C342.341 142.918 317.5 240.746 264.836 241.798C213.233 242.85 227.532 260.589 177.162 296.77C126.793 332.951 43.9606 282.357 63.5206 226.09C83.0806 172.782 63.6924 181.884 42.8304 107.11Z" stroke="#212730"/>
<path d="M55.3905 113.043C38.5378 52.633 101.988 41.7711 148.18 61.2169C176.435 72.0795 196.291 43.0856 229.259 55.004C266.176 68.3532 227.211 104.357 276.802 124.948C327.01 146.134 305.843 234.735 257.025 235.655C209.62 236.576 222.806 253.191 177.046 285.334C131.287 317.477 56.8974 272.382 74.0124 220.978C91.1274 173.518 74.2416 180.255 55.3905 113.043Z" stroke="#212730"/>
<path d="M67.9503 119.276C53.0956 66.2711 109.399 54.9848 150.535 72.496C176.166 82.579 194.624 57.2063 223.832 67.7664C257.977 80.1149 223.659 111.455 267.283 130.181C311.679 149.65 294.185 229.025 249.213 229.813C206.007 230.602 218.079 246.093 176.93 274.198C135.781 302.303 69.8338 262.708 84.5038 216.166C99.1738 174.554 84.7904 178.927 67.9503 119.276Z" stroke="#212730"/>
<path d="M80.5107 125.865C67.654 80.2653 116.812 68.5545 152.891 84.1311C175.898 93.4346 192.957 71.683 218.406 80.8848C249.778 92.2327 220.106 118.909 257.765 135.77C296.349 153.523 282.528 223.67 241.401 224.327C202.395 224.985 213.353 239.352 176.815 263.419C140.276 287.485 82.771 253.39 94.996 211.709C107.221 175.946 95.3399 177.954 80.5107 125.865Z" stroke="#212730"/>
<path d="M93.0714 132.475C82.2128 94.2801 124.224 82.1447 155.247 95.7868C175.63 104.311 191.291 86.1803 212.98 94.0237C241.58 104.371 216.554 126.384 248.247 141.38C281.019 157.416 270.872 218.336 233.591 218.862C198.784 219.388 208.628 232.631 176.7 252.66C144.772 272.688 95.7084 244.092 105.488 207.274C115.268 177.359 105.89 177.002 93.0714 132.475Z" stroke="#212730"/>
<path d="M105.632 139.112C96.7715 108.323 131.637 95.7627 157.603 107.47C175.362 115.215 189.625 100.705 207.555 107.19C233.382 116.537 213.003 133.886 238.729 147.017C265.689 161.337 259.215 213.03 225.78 213.424C195.172 213.819 203.902 225.938 176.584 241.928C149.267 257.919 108.646 234.822 115.981 202.866C123.316 178.799 116.439 176.078 105.632 139.112Z" stroke="#212730"/>
<path d="M118.194 145.792C111.332 122.407 139.051 109.423 159.96 119.196C175.095 126.161 187.96 115.272 202.13 120.399C225.185 128.745 209.452 141.431 229.212 152.697C250.361 165.3 247.56 207.766 217.97 208.029C191.561 208.292 199.178 219.287 176.471 231.239C153.763 243.191 121.585 225.595 126.475 198.501C131.365 180.281 126.991 175.197 118.194 145.792Z" stroke="#212730"/>
<path d="M130.758 152.535C125.894 136.555 146.467 123.146 162.32 130.984C174.831 137.17 186.297 129.903 196.708 133.671C216.991 141.017 205.903 149.039 219.697 158.439C235.034 169.326 235.906 202.565 210.162 202.696C187.953 202.828 194.456 212.699 176.359 220.613C158.262 228.527 134.525 216.43 136.97 194.198C139.415 181.827 137.544 174.378 130.758 152.535Z" stroke="#212730"/>
</svg>
