<svg width="388" height="395" viewBox="0 0 388 395" fill="none" xmlns="http://www.w3.org/2000/svg">
<path d="M152.914 24.2373C142.684 -2.37953 92.073 -15.5234 100.425 37.473C101.794 46.1627 101.932 61.1254 100.425 79.3382C99.0442 96.0222 72.016 105.151 63.7192 126.709C50.7074 160.517 99.3575 184.082 91.6155 201.854C81.4755 225.132 50.4272 235.232 33.2535 247.967C17.0863 259.955 6.78829 279.192 2.83423 298.969C-4.10266 333.666 8.48609 370.026 43.164 371.836C60.5236 372.741 83.4186 364.988 112.171 344.034C125.026 334.665 136.361 326.944 146.436 320.701C172.365 304.632 165.394 342.641 196.227 344.034C213.795 344.827 232.144 312.014 246.035 329.517C255.912 341.962 267.246 357.063 283.432 372.588C311.858 399.852 347.398 403.866 352.425 364.955C354.798 346.586 350.371 318.652 335.187 279.083C325.47 253.76 349.64 254.653 352.425 222.204C355.21 189.754 332.437 174.79 348.922 161.36L349.252 161.091C361.818 150.855 375.219 139.939 382.537 118.971C388.842 100.909 388.239 83.0208 382.537 69.2751C376.435 54.5642 364.492 44.5986 348.922 44.2451C333.3 43.8904 314.028 53.2128 293.343 77.1285C279.704 92.8965 270.468 56.2067 246.035 59.9573C221.601 63.7079 218.205 99.1089 203.568 88.8412C178.142 71.0054 164.895 55.4103 152.914 24.2373Z" stroke="#212730"/>
<path d="M202.267 169.426C200.71 165.34 193.454 166.412 193.087 170.841C192.669 175.883 195.217 182.453 194.923 187.508C194.354 197.266 190.907 200.044 184.042 205.187C181.582 207.027 180.015 209.981 179.413 213.017C178.357 218.343 180.273 223.925 185.551 224.203C188.192 224.342 191.677 223.152 196.052 219.935C198.009 218.497 199.734 217.311 201.267 216.353C207.941 211.847 214.153 215.378 216.425 217.706C217.928 219.617 219.653 221.935 222.116 224.318C226.442 228.504 232.993 227.956 232.616 223.147C232.083 216.353 220.484 190.994 232.616 186.572C238.251 184.518 238.066 179.865 237.198 177.755C236.27 175.496 234.452 173.967 232.083 173.912C229.705 173.858 225.767 177.755 223.624 178.96C215.715 183.411 208.657 185.712 202.267 169.426Z" stroke="#212730"/>
<path d="M108.887 49.0677C101.475 0.822541 147.725 12.8491 157.104 37.2499C168.586 67.0812 181.281 81.0623 205.135 96.888C218.551 106.175 221.779 73.8518 244.151 70.3385C266.524 66.8253 275.071 100.12 287.588 85.7761C306.625 64.022 324.326 55.6784 338.624 56.2049C352.83 56.6217 363.721 65.8412 369.223 79.3773C374.361 92.0353 374.785 108.462 368.793 124.987C360.972 144.63 349.678 156.857 338.207 166.854C323.225 179.29 343.805 193.026 341.077 222.568C338.349 252.11 316.11 251.216 324.755 274.066C338.347 309.852 342.217 335.058 339.922 351.597C335.245 386.895 302.714 383.11 276.608 358.25C261.637 344.07 251.031 330.353 241.741 319.233C228.963 303.395 212.111 333.356 195.948 332.764C167.695 331.642 173.859 297.16 150.107 311.841C140.782 317.583 130.329 324.632 118.512 333.149C91.8712 352.189 70.8653 358.739 55.1663 357.434C23.641 355.652 12.2361 322.435 18.6183 290.745C22.2865 272.63 31.7479 255.02 46.57 244.03C62.8203 231.979 91.3839 222.54 100.662 200.481C107.719 184.083 63.4027 162.381 75.1919 131.359C82.6911 111.484 107.235 102.916 108.51 87.5094C109.898 70.7393 109.946 57.0018 108.887 49.0677Z" stroke="#212730"/>
<path d="M117.729 61.1516C111.267 17.8158 153.089 28.6855 161.603 50.7899C172.57 79.1786 184.694 91.5003 206.942 105.265C219.116 113.542 222.172 84.4017 242.45 81.1375C262.729 77.8733 270.575 107.663 281.953 94.7912C299.313 75.2701 315.416 67.9323 328.37 68.6284C341.192 69.107 351.014 77.5497 355.908 89.8665C360.475 101.395 360.72 116.306 355.048 131.241C346.801 149.31 337.801 162.795 327.537 172.44C314.08 183.841 332.437 196.303 329.77 222.841C327.103 249.38 306.828 248.487 314.387 268.79C326.366 300.676 329.676 323.071 327.46 337.728C323.14 369.296 293.667 365.754 269.917 343.378C256.185 330.59 246.323 318.302 237.633 308.544C225.986 294.422 210.655 321.433 195.921 321.044C170.289 320.196 175.637 289.354 154.098 302.599C145.535 307.821 135.979 314.173 125.218 321.812C100.728 338.874 81.6416 344.201 67.6261 342.503C39.2997 340.752 29.0954 310.789 34.9135 282.211C38.2904 265.817 46.9015 249.892 60.3567 239.936C75.66 228.61 101.697 219.862 110.1 199.096C116.463 184.127 76.5439 164.36 87.0933 136.227C93.7839 118.099 115.808 110.122 116.976 96.0429C118.242 80.7709 118.476 68.3039 117.729 61.1516Z" stroke="#212730"/>
<path d="M126.189 72.7469C120.667 34.1625 158.125 43.9147 165.787 63.8031C176.257 90.8495 187.83 101.557 208.505 113.312C219.456 120.608 222.345 94.5458 240.561 91.519C258.777 88.4922 265.934 114.887 276.19 103.439C291.9 86.0797 306.431 79.7206 318.061 80.5885C329.517 81.1304 338.287 88.8269 342.581 99.9688C346.583 110.41 346.649 123.858 341.289 137.257C332.601 153.817 325.884 168.605 316.81 177.933C304.857 188.339 321.019 199.572 318.409 223.204C315.799 246.835 297.456 245.941 303.941 263.772C314.326 291.874 317.079 311.541 314.941 324.369C310.97 352.322 284.51 349.01 263.08 329.039C250.564 317.595 241.431 306.691 233.327 298.258C222.793 285.802 208.96 309.96 195.632 309.772C172.582 309.195 177.122 281.88 157.762 293.738C149.949 298.458 141.276 304.138 131.554 310.926C109.175 326.073 91.9794 330.197 79.626 328.1C54.4548 326.376 45.4354 299.556 50.6985 273.986C53.7893 259.255 61.5635 244.956 73.6726 235.998C88.0528 225.357 111.604 217.269 119.143 197.722C124.822 184.128 89.2396 166.224 98.5655 140.878C104.458 124.432 123.995 117.016 125.057 104.215C126.205 90.3853 126.625 79.1437 126.189 72.7469Z" stroke="#212730"/>
<path d="M135.026 84.3415C130.456 50.51 163.482 59.1445 170.279 76.8164C180.233 102.523 191.234 111.616 210.3 121.359C220.01 127.675 222.725 104.69 238.847 101.901C254.968 99.1114 261.423 122.109 270.539 112.086C284.572 96.8895 297.505 91.5097 307.789 92.5497C317.861 93.1551 325.561 100.105 329.247 110.072C332.678 119.425 332.566 131.412 327.526 143.274C318.413 158.326 313.99 174.42 306.123 183.432C295.695 192.844 309.633 202.849 307.085 223.572C304.537 244.296 288.158 243.4 293.558 258.757C302.33 283.074 304.522 300.011 302.464 311.01C298.85 335.348 275.449 332.265 256.378 314.698C245.1 304.6 236.711 295.08 229.209 287.974C219.807 277.183 207.496 298.488 195.598 298.502C175.17 298.196 178.894 274.409 161.748 284.879C154.697 289.098 146.923 294.105 138.257 300.041C118.03 313.273 102.755 316.193 92.0857 313.696C70.1146 311.998 62.2962 288.323 66.9948 265.761C69.7942 252.692 76.7175 240.02 87.4592 232.061C100.891 222.103 121.914 214.676 128.578 196.346C133.561 184.127 102.379 168.086 110.464 145.528C115.548 130.764 132.564 123.909 133.519 112.385C134.546 99.9985 135.151 89.9824 135.026 84.3415Z" stroke="#212730"/>
<path d="M143.86 96.483C140.24 67.4799 168.835 74.9775 174.767 90.3933C184.202 114.701 194.63 122.159 212.085 129.87C220.553 135.19 223.095 115.336 237.121 112.79C251.147 110.244 256.9 129.794 264.876 121.218C277.23 108.218 288.564 103.829 297.503 105.039C306.189 105.706 312.821 111.895 315.898 120.665C318.758 128.909 318.467 139.406 313.75 149.705C304.214 163.215 302.082 180.579 295.422 189.254C286.519 197.651 298.235 206.404 295.748 224.173C293.262 241.943 278.848 241.047 283.164 253.896C290.324 274.374 291.954 288.544 289.978 297.688C286.721 318.356 266.38 315.511 249.668 300.387C239.629 291.657 231.986 283.543 225.085 277.779C216.815 268.678 206.027 287.082 195.56 287.297C177.755 287.263 180.663 267.058 165.731 276.116C159.445 279.824 152.568 284.147 144.959 289.218C126.886 300.506 113.532 302.216 104.547 299.325C85.7758 297.656 79.1582 277.179 83.2923 257.676C85.8 246.298 91.8721 235.282 101.246 228.338C113.727 219.087 132.222 212.337 138.009 195.267C142.297 184.45 115.515 170.308 122.361 150.587C126.636 137.539 141.13 131.261 141.978 121.039C142.883 110.124 143.674 101.356 143.86 96.483Z" stroke="#212730"/>
<path d="M152.312 108.078C149.634 83.8298 173.858 90.2094 178.936 103.408C187.873 126.378 197.749 132.22 213.631 137.917C220.873 142.257 223.247 125.482 235.207 123.173C247.167 120.864 252.23 137.015 259.082 129.866C269.784 119.029 279.542 115.62 287.155 117.003C294.474 117.734 300.05 123.176 302.526 130.771C304.82 137.927 304.35 146.961 299.945 155.723C289.967 167.725 290.122 186.401 284.654 194.761C277.259 202.163 286.775 209.687 284.345 224.547C281.916 239.407 269.438 238.51 272.677 248.884C278.24 265.574 279.313 277.013 277.413 284.325C274.507 301.376 257.183 298.76 242.796 286.042C233.975 278.658 227.062 271.928 220.748 267.492C213.593 260.057 204.306 275.608 195.247 276.025C180.028 276.262 182.127 259.587 169.378 267.257C163.842 270.463 157.85 274.113 151.282 278.333C135.323 287.703 123.864 288.208 116.543 284.916C100.934 283.273 95.5032 265.942 99.0813 249.449C101.303 239.734 106.536 230.345 114.561 224.4C126.119 215.833 142.123 209.742 147.046 193.888C150.648 184.447 128.211 172.168 133.83 155.236C137.305 143.87 149.309 138.153 150.051 129.209C150.837 119.736 151.814 112.194 152.312 108.078Z" stroke="#212730"/>
<path d="M161.135 119.672C159.406 100.183 179.194 105.444 183.405 116.424C191.82 138.061 201.118 142.285 215.383 145.966C221.381 149.323 223.581 135.63 233.443 133.558C243.305 131.486 247.664 144.235 253.375 138.512C262.396 129.841 270.553 127.414 276.819 128.97C282.751 129.765 287.258 134.461 289.125 140.88C290.847 146.948 290.2 154.519 286.119 161.743C275.726 172.236 278.167 192.235 273.906 200.282C268.037 206.69 275.329 212.984 272.963 224.932C270.597 236.881 260.087 235.981 262.243 243.877C266.194 256.776 266.706 265.48 264.888 270.96C262.34 284.389 248.08 282.002 236.055 271.692C228.477 265.654 222.311 260.311 216.602 257.204C210.581 251.438 202.818 264.132 195.192 264.752C182.599 265.261 183.883 252.121 173.352 258.401C168.58 261.105 163.489 264.082 157.979 267.449C144.179 274.901 134.643 274.197 129.007 270.502C116.599 268.884 112.37 254.702 115.383 241.219C117.312 233.168 121.693 225.408 128.349 220.463C138.951 212.577 152.422 207.145 156.468 192.506C159.374 184.44 141.341 174.025 145.72 159.883C148.386 150.2 157.867 145.043 158.501 137.376C159.165 129.347 160.327 123.031 161.135 119.672Z" stroke="#212730"/>
<path d="M169.711 131.266C168.924 116.542 184.382 120.683 187.75 129.443C195.691 149.754 204.466 152.356 217.195 154.016C221.982 156.388 224.021 145.781 231.838 143.945C239.656 142.11 243.335 151.453 247.935 147.159C255.325 140.655 261.926 139.212 266.879 140.943C271.456 141.803 274.917 145.753 276.186 150.995C277.345 155.974 276.516 162.081 272.735 167.766C261.863 176.751 266.611 198.088 263.535 205.825C259.161 211.239 264.268 216.302 261.951 225.335C259.633 234.368 251.035 233.466 252.116 238.879C254.475 247.98 254.428 253.945 252.682 257.588C250.477 267.391 239.203 265.233 229.475 257.332C223.096 252.643 217.644 248.688 212.506 246.914C207.586 242.819 201.306 252.654 195.07 253.477C185.036 254.26 185.51 244.658 177.138 249.548L176.906 249.675C172.944 251.838 168.8 254.1 164.404 256.565C152.685 262.097 145.021 260.179 141.04 256.077C131.769 254.484 128.72 243.453 131.183 232.986C132.83 226.6 136.383 220.47 141.706 216.525C151.414 209.319 162.426 204.546 165.616 191.118C167.842 184.427 154.117 175.878 157.278 164.527C159.149 156.527 166.157 151.929 166.688 145.541C167.234 138.956 168.587 133.868 169.711 131.266Z" stroke="#212730"/>
<path d="M178.513 143.421C178.675 133.527 189.684 136.53 192.182 143.031C199.59 161.925 207.774 162.894 218.871 162.525C222.41 163.904 224.272 156.428 229.985 154.838C235.697 153.248 238.669 159.142 242.123 156.296C247.824 151.989 252.817 151.535 256.418 153.433C259.606 154.354 261.993 157.54 262.654 161.583C263.241 165.451 262.236 170.067 258.783 174.186C247.513 181.624 254.535 204.201 252.669 211.593C249.824 215.989 252.704 219.799 250.453 225.876C248.203 231.954 241.581 231.054 241.579 233.961C242.325 239.225 241.719 242.424 240.057 244.215C238.214 250.348 230.013 248.429 222.657 242.973C217.527 239.653 212.829 237.104 208.302 236.669C204.521 234.263 199.772 241.195 194.975 242.218C187.577 243.271 187.237 237.251 181.09 240.728C177.827 242.418 174.512 244.036 171.092 245.684C161.544 249.27 155.812 246.149 153.518 241.659C147.456 240.098 145.61 232.267 147.506 224.86C148.859 220.168 151.556 215.696 155.503 212.767C164.244 206.275 172.712 202.182 175.022 190.024C176.551 184.739 167.241 178.093 169.159 169.584C170.22 163.304 174.7 159.286 175.123 154.204C175.547 149.093 177.081 145.254 178.513 143.421Z" stroke="#212730"/>
<path d="M187.445 155.031C188.551 149.933 195.145 151.807 196.78 156.069C203.668 173.588 211.275 172.931 220.762 170.54C223.063 170.929 224.751 166.561 228.376 165.212C232 163.862 234.272 166.332 236.589 164.923C240.617 162.798 244.016 163.329 246.277 165.398C248.085 166.381 249.408 168.812 249.463 171.668C249.482 174.435 248.3 177.574 245.17 180.142C233.49 186.052 242.784 209.911 242.118 216.974C240.793 220.363 241.46 222.931 239.273 226.075C237.086 229.219 232.423 228.318 231.343 228.733C230.485 230.182 229.322 230.631 227.742 230.579C226.255 233.066 221.104 231.381 216.099 228.351C212.205 226.389 208.253 225.236 204.327 226.136C201.675 225.409 198.443 229.461 195.073 230.686C190.288 232.01 189.138 229.547 185.197 231.624C182.696 232.806 180.277 233.745 177.911 234.534C170.511 236.189 166.694 231.861 166.076 226.976C163.201 225.442 162.55 220.787 163.882 216.417C164.944 213.403 166.793 210.574 169.377 208.654C177.166 202.859 183.114 199.436 184.551 188.521C185.387 184.626 180.459 179.864 181.143 174.171C181.399 169.592 183.369 166.144 183.684 162.354C183.988 158.702 185.705 156.102 187.445 155.031Z" stroke="#212730"/>
</svg>
