<svg width="54" height="54" viewBox="0 0 54 54" fill="none" xmlns="http://www.w3.org/2000/svg">
<path fill-rule="evenodd" clip-rule="evenodd" d="M22.3687 5.1875C18.805 5.1875 15.9161 7.93136 15.9161 11.3161V15.559H27.084V16.7375H10.9526C7.38891 16.7375 4.5 19.4814 4.5 22.8661V32.059C4.5 35.4437 7.38891 38.1875 10.9526 38.1875H14.6752V33.0019C14.6752 29.6172 17.5641 26.8732 21.1278 26.8732H33.0402C36.0556 26.8732 38.5 24.5515 38.5 21.6876V11.3161C38.5 7.93136 35.6112 5.1875 32.0475 5.1875H22.3687ZM20.8797 12.7304C22.1132 12.7304 23.1132 11.7806 23.1132 10.6089C23.1132 9.43731 22.1132 8.4875 20.8797 8.4875C19.646 8.4875 18.646 9.43731 18.646 10.6089C18.646 11.7806 19.646 12.7304 20.8797 12.7304Z" fill="#F4F2ED"/>
<path fill-rule="evenodd" clip-rule="evenodd" d="M32.1569 50.1875C35.6158 50.1875 38.4198 47.4437 38.4198 44.059V39.8161H27.5802V38.6376H43.2373C46.6962 38.6376 49.5 35.8936 49.5 32.5089V23.316C49.5 19.9313 46.6962 17.1875 43.2373 17.1875H39.6241V22.3732C39.6241 25.758 36.8201 28.5018 33.3614 28.5018H21.7993C18.8725 28.5018 16.5 30.8235 16.5 33.6874V44.059C16.5 47.4437 19.304 50.1875 22.7627 50.1875H32.1569ZM33.6023 42.6447C32.4048 42.6447 31.4343 43.5944 31.4343 44.7661C31.4343 45.9377 32.4048 46.8875 33.6023 46.8875C34.7995 46.8875 35.7701 45.9377 35.7701 44.7661C35.7701 43.5944 34.7995 42.6447 33.6023 42.6447Z" fill="#F4F2ED"/>
</svg>
