<svg width="54" height="54" viewBox="0 0 54 54" fill="none" xmlns="http://www.w3.org/2000/svg">
<g clip-path="url(#clip0_386_4454)">
<path d="M25.2644 0.514262C25.1504 0.524623 24.7878 0.560883 24.4614 0.586784C16.9336 1.26537 9.8825 5.32656 5.41662 11.5686C2.92981 15.0392 1.3393 18.9761 0.738319 23.146C0.525904 24.6016 0.5 25.0316 0.5 27.0052C0.5 28.9788 0.525904 29.4087 0.738319 30.8643C2.17859 40.8153 9.2608 49.1759 18.8661 52.2736C20.5861 52.8279 22.3994 53.206 24.4614 53.434C25.2644 53.522 28.7356 53.522 29.5386 53.434C33.0979 53.0403 36.1131 52.1597 39.0869 50.6419C39.5428 50.4088 39.6309 50.3466 39.5687 50.2948C39.5273 50.2637 37.5845 47.6582 35.2531 44.5087L31.0152 38.7847L25.7048 30.9265C22.7828 26.6063 20.3789 23.0735 20.3582 23.0735C20.3374 23.0683 20.3167 26.5597 20.3064 30.8229C20.2908 38.2874 20.2856 38.5878 20.1924 38.764C20.0577 39.0178 19.9541 39.1214 19.7365 39.2354C19.5707 39.3182 19.4256 39.3338 18.6433 39.3338H17.747L17.5087 39.1836C17.3533 39.0851 17.2393 38.9556 17.1616 38.8054L17.0528 38.5723L17.0631 28.1862L17.0787 17.795L17.2393 17.593C17.3222 17.4842 17.4983 17.3443 17.6227 17.277C17.8351 17.1734 17.918 17.163 18.8143 17.163C19.8712 17.163 20.0473 17.2045 20.3219 17.5049C20.3996 17.5878 23.275 21.9183 26.7151 27.1347C30.1551 32.351 34.8593 39.4736 37.17 42.9702L41.3665 49.3262L41.5789 49.1863C43.4595 47.9638 45.449 46.2233 47.0239 44.4103C50.376 40.5615 52.5364 35.8683 53.2617 30.8643C53.4741 29.4087 53.5 28.9788 53.5 27.0052C53.5 25.0316 53.4741 24.6016 53.2617 23.146C51.8214 13.1951 44.7392 4.83445 35.1339 1.73676C33.4398 1.18767 31.6369 0.809527 29.6163 0.581604C29.119 0.529803 25.6944 0.472822 25.2644 0.514262ZM36.1131 16.5414C36.3618 16.6658 36.5638 16.904 36.6364 17.1527C36.6778 17.2874 36.6882 20.1675 36.6778 26.6581L36.6623 35.9719L35.0199 33.4544L33.3724 30.9369V24.1665C33.3724 19.7893 33.3932 17.3288 33.4242 17.2097C33.5071 16.9196 33.6885 16.6917 33.9371 16.557C34.1496 16.4482 34.2273 16.4378 35.0407 16.4378C35.8074 16.4378 35.9421 16.4482 36.1131 16.5414Z" fill="#F4F2ED"/>
</g>
<defs>
<clipPath id="clip0_386_4454">
<rect width="53" height="53" fill="white" transform="translate(0.5 0.5)"/>
</clipPath>
</defs>
</svg>
