<svg width="54" height="54" viewBox="0 0 54 54" fill="none" xmlns="http://www.w3.org/2000/svg">
<path d="M48.0145 3.8125H5.9855C4.78539 3.8125 3.8125 4.78539 3.8125 5.9855V48.0145C3.8125 49.2146 4.78539 50.1875 5.9855 50.1875H48.0145C49.2146 50.1875 50.1875 49.2146 50.1875 48.0145V5.9855C50.1875 4.78539 49.2146 3.8125 48.0145 3.8125Z" fill="#F4F2ED"/>
<path fill-rule="evenodd" clip-rule="evenodd" d="M30.7184 39.851V44.9323C31.6417 45.388 32.6256 45.7087 33.6401 45.8847C34.8123 46.1011 36.0023 46.2076 37.1944 46.2027C38.3562 46.2082 39.5154 46.0911 40.6526 45.8532C41.6737 45.6469 42.6479 45.2538 43.5262 44.6938C44.3416 44.1675 45.0137 43.447 45.4822 42.597C46.3213 40.837 46.432 38.8169 45.7903 36.9757C45.5195 36.2872 45.116 35.6586 44.6028 35.1257C44.0519 34.559 43.4261 34.0703 42.7428 33.6731C41.9562 33.2124 41.1388 32.8062 40.2965 32.4575C39.634 32.1825 39.0378 31.9153 38.5078 31.6558C38.037 31.4305 37.5865 31.165 37.1612 30.8625C36.8281 30.629 36.5388 30.3386 36.3066 30.0046C36.106 29.7013 36.0015 29.3446 36.0068 28.981C36.0024 28.6464 36.0957 28.3177 36.2752 28.0353C36.4701 27.7397 36.7301 27.4927 37.0354 27.3131C37.4085 27.0935 37.8145 26.9352 38.2378 26.8444C38.7575 26.729 39.2888 26.6734 39.8212 26.6788C40.2689 26.6803 40.7161 26.7124 41.1594 26.7749C41.6382 26.8396 42.112 26.9376 42.5772 27.068C43.0504 27.1992 43.5132 27.3653 43.9618 27.5649C44.3971 27.7589 44.8135 27.9929 45.2057 28.2638V23.522C44.3893 23.2131 43.5427 22.9911 42.6799 22.8595C41.6379 22.7079 40.5859 22.6365 39.533 22.6458C38.3821 22.6396 37.2345 22.7703 36.1145 23.0351C35.1021 23.2664 34.1395 23.6776 33.2724 24.2491C32.4669 24.7857 31.8018 25.5075 31.3329 26.3542C30.836 27.2944 30.5901 28.3469 30.6191 29.41C30.5824 30.8158 31.0454 32.189 31.9258 33.2856C33.006 34.5014 34.3681 35.4335 35.8926 36.0002C36.5882 36.2873 37.2369 36.5683 37.8386 36.8432C38.3816 37.0848 38.9035 37.3712 39.3988 37.6995C39.7984 37.9594 40.1493 38.2873 40.4356 38.6684C40.6874 39.014 40.821 39.4317 40.8166 39.8592C40.8189 40.1797 40.7366 40.495 40.5781 40.7735C40.402 41.0727 40.1544 41.3237 39.8576 41.5039C39.4862 41.7303 39.0799 41.8937 38.6552 41.9875C38.1019 42.1112 37.536 42.1696 36.9691 42.1614C35.8566 42.1594 34.753 41.9632 33.708 41.5817C32.6162 41.1878 31.6037 40.6016 30.7184 39.851ZM22.1821 27.2005H28.8071V23.0152H10.335V27.2005H16.9301V45.84H22.1821V27.2005Z" fill="#0B0B0B"/>
</svg>
