<svg width="54" height="54" viewBox="0 0 54 54" fill="none" xmlns="http://www.w3.org/2000/svg">
<path d="M51.6144 23.4018C50.5992 22.859 49.352 22.5351 48.0121 22.5351C47.8581 22.5351 47.7057 22.5392 47.555 22.5472L47.5748 22.5459C46.8362 22.5472 46.114 22.601 45.4118 22.7004L45.488 22.691C45.0988 20.8675 43.7903 19.3383 41.9734 18.4031L41.9419 18.3883L41.2314 18.0551L40.7643 18.6033C40.2078 19.2913 39.7723 20.0922 39.5122 20.9482L39.499 21.0006C39.3516 21.4359 39.2671 21.9358 39.2671 22.4518C39.2671 23.5685 39.6646 24.6085 40.3503 25.486L40.3337 25.4632C39.2787 25.8649 38.0464 26.1189 36.7496 26.1673H36.7281H4.05191C3.19728 26.1686 2.50497 26.729 2.50166 27.421C2.5 27.4963 2.5 27.5863 2.5 27.6763C2.5 30.0292 3.02503 32.2827 3.98566 34.3642L3.93266 34.2325C4.85684 36.4268 6.60253 38.2301 8.86828 39.4476L8.91466 39.4704C11.8032 40.6838 15.2217 41.3947 18.8439 41.3947C19.1867 41.3947 19.5263 41.3879 19.8658 41.3758L19.8178 41.3772C19.8476 41.3772 19.8823 41.3772 19.9171 41.3772C22.0239 41.3772 24.0826 41.2146 26.0784 40.9042L25.8747 40.9311C28.8476 40.4796 31.4976 39.6693 33.8992 38.5486L33.7766 38.601C35.8585 37.6133 37.6373 36.4228 39.1512 35.0374L39.171 35.0186C41.3656 32.9223 43.151 30.4753 44.3799 27.8093L44.4478 27.6414H44.905C44.9961 27.6441 45.1021 27.6467 45.2081 27.6467C47.2386 27.6467 49.0837 27.0004 50.4468 25.9469L50.4435 25.9496C51.0679 25.4685 51.5631 24.884 51.8894 24.2283L51.9043 24.196L52.1063 23.7136L51.6144 23.4018ZM7.07953 25.3933H11.462C11.6723 25.3919 11.8429 25.2535 11.8429 25.0829V21.9183C11.8429 21.7477 11.6723 21.6079 11.462 21.6066H7.07953C6.86919 21.6079 6.69859 21.7463 6.69859 21.917V25.0829C6.69859 25.2535 6.86919 25.3933 7.07953 25.3933ZM13.1149 25.3933H17.494C17.7044 25.3933 17.8766 25.2549 17.8766 25.0829V21.9183C17.8766 21.7477 17.706 21.6079 17.4957 21.6066H13.1133C12.9013 21.6066 12.729 21.7463 12.729 21.9183V25.0829C12.7307 25.2549 12.9029 25.3933 13.1149 25.3933ZM19.2397 25.3933H23.6222C23.8325 25.3919 24.0031 25.2535 24.0031 25.0829V21.9183C24.0031 21.7477 23.8325 21.6079 23.6222 21.6066H19.2397C19.0294 21.6079 18.8588 21.7463 18.8588 21.917V25.0829C18.8588 25.2535 19.0294 25.3933 19.2414 25.3933H19.2397ZM25.295 25.3933H29.6724C29.8844 25.3933 30.055 25.2549 30.0567 25.0829V21.9183C30.0567 21.7463 29.8844 21.6066 29.6724 21.6066H25.295C25.0846 21.6066 24.9124 21.745 24.9124 21.917V25.0829C24.9124 25.2535 25.083 25.3933 25.2933 25.3933C25.2933 25.3933 25.2933 25.3933 25.295 25.3933ZM13.1149 20.8407H17.494C17.706 20.8393 17.8766 20.7009 17.8766 20.5289V17.3644C17.8766 17.1937 17.706 17.054 17.494 17.054H13.1149C12.9029 17.054 12.7323 17.1924 12.7307 17.3644V20.5289C12.7323 20.7009 12.9029 20.8393 13.1149 20.8407ZM19.2397 20.8407H23.6222C23.8325 20.8393 24.0031 20.6996 24.0031 20.5289V17.3644C24.0031 17.1937 23.8325 17.054 23.6205 17.054H19.243C19.0327 17.054 18.8604 17.1924 18.8604 17.3644V20.5289C18.8621 20.7009 19.031 20.8393 19.243 20.8407H19.2397ZM25.295 20.8407H29.6724C29.8844 20.8393 30.055 20.7009 30.0567 20.5289V17.3644C30.055 17.1924 29.8844 17.054 29.6724 17.054H25.295C25.0846 17.054 24.9124 17.1924 24.9124 17.3644V20.5289C24.9124 20.7009 25.083 20.8393 25.295 20.8407ZM25.295 16.288H29.6724C29.8844 16.288 30.0567 16.1483 30.0567 15.9763V12.8104C30.055 12.6384 29.8844 12.5 29.6724 12.5H25.295C25.0846 12.5 24.9124 12.6384 24.9124 12.8104V15.9763C24.9124 16.1469 25.083 16.2867 25.2933 16.2867C25.2933 16.2867 25.2933 16.2867 25.295 16.2867V16.288ZM31.4016 25.3933H35.7807C35.9927 25.3933 36.1633 25.2549 36.1649 25.0829V21.9183C36.1649 21.7463 35.9927 21.6066 35.7807 21.6066H31.4016C31.1896 21.6066 31.019 21.745 31.019 21.917V25.0829C31.019 25.2535 31.1896 25.3933 31.4016 25.3933Z" fill="#F4F2ED"/>
</svg>
