<svg width="90" height="90" viewBox="0 0 90 90" fill="none" xmlns="http://www.w3.org/2000/svg">
<path d="M84.5639 44C84.5639 44 82.7676 42.2981 82.3657 41.9003L46.5588 6.53639C46.5588 6.53639 45.3754 5.29865 44.7724 5.29865C44.2365 5.29865 42.9861 6.53639 42.9861 6.53639L25.1223 24.2183L7.25859 41.9003C6.85666 42.2981 5.47222 43.6685 5.47222 43.6685C5.47222 43.6685 4.31104 43.0054 4.31104 42.4749C4.24405 41.8782 4.51201 41.2814 4.91394 40.8836L40.2841 5.60807C41.49 4.41453 43.0977 3 44.7724 3C46.4472 3 47.9209 4.41453 49.1267 5.60807L84.6979 41.0162C85.0998 41.414 85.3008 41.9445 85.3008 42.5412C85.3008 43.138 84.5639 44 84.5639 44Z" fill="#D946FF"/>
<path d="M55.2933 86H51.7957V82.8938V77.9719C51.7957 73.7719 50.0469 70.25 44.8009 70.3594C39.5541 70.25 37.8053 73.7719 37.8053 77.9063V83.375V86H34.528H18.9623C15.6178 86 13.3221 82.9594 13.3221 79.6125L13.3226 45.75C13.3226 44.6344 13.0822 44 14.197 44C15.3119 44 15.0714 44.6344 15.0714 45.75V79.6125C15.0714 81.7125 16.8197 84.25 18.5685 84.25H36.0565V78.125C36.0565 71.7594 38.5052 68.5 44.8009 68.5C51.0965 68.5 53.5445 71.6719 53.5445 77.9719V84.25H71.0325C72.7813 84.25 74.5301 82.5 74.5301 79.6125V45.75C74.5301 44.6344 74.2897 44 75.4045 44C76.5194 44 76.2789 44.6344 76.2789 45.75V79.6125C76.2789 82.9594 74.3771 86 71.0325 86H55.2933Z" fill="#D946FF"/>
</svg>
