<svg width="90" height="90" viewBox="0 0 90 90" fill="none" xmlns="http://www.w3.org/2000/svg">
<path d="M30.0576 63.9512C29.8889 63.9507 29.723 63.9063 29.5753 63.8222C19.3898 58.0224 13.0625 46.9538 13.0625 34.9352C13.0625 16.7481 27.418 1.95117 45.0625 1.95117C45.6152 1.95117 46.0625 2.41224 46.0625 2.98188C46.0625 3.55152 45.6152 4.01259 45.0625 4.01259C28.5205 4.01259 15.0624 17.8843 15.0624 34.9352C15.0624 46.2029 20.9941 56.5809 30.5419 62.0184C30.6569 62.0837 30.7582 62.1717 30.8401 62.2774C30.922 62.3831 30.9829 62.5044 31.0193 62.6343C31.0556 62.7643 31.0668 62.9004 31.0521 63.0348C31.0373 63.1692 30.997 63.2993 30.9335 63.4176C30.8475 63.5796 30.7208 63.7146 30.5667 63.8085C30.4125 63.9024 30.2367 63.9517 30.0576 63.9512Z" fill="#D946FF"/>
<path d="M59.7124 63.6845C59.5298 63.6849 59.3504 63.6357 59.1933 63.5422C59.0361 63.4487 58.9069 63.3144 58.8193 63.1533C58.7545 63.0355 58.7134 62.906 58.6983 62.7722C58.6833 62.6385 58.6946 62.503 58.7316 62.3737C58.7686 62.2443 58.8306 62.1235 58.9141 62.0182C58.9975 61.913 59.1008 61.8252 59.2179 61.7601C68.9656 56.346 75.0209 46.0147 75.0209 34.7934C75.0209 17.816 61.2835 4.00373 44.3962 4.00373C43.8318 4.00373 43.3751 3.54464 43.3751 2.97745C43.3751 2.41026 43.8318 1.95117 44.3962 1.95117C62.408 1.95117 77.0625 16.6844 77.0625 34.7934C77.0625 46.7603 70.6027 57.7813 60.2071 63.5561C60.0492 63.6424 59.8797 63.6845 59.7124 63.6845ZM29.0833 79.9512C28.9492 79.9513 28.8164 79.9248 28.6925 79.8733C28.5686 79.8217 28.4561 79.7461 28.3613 79.6508C28.2664 79.5555 28.1913 79.4423 28.14 79.3177C28.0887 79.1932 28.0624 79.0597 28.0625 78.9249V62.6582C28.0625 62.0908 28.5191 61.6317 29.0833 61.6317C29.6474 61.6317 30.1041 62.0908 30.1041 62.6582V78.9249C30.1042 79.0597 30.0779 79.1932 30.0267 79.3178C29.9754 79.4424 29.9002 79.5556 29.8054 79.6509C29.7106 79.7462 29.598 79.8218 29.4741 79.8733C29.3502 79.9249 29.2174 79.9513 29.0833 79.9512Z" fill="#D946FF"/>
<path d="M61.0625 79.9512C60.9312 79.9513 60.8011 79.9252 60.6797 79.8745C60.5583 79.8238 60.4481 79.7494 60.3552 79.6557C60.2623 79.5619 60.1886 79.4505 60.1384 79.328C60.0882 79.2054 60.0624 79.0741 60.0625 78.9415V62.9611C60.0624 62.8285 60.0882 62.6971 60.1384 62.5746C60.1886 62.452 60.2623 62.3407 60.3552 62.2469C60.448 62.1531 60.5583 62.0787 60.6797 62.0279C60.8011 61.9772 60.9311 61.9511 61.0625 61.9512C61.1939 61.9511 61.3239 61.9772 61.4453 62.0279C61.5667 62.0787 61.677 62.1531 61.7698 62.2469C61.8627 62.3407 61.9364 62.452 61.9866 62.5746C62.0368 62.6971 62.0626 62.8285 62.0625 62.9611V78.9415C62.0626 79.0741 62.0368 79.2054 61.9866 79.328C61.9364 79.4505 61.8627 79.5619 61.7698 79.6557C61.6769 79.7494 61.5667 79.8238 61.4453 79.8745C61.3239 79.9252 61.1938 79.9513 61.0625 79.9512Z" fill="#D946FF"/>
<path d="M61 67.9513H29.125C28.9854 67.9514 28.8472 67.9256 28.7182 67.8753C28.5893 67.8251 28.4721 67.7514 28.3734 67.6585C28.2748 67.5656 28.1965 67.4553 28.1432 67.3339C28.0898 67.2126 28.0624 67.0825 28.0625 66.9511C28.0624 66.8198 28.0899 66.6897 28.1432 66.5684C28.1966 66.447 28.2749 66.3368 28.3735 66.2439C28.4722 66.151 28.5894 66.0774 28.7183 66.0272C28.8472 65.9769 28.9854 65.9511 29.125 65.9512H61C61.1396 65.9511 61.2778 65.9769 61.4067 66.0272C61.5356 66.0774 61.6528 66.151 61.7515 66.2439C61.8501 66.3368 61.9284 66.447 61.9818 66.5684C62.0351 66.6897 62.0626 66.8198 62.0625 66.9511C62.0626 67.0825 62.0352 67.2126 61.9818 67.3339C61.9285 67.4553 61.8502 67.5656 61.7516 67.6585C61.6529 67.7514 61.5357 67.8251 61.4068 67.8753C61.2778 67.9256 61.1396 67.9514 61 67.9513ZM56.7499 83.9512H33.3751C33.2355 83.9512 33.0974 83.9253 32.9685 83.875C32.8396 83.8248 32.7225 83.7511 32.6239 83.6582L28.3738 79.6581C28.2751 79.5653 28.1969 79.4551 28.1435 79.3338C28.0901 79.2124 28.0626 79.0824 28.0626 78.9511C28.0626 78.8198 28.0901 78.6898 28.1435 78.5685C28.1969 78.4472 28.2751 78.337 28.3738 78.2441C28.4724 78.1513 28.5895 78.0776 28.7184 78.0274C28.8473 77.9771 28.9855 77.9513 29.125 77.9513C29.2645 77.9513 29.4026 77.9771 29.5315 78.0274C29.6604 78.0776 29.7775 78.1513 29.8761 78.2441L33.8147 81.951H56.3098L60.2483 78.2441C60.6635 77.8533 61.3358 77.8533 61.7507 78.2441C62.1656 78.6349 62.1659 79.2676 61.7507 79.6581L57.5006 83.6582C57.4021 83.7511 57.2851 83.8248 57.1563 83.8751C57.0275 83.9254 56.8894 83.9512 56.7499 83.9512Z" fill="#D946FF"/>
<path d="M45.0628 87.9512C39.5092 87.9512 37.2611 83.4556 37.1683 83.2645C37.1095 83.1436 37.0744 83.012 37.065 82.8771C37.0557 82.7422 37.0723 82.6068 37.1138 82.4785C37.1554 82.3502 37.2211 82.2316 37.3072 82.1295C37.3932 82.0274 37.4981 81.9437 37.6156 81.8834C38.1117 81.6341 38.7074 81.8349 38.9553 82.3397C39.0333 82.4963 40.7803 85.8924 45.0628 85.8924C49.3947 85.8924 51.1506 82.3781 51.1682 82.3438C51.2877 82.1005 51.4957 81.9156 51.747 81.8294C51.9982 81.7432 52.2724 81.7626 52.5099 81.8834C52.747 82.0056 52.9273 82.2197 53.0111 82.4787C53.095 82.7376 53.0756 83.0203 52.9572 83.2645C52.8636 83.4556 50.6173 87.9512 45.0628 87.9512ZM40.0628 63.2454C39.9315 63.2455 39.8014 63.2189 39.6801 63.1672C39.5587 63.1155 39.4485 63.0397 39.3556 62.9441C39.2627 62.8485 39.1891 62.735 39.1388 62.6101C39.0886 62.4851 39.0628 62.3513 39.0628 62.2161V53.9805C39.0628 53.8454 39.0886 53.7115 39.1388 53.5865C39.1891 53.4616 39.2627 53.3481 39.3556 53.2525C39.4485 53.1569 39.5587 53.0811 39.6801 53.0294C39.8014 52.9777 39.9315 52.9511 40.0628 52.9512C40.1942 52.9511 40.3242 52.9776 40.4456 53.0293C40.567 53.081 40.6773 53.1568 40.7702 53.2524C40.8631 53.348 40.9368 53.4615 40.987 53.5865C41.0373 53.7114 41.0631 53.8453 41.063 53.9805V62.2161C41.063 62.3513 41.0372 62.4852 40.9869 62.6101C40.9367 62.735 40.863 62.8485 40.7701 62.9441C40.6772 63.0397 40.567 63.1155 40.4456 63.1672C40.3242 63.2189 40.1942 63.2455 40.0628 63.2454ZM50.0626 63.2454C49.9313 63.2455 49.8012 63.2189 49.6799 63.1672C49.5585 63.1155 49.4483 63.0397 49.3554 62.9441C49.2625 62.8485 49.1889 62.735 49.1386 62.6101C49.0884 62.4851 49.0626 62.3513 49.0627 62.2161V53.9805C49.0627 53.4117 49.51 52.9512 50.0626 52.9512C50.6153 52.9512 51.0626 53.4117 51.0626 53.9805V62.2161C51.0626 62.3513 51.0368 62.4851 50.9866 62.6101C50.9364 62.735 50.8627 62.8485 50.7698 62.9441C50.677 63.0397 50.5667 63.1155 50.4454 63.1672C50.324 63.2189 50.194 63.2455 50.0626 63.2454Z" fill="#D946FF"/>
<path d="M40.0633 54.9512C39.9132 54.9513 39.765 54.9177 39.6296 54.8528C39.4943 54.7879 39.3752 54.6935 39.2813 54.5764C39.1158 54.3691 39.0393 54.1046 39.0686 53.8409C39.0979 53.5773 39.2307 53.336 39.4376 53.1701L44.4374 49.17C44.6447 49.0045 44.9091 48.928 45.1728 48.9573C45.4364 48.9866 45.6776 49.1193 45.8435 49.3263C46.0091 49.5336 46.0857 49.7981 46.0564 50.0618C46.0271 50.3254 45.8944 50.5667 45.6874 50.7326L40.6877 54.7325C40.5107 54.8747 40.2903 54.9519 40.0633 54.9512Z" fill="#D946FF"/>
<path d="M50.0626 54.9512C49.8419 54.9512 49.623 54.8811 49.4377 54.7325L44.4375 50.7326C44.2306 50.5666 44.0979 50.3254 44.0686 50.0618C44.0393 49.7982 44.1157 49.5337 44.2811 49.3263C44.4473 49.1198 44.6885 48.9874 44.952 48.9581C45.2155 48.9288 45.4799 49.005 45.6874 49.17L50.6873 53.1701C50.8943 53.336 51.027 53.5773 51.0564 53.8409C51.0857 54.1046 51.0092 54.3691 50.8437 54.5764C50.75 54.6935 50.6311 54.788 50.4959 54.8529C50.3607 54.9177 50.2126 54.9513 50.0626 54.9512ZM40.0625 50.9513C39.9311 50.9514 39.8011 50.9256 39.6797 50.8754C39.5583 50.8251 39.448 50.7515 39.3552 50.6586C39.2623 50.5657 39.1886 50.4555 39.1384 50.3341C39.0882 50.2127 39.0624 50.0826 39.0625 49.9513V35.9511C39.0624 35.8198 39.0883 35.6897 39.1385 35.5684C39.1887 35.447 39.2624 35.3368 39.3552 35.2439C39.4481 35.151 39.5584 35.0774 39.6797 35.0272C39.8011 34.9769 39.9312 34.9511 40.0625 34.9512C40.1939 34.9511 40.3239 34.9769 40.4453 35.0271C40.5667 35.0773 40.677 35.1509 40.7699 35.2438C40.8628 35.3367 40.9365 35.447 40.9867 35.5683C41.037 35.6897 41.0628 35.8198 41.0627 35.9511V49.9513C41.0628 50.0827 41.037 50.2127 40.9867 50.3341C40.9365 50.4555 40.8628 50.5658 40.7699 50.6586C40.677 50.7515 40.5667 50.8251 40.4453 50.8754C40.3239 50.9256 40.1939 50.9514 40.0625 50.9513Z" fill="#D946FF"/>
<path d="M40.0623 36.9512C39.931 36.9512 39.8009 36.9211 39.6796 36.8625C39.5582 36.8039 39.4479 36.718 39.3551 36.6096C39.2622 36.5013 39.1886 36.3727 39.1383 36.2311C39.0881 36.0895 39.0623 35.9378 39.0624 35.7846C39.0624 33.8547 37.7167 32.2847 36.0625 32.2847C34.4083 32.2847 33.0627 33.8547 33.0627 35.7846C33.0627 35.9378 33.0369 36.0895 32.9867 36.2311C32.9364 36.3727 32.8628 36.5013 32.7699 36.6096C32.6771 36.718 32.5668 36.8039 32.4454 36.8625C32.3241 36.9211 32.194 36.9512 32.0627 36.9512C31.9313 36.9513 31.8013 36.9212 31.6799 36.8626C31.5585 36.804 31.4482 36.7181 31.3553 36.6098C31.2624 36.5014 31.1888 36.3728 31.1385 36.2312C31.0883 36.0896 31.0624 35.9378 31.0625 35.7846C31.0625 32.5672 33.3056 29.9512 36.0625 29.9512C38.8194 29.9512 41.0625 32.5672 41.0625 35.7846C41.0625 35.9378 41.0367 36.0895 40.9864 36.2311C40.9362 36.3727 40.8625 36.5013 40.7696 36.6097C40.6767 36.718 40.5664 36.8039 40.4451 36.8625C40.3237 36.9211 40.1936 36.9512 40.0623 36.9512Z" fill="#D946FF"/>
<path d="M36.0626 40.951C33.3056 40.951 31.0625 38.7089 31.0625 35.9511C31.0624 35.8198 31.0883 35.6897 31.1385 35.5683C31.1888 35.447 31.2624 35.3367 31.3553 35.2438C31.4482 35.1509 31.5585 35.0773 31.6799 35.0271C31.8013 34.9769 31.9314 34.9511 32.0627 34.9512C32.194 34.9511 32.3241 34.9769 32.4455 35.0272C32.5668 35.0774 32.6771 35.151 32.7699 35.2439C32.8628 35.3368 32.9365 35.447 32.9867 35.5684C33.0369 35.6897 33.0627 35.8198 33.0627 35.9511C33.0627 37.6053 34.4084 38.951 36.0626 38.951C36.1939 38.951 36.324 38.9768 36.4453 39.027C36.5667 39.0773 36.6769 39.1509 36.7698 39.2438C36.8627 39.3367 36.9363 39.4469 36.9865 39.5683C37.0368 39.6896 37.0626 39.8197 37.0625 39.951C37.0626 40.0824 37.0368 40.2124 36.9866 40.3338C36.9364 40.4552 36.8627 40.5654 36.7699 40.6583C36.677 40.7512 36.5667 40.8249 36.4453 40.8751C36.324 40.9253 36.1939 40.9511 36.0626 40.951ZM50.0625 50.9512C49.9312 50.9513 49.8011 50.9255 49.6798 50.8752C49.5584 50.825 49.4481 50.7514 49.3552 50.6585C49.2624 50.5656 49.1887 50.4554 49.1385 50.334C49.0883 50.2126 49.0625 50.0825 49.0626 49.9512V35.9511C49.0626 35.3985 49.5099 34.9512 50.0625 34.9512C50.6152 34.9512 51.0625 35.3985 51.0625 35.9511V49.9512C51.0626 50.0825 51.0368 50.2126 50.9866 50.334C50.9364 50.4554 50.8627 50.5656 50.7698 50.6585C50.677 50.7514 50.5667 50.825 50.4453 50.8752C50.324 50.9255 50.1939 50.9513 50.0625 50.9512Z" fill="#D946FF"/>
<path d="M58.9625 36.9512C58.8181 36.9513 58.675 36.9212 58.5415 36.8626C58.408 36.804 58.2866 36.7181 58.1845 36.6097C58.0823 36.5014 58.0013 36.3727 57.9461 36.2311C57.8908 36.0895 57.8624 35.9378 57.8626 35.7846C57.8626 33.8547 56.3823 32.2847 54.5624 32.2847C52.7427 32.2847 51.2624 33.8547 51.2624 35.7846C51.2624 36.4293 50.7704 36.9512 50.1625 36.9512C49.5546 36.9512 49.0625 36.4293 49.0625 35.7846C49.0625 32.5672 51.5288 29.9512 54.5624 29.9512C57.5959 29.9512 60.0625 32.5672 60.0625 35.7846C60.0626 35.9378 60.0342 36.0895 59.9789 36.2311C59.9237 36.3727 59.8426 36.5013 59.7405 36.6096C59.6383 36.718 59.517 36.8039 59.3836 36.8625C59.2501 36.9211 59.107 36.9512 58.9625 36.9512Z" fill="#D946FF"/>
<path d="M54.9309 40.9512C54.7961 40.9513 54.6626 40.9246 54.538 40.8727C54.4135 40.8208 54.3003 40.7447 54.205 40.6488C54.1096 40.5528 54.034 40.4388 53.9825 40.3134C53.931 40.188 53.9045 40.0536 53.9046 39.9179C53.9045 39.7822 53.931 39.6478 53.9826 39.5224C54.0341 39.397 54.1097 39.283 54.205 39.1871C54.3003 39.0911 54.4135 39.015 54.538 38.9631C54.6626 38.9112 54.7961 38.8845 54.9309 38.8846C56.6288 38.8846 58.01 37.494 58.01 35.7847C58.0099 35.649 58.0363 35.5145 58.0879 35.3891C58.1394 35.2637 58.215 35.1498 58.3103 35.0538C58.4056 34.9578 58.5188 34.8817 58.6434 34.8298C58.7679 34.7779 58.9014 34.7513 59.0362 34.7514C59.171 34.7513 59.3045 34.778 59.429 34.8299C59.5536 34.8818 59.6668 34.9579 59.7621 35.0539C59.8574 35.1498 59.933 35.2638 59.9845 35.3892C60.0361 35.5146 60.0626 35.649 60.0625 35.7847C60.0625 38.6343 57.7612 40.9512 54.9309 40.9512ZM22.0888 35.7847C21.954 35.7847 21.8205 35.7581 21.696 35.7062C21.5714 35.6543 21.4583 35.5781 21.3629 35.4822C21.2676 35.3862 21.192 35.2723 21.1405 35.1469C21.0889 35.0215 21.0624 34.8871 21.0625 34.7514C21.0625 21.0768 32.1122 9.95117 45.6941 9.95117C45.8289 9.9511 45.9624 9.97779 46.087 10.0297C46.2115 10.0816 46.3247 10.1577 46.42 10.2537C46.5153 10.3496 46.5909 10.4636 46.6424 10.589C46.694 10.7144 46.7205 10.8488 46.7204 10.9845C46.7205 11.1202 46.694 11.2546 46.6424 11.38C46.5909 11.5054 46.5153 11.6193 46.42 11.7153C46.3247 11.8112 46.2115 11.8874 46.087 11.9393C45.9624 11.9912 45.8289 12.0178 45.6941 12.0178C33.244 12.0178 23.1151 22.2158 23.1151 34.7514C23.1151 34.8871 23.0886 35.0215 23.0371 35.1469C22.9855 35.2723 22.9099 35.3862 22.8146 35.4822C22.7193 35.5781 22.6061 35.6543 22.4816 35.7062C22.3571 35.7581 22.2236 35.7847 22.0888 35.7847ZM46.7204 40.9512H44.6676C44.5328 40.9513 44.3993 40.9246 44.2747 40.8727C44.1502 40.8208 44.037 40.7447 43.9417 40.6488C43.8464 40.5528 43.7708 40.4388 43.7192 40.3134C43.6677 40.188 43.6412 40.0536 43.6413 39.9179C43.6413 39.7822 43.6678 39.6478 43.7193 39.5224C43.7709 39.397 43.8465 39.283 43.9418 39.1871C44.0371 39.0911 44.1502 39.015 44.2748 38.9631C44.3993 38.9112 44.5328 38.8845 44.6676 38.8846H46.7204C46.8552 38.8845 46.9887 38.9112 47.1132 38.9631C47.2378 39.015 47.3509 39.0911 47.4462 39.1871C47.5416 39.283 47.6172 39.397 47.6687 39.5224C47.7203 39.6478 47.7468 39.7822 47.7467 39.9179C47.7468 40.0536 47.7203 40.188 47.6688 40.3134C47.6172 40.4388 47.5416 40.5528 47.4463 40.6488C47.351 40.7447 47.2378 40.8208 47.1133 40.8727C46.9887 40.9246 46.8552 40.9513 46.7204 40.9512Z" fill="#D946FF"/>
</svg>
