<svg width="801" height="800" viewBox="0 0 801 800" fill="none" xmlns="http://www.w3.org/2000/svg">
<path d="M498.049 343.64L498.071 343.693L498.106 343.739L644.066 540.839L400.392 512.984L400.335 512.977L400.278 512.984L156.603 540.839L302.564 343.739L302.599 343.693L302.621 343.64L400.335 118.682L498.049 343.64Z" stroke="#212730"/>
<path d="M502.597 352.371L502.614 352.426L502.644 352.474L630.872 561.546L390.552 512.559L390.496 512.547L390.439 512.549L145.263 519.061L307.847 335.432L307.886 335.389L307.912 335.339L424.861 119.753L502.597 352.371Z" stroke="#212730"/>
<path d="M506.371 361.465L506.384 361.521L506.41 361.572L615.927 581.024L380.791 511.279L380.737 511.262L380.68 511.259L135.869 496.377L313.839 327.617L313.881 327.578L313.912 327.53L449.205 122.957L506.371 361.465Z" stroke="#212730"/>
<path d="M509.336 370.856L509.344 370.913L509.365 370.966L599.339 599.128L371.177 509.154L371.124 509.133L371.067 509.125L128.485 472.963L320.487 320.356L320.532 320.321L320.567 320.276L473.175 128.273L509.336 370.856Z" stroke="#212730"/>
<path d="M511.473 380.465L511.476 380.522L511.492 380.577L581.238 615.712L361.786 506.195L361.735 506.169L361.68 506.157L123.173 448.99L327.744 313.698L327.792 313.667L327.831 313.625L496.592 135.653L511.473 380.465Z" stroke="#212730"/>
<path d="M512.764 390.225L512.762 390.282L512.773 390.338L561.76 630.658L352.688 502.431L352.64 502.401L352.586 502.383L119.968 424.647L335.553 307.699L335.603 307.672L335.646 307.634L519.276 145.048L512.764 390.225Z" stroke="#212730"/>
<path d="M513.197 400.062L513.19 400.118L513.197 400.175L541.051 643.849L343.951 497.889L343.906 497.855L343.853 497.832L118.897 400.118L343.853 302.405L343.906 302.382L343.951 302.348L541.053 156.385L513.197 400.062Z" stroke="#212730"/>
<path d="M512.771 409.896L512.759 409.952L512.761 410.009L519.273 655.185L335.643 492.601L335.601 492.563L335.55 492.536L119.966 375.587L352.583 297.852L352.637 297.834L352.686 297.803L561.759 169.575L512.771 409.896Z" stroke="#212730"/>
<path d="M511.492 419.66L511.475 419.715L511.472 419.772L496.591 664.582L327.83 486.612L327.791 486.57L327.743 486.539L123.172 351.246L361.679 294.081L361.735 294.067L361.786 294.041L581.239 184.523L511.492 419.66Z" stroke="#212730"/>
<path d="M509.366 429.276L509.344 429.329L509.336 429.386L473.175 671.967L320.568 479.966L320.532 479.921L320.488 479.886L128.486 327.278L371.068 291.118L371.124 291.109L371.178 291.088L599.341 201.113L509.366 429.276Z" stroke="#212730"/>
<path d="M506.412 438.664L506.386 438.715L506.373 438.77L449.207 677.277L313.914 472.706L313.883 472.658L313.841 472.619L135.871 303.858L380.681 288.977L380.738 288.974L380.793 288.957L615.93 219.21L506.412 438.664Z" stroke="#212730"/>
<path d="M502.646 447.763L502.616 447.811L502.598 447.866L424.862 680.482L307.914 464.898L307.887 464.848L307.849 464.805L145.264 281.175L390.44 287.688L390.497 287.69L390.553 287.678L630.874 238.69L502.646 447.763Z" stroke="#212730"/>
<path d="M498.104 456.501L498.07 456.547L498.047 456.599L400.333 681.555L302.62 456.599L302.597 456.547L302.563 456.501L156.602 259.4L400.277 287.256L400.334 287.262L400.391 287.255L644.067 259.399L498.104 456.501Z" stroke="#212730"/>
<path d="M492.817 464.808L492.779 464.851L492.752 464.901L375.804 680.485L298.068 447.869L298.05 447.814L298.02 447.766L169.793 238.693L410.113 287.681L410.169 287.693L410.226 287.691L655.403 281.178L492.817 464.808Z" stroke="#212730"/>
</svg>
