<svg width="1718" height="1718" viewBox="0 0 1718 1718" fill="none" xmlns="http://www.w3.org/2000/svg">
<path opacity="0.0344828" d="M246.508 818.215C223.738 809.049 227.235 775.782 251.413 771.549L619.825 707.065C633.327 704.702 642.517 692.052 640.593 678.481L588.075 308.173C584.628 283.871 615.187 270.266 630.942 289.089L870.992 575.9C879.79 586.411 895.34 588.046 906.131 579.594L1200.57 348.958C1219.89 333.822 1246.95 353.484 1238.53 376.539L1110.17 727.835C1105.46 740.709 1111.82 754.994 1124.54 760.113L1471.49 899.785C1494.26 908.952 1490.77 942.219 1466.59 946.451L1098.18 1010.93C1084.68 1013.3 1075.48 1025.95 1077.41 1039.52L1129.93 1409.83C1133.37 1434.13 1102.81 1447.73 1087.06 1428.91L847.009 1142.1C838.212 1131.59 822.661 1129.95 811.871 1138.41L517.434 1369.04C498.111 1384.18 471.048 1364.52 479.472 1341.46L607.833 990.164C612.537 977.29 606.178 963.005 593.463 957.887L246.508 818.215Z" stroke="#212730"/>
<path opacity="0.0689655" d="M257.952 787.556C235.693 777.211 240.926 744.172 265.292 741.211L630.65 696.817C644.257 695.164 654.097 683.012 652.885 669.359L620.348 302.755C618.178 278.305 649.407 266.318 664.154 285.939L885.28 580.151C893.515 591.108 908.959 593.554 920.177 585.679L1221.4 374.198C1241.49 360.094 1267.48 381.144 1257.86 403.727L1113.63 742.334C1108.26 754.944 1113.86 769.542 1126.29 775.319L1460.05 930.442C1482.31 940.788 1477.08 973.828 1452.71 976.788L1087.35 1021.18C1073.74 1022.84 1063.9 1034.99 1065.12 1048.64L1097.65 1415.25C1099.82 1439.69 1068.6 1451.68 1053.85 1432.06L832.722 1137.85C824.486 1126.89 809.043 1124.45 797.825 1132.32L496.604 1343.8C476.515 1357.91 450.52 1336.86 460.139 1314.27L604.371 975.666C609.743 963.055 604.139 948.458 591.709 942.68L257.952 787.556Z" stroke="#212730"/>
<path opacity="0.103448" d="M270.902 757.981C249.215 746.484 256.169 713.765 280.657 712.083L641.885 687.279C655.559 686.34 666.022 674.721 665.526 661.023L652.435 299.181C651.548 274.652 683.362 264.316 697.062 284.682L899.156 585.112C906.806 596.485 922.101 599.736 933.716 592.458L1240.53 400.201C1261.33 387.167 1286.19 409.55 1275.4 431.598L1116.27 756.832C1110.25 769.144 1115.08 784.014 1127.19 790.434L1447.1 960.018C1468.79 971.514 1461.83 1004.23 1437.34 1005.92L1076.12 1030.72C1062.44 1031.66 1051.98 1043.28 1052.47 1056.98L1065.56 1418.82C1066.45 1443.35 1034.64 1453.68 1020.94 1433.32L818.844 1132.89C811.194 1121.51 795.899 1118.26 784.284 1125.54L477.466 1317.8C456.666 1330.83 431.808 1308.45 442.595 1286.4L601.729 961.167C607.753 948.855 602.921 933.984 590.811 927.565L270.902 757.981Z" stroke="#212730"/>
<path opacity="0.137931" d="M285.278 729.56C264.223 716.944 272.88 684.634 297.423 684.236L653.487 678.468C667.191 678.246 678.248 667.189 678.47 653.485L684.238 297.422C684.635 272.879 716.946 264.221 729.562 285.277L912.588 590.753C919.633 602.51 934.736 606.557 946.716 599.897L1257.96 426.861C1279.41 414.934 1303.07 438.587 1291.14 460.041L1118.1 771.284C1111.44 783.264 1115.49 798.367 1127.25 805.412L1432.72 988.439C1453.78 1001.06 1445.12 1033.37 1420.58 1033.76L1064.52 1039.53C1050.81 1039.75 1039.75 1050.81 1039.53 1064.51L1033.76 1420.58C1033.37 1445.12 1001.06 1453.78 988.44 1432.72L805.414 1127.25C798.37 1115.49 783.266 1111.44 771.286 1118.1L460.042 1291.14C438.589 1303.07 414.935 1279.41 426.862 1257.96L599.899 946.716C606.559 934.736 602.512 919.632 590.755 912.587L285.278 729.56Z" stroke="#212730"/>
<path opacity="0.172414" d="M300.993 702.362C280.627 688.661 290.964 656.848 315.493 657.735L665.406 670.394C679.104 670.89 690.725 660.427 691.664 646.753L715.65 297.433C717.332 272.945 750.051 265.99 761.547 287.677L925.541 597.041C931.961 609.151 946.832 613.983 959.144 607.959L1273.66 454.071C1295.7 443.283 1318.09 468.142 1305.05 488.942L1119.13 785.646C1111.86 797.261 1115.11 812.556 1126.48 820.206L1417.01 1015.64C1437.37 1029.34 1427.04 1061.15 1402.51 1060.27L1052.59 1047.61C1038.9 1047.11 1027.28 1057.57 1026.34 1071.25L1002.35 1420.57C1000.67 1445.06 967.95 1452.01 956.453 1430.32L792.46 1120.96C786.04 1108.85 771.169 1104.02 758.857 1110.04L444.344 1263.93C422.296 1274.72 399.913 1249.86 412.947 1229.06L598.866 932.354C606.144 920.739 602.893 905.445 591.521 897.795L300.993 702.362Z" stroke="#212730"/>
<path opacity="0.206897" d="M317.961 676.446C298.34 661.698 310.328 630.469 334.777 632.639L677.604 663.067C691.257 664.278 703.409 654.438 705.062 640.831L746.578 299.169C749.539 274.803 782.578 269.57 792.924 291.829L937.986 603.94C943.763 616.37 958.361 621.973 970.971 616.602L1287.62 481.724C1310.2 472.105 1331.25 498.101 1317.15 518.19L1119.38 799.874C1111.51 811.092 1113.95 826.536 1124.91 834.771L1400.04 1041.56C1419.66 1056.3 1407.67 1087.53 1383.22 1085.36L1040.4 1054.93C1026.74 1053.72 1014.59 1063.56 1012.94 1077.17L971.423 1418.83C968.463 1443.2 935.423 1448.43 925.078 1426.17L780.015 1114.06C774.238 1101.63 759.64 1096.03 747.029 1101.4L430.384 1236.28C407.801 1245.9 386.75 1219.9 400.854 1199.81L598.619 918.126C606.495 906.908 604.049 891.464 593.092 883.229L317.961 676.446Z" stroke="#212730"/>
<path opacity="0.241379" d="M336.091 651.867C317.268 636.113 330.874 605.554 355.176 609.001L690.032 656.491C703.603 658.416 716.253 649.225 718.617 635.723L776.928 302.58C781.16 278.402 814.427 274.906 823.594 297.676L949.894 611.415C955.013 624.13 969.298 630.49 982.172 625.785L1299.84 509.714C1322.89 501.289 1342.55 528.351 1327.42 547.674L1118.86 813.924C1110.41 824.715 1112.04 840.265 1122.56 849.063L1381.91 1066.13C1400.73 1081.89 1387.13 1112.44 1362.82 1109L1027.97 1061.51C1014.4 1059.58 1001.75 1068.77 999.384 1082.28L941.073 1415.42C936.84 1439.6 903.574 1443.09 894.408 1420.32L768.106 1106.58C762.988 1093.87 748.703 1087.51 735.829 1092.21L418.164 1208.29C395.109 1216.71 375.447 1189.65 390.583 1170.33L599.139 904.076C607.591 893.285 605.957 877.734 595.445 868.937L336.091 651.867Z" stroke="#212730"/>
<path opacity="0.275862" d="M355.288 628.679C337.316 611.961 352.502 582.157 376.591 586.87L702.647 650.674C716.098 653.306 729.212 644.79 732.279 631.431L806.609 307.612C812.101 283.689 845.506 281.939 853.468 305.157L961.24 619.431C965.686 632.397 979.618 639.496 992.721 635.472L1310.32 537.936C1333.79 530.73 1352 558.783 1335.88 577.288L1117.59 827.759C1108.59 838.092 1109.41 853.707 1119.44 863.043L1362.71 1089.32C1380.69 1106.04 1365.5 1135.85 1341.41 1131.13L1015.35 1067.33C1001.9 1064.7 988.789 1073.21 985.722 1086.57L911.391 1410.39C905.899 1434.31 872.495 1436.06 864.533 1412.85L756.76 1098.57C752.314 1085.61 738.382 1078.51 725.279 1082.53L407.679 1180.07C384.215 1187.27 365.996 1159.22 382.123 1140.71L600.406 890.244C609.412 879.911 608.594 864.296 598.557 854.961L355.288 628.679Z" stroke="#212730"/>
<path opacity="0.310345" d="M375.459 606.918C358.386 589.282 375.111 560.314 398.92 566.281L715.402 645.611C728.697 648.944 742.239 641.126 746 627.945L835.539 314.2C842.275 290.596 875.726 290.596 882.462 314.2L972.001 627.946C975.763 641.126 989.304 648.944 1002.6 645.612L1319.08 566.281C1342.89 560.313 1359.61 589.282 1342.54 606.917L1115.6 841.333C1106.07 851.181 1106.07 866.818 1115.6 876.665L1342.54 1111.08C1359.62 1128.72 1342.89 1157.69 1319.08 1151.72L1002.6 1072.39C989.304 1069.06 975.762 1076.87 972 1090.05L882.462 1403.8C875.726 1427.4 842.275 1427.4 835.539 1403.8L746 1090.05C742.239 1076.87 728.697 1069.06 715.402 1072.39L398.921 1151.72C375.111 1157.69 358.386 1128.72 375.459 1111.08L602.401 876.666C611.935 866.818 611.935 851.182 602.401 841.334L375.459 606.918Z" stroke="#212730"/>
<path opacity="0.344828" d="M396.506 586.627C380.379 568.122 398.597 540.069 422.062 547.274L728.253 641.307C741.356 645.331 755.288 638.232 759.734 625.267L863.635 322.282C871.597 299.064 905.001 300.814 910.493 324.737L982.154 636.923C985.221 650.282 998.335 658.799 1011.79 656.167L1326.13 594.654C1350.22 589.94 1365.4 619.746 1347.43 636.463L1112.9 854.616C1102.87 863.951 1102.05 879.566 1111.05 889.9L1321.49 1131.37C1337.62 1149.88 1319.4 1177.93 1295.94 1170.73L989.747 1076.69C976.644 1072.67 962.713 1079.77 958.266 1092.73L854.365 1395.72C846.403 1418.94 812.999 1417.19 807.507 1393.26L735.846 1081.08C732.78 1067.72 719.666 1059.2 706.214 1061.83L391.871 1123.34C367.782 1128.06 352.596 1098.25 370.569 1081.54L605.099 863.383C615.135 854.048 615.953 838.434 606.948 828.101L396.506 586.627Z" stroke="#212730"/>
<path opacity="0.37931" d="M418.332 567.837C403.195 548.513 422.858 521.45 445.913 529.874L741.158 637.756C754.032 642.46 768.317 636.1 773.435 623.385L890.822 331.789C899.988 309.018 933.256 312.515 937.488 336.693L991.683 646.323C994.046 659.825 1006.7 669.015 1020.27 667.091L1331.49 622.953C1355.79 619.506 1369.4 650.065 1350.58 665.819L1109.53 867.569C1099.01 876.366 1097.38 891.917 1105.83 902.708L1299.67 1150.16C1314.81 1169.49 1295.14 1196.55 1272.09 1188.13L976.844 1080.25C963.969 1075.54 949.685 1081.9 944.566 1094.62L827.179 1386.21C818.013 1408.98 784.745 1405.49 780.513 1381.31L726.317 1071.68C723.954 1058.18 711.304 1048.99 697.733 1050.91L386.51 1095.05C362.208 1098.5 348.602 1067.94 367.425 1052.18L608.476 850.433C618.986 841.635 620.621 826.085 612.169 815.294L418.332 567.837Z" stroke="#212730"/>
<path opacity="0.413793" d="M440.839 550.569C426.735 530.48 447.786 504.484 470.368 514.103L754.072 634.949C766.683 640.32 781.28 634.717 787.057 622.287L917.029 342.646C927.375 320.387 960.414 325.62 963.375 349.986L1000.57 656.104C1002.22 669.711 1014.38 679.551 1028.03 678.339L1335.19 651.077C1359.64 648.908 1371.63 680.137 1352.01 694.884L1105.5 880.156C1094.54 888.391 1092.1 903.835 1099.97 915.053L1277.16 1167.43C1291.27 1187.52 1270.22 1213.52 1247.63 1203.9L963.929 1083.05C951.319 1077.68 936.721 1083.28 930.944 1095.71L800.972 1375.36C790.626 1397.61 757.588 1392.38 754.627 1368.02L717.431 1061.9C715.777 1048.29 703.625 1038.45 689.972 1039.66L382.81 1066.92C358.361 1069.09 346.373 1037.87 365.994 1023.12L612.502 837.845C623.459 829.61 625.905 814.166 618.029 802.948L440.839 550.569Z" stroke="#212730"/>
<path opacity="0.448276" d="M463.926 534.844C450.893 514.044 473.276 489.186 495.324 499.974L766.954 632.879C779.267 638.903 794.138 634.071 800.557 621.961L942.191 354.778C953.687 333.091 986.407 340.045 988.089 364.533L1008.8 666.225C1009.74 679.9 1021.36 690.363 1035.06 689.868L1337.27 678.934C1361.8 678.047 1372.13 709.86 1351.77 723.561L1100.85 892.346C1089.48 899.997 1086.23 915.292 1093.5 926.907L1254.08 1183.16C1267.11 1203.96 1244.73 1228.81 1222.68 1218.03L951.047 1085.12C938.735 1079.1 923.864 1083.93 917.445 1096.04L775.811 1363.22C764.315 1384.91 731.595 1377.96 729.913 1353.47L709.198 1051.78C708.259 1038.1 696.639 1027.64 682.941 1028.13L380.736 1039.07C356.206 1039.95 345.87 1008.14 366.236 994.44L617.151 825.654C628.524 818.004 631.775 802.709 624.497 791.094L463.926 534.844Z" stroke="#212730"/>
<path opacity="0.482759" d="M487.496 520.675C475.569 499.222 499.222 475.569 520.675 487.495L779.762 631.535C791.742 638.196 806.846 634.148 813.89 622.391L966.246 368.105C978.862 347.049 1011.17 355.707 1011.57 380.25L1016.37 676.646C1016.59 690.351 1027.65 701.407 1041.36 701.629L1337.75 706.43C1362.29 706.828 1370.95 739.138 1349.9 751.754L1095.61 904.11C1083.85 911.155 1079.8 926.258 1086.46 938.238L1230.5 1197.33C1242.43 1218.78 1218.78 1242.43 1197.33 1230.5L938.238 1086.46C926.259 1079.8 911.155 1083.85 904.11 1095.61L751.755 1349.89C739.139 1370.95 706.829 1362.29 706.431 1337.75L701.63 1041.35C701.408 1027.65 690.351 1016.59 676.646 1016.37L380.25 1011.57C355.708 1011.17 347.05 978.861 368.106 966.245L622.392 813.889C634.149 806.845 638.196 791.742 631.536 779.762L487.496 520.675Z" stroke="#212730"/>
<path opacity="0.517241" d="M511.45 508.069C500.662 486.021 525.521 463.637 546.321 476.671L792.457 630.905C804.072 638.183 819.366 634.932 827.017 623.559L989.142 382.547C1002.84 362.18 1034.65 372.517 1033.77 397.046L1023.27 687.323C1022.77 701.021 1033.23 712.641 1046.91 713.58L1336.69 733.478C1361.18 735.16 1368.14 767.879 1346.45 779.376L1089.81 915.42C1077.7 921.84 1072.87 936.711 1078.89 949.023L1206.55 1209.93C1217.34 1231.98 1192.48 1254.36 1171.68 1241.33L925.545 1087.1C913.93 1079.82 898.636 1083.07 890.986 1094.44L728.861 1335.45C715.16 1355.82 683.347 1345.48 684.234 1320.95L694.736 1030.68C695.232 1016.98 684.769 1005.36 671.094 1004.42L381.31 984.522C356.821 982.841 349.867 950.122 371.554 938.625L628.192 802.581C640.303 796.161 645.134 781.291 639.11 768.979L511.45 508.069Z" stroke="#212730"/>
<path opacity="0.551724" d="M535.689 497.023C526.07 474.44 552.066 453.389 572.155 467.493L804.998 630.968C816.216 638.844 831.66 636.398 839.896 625.441L1010.83 398.014C1025.57 378.393 1056.8 390.381 1054.63 414.831L1029.48 698.216C1028.27 711.869 1038.11 724.021 1051.72 725.674L1334.14 759.991C1358.5 762.952 1363.74 795.99 1341.48 806.336L1083.48 926.247C1071.05 932.024 1065.45 946.622 1070.82 959.233L1182.31 1220.98C1191.93 1243.56 1165.94 1264.61 1145.85 1250.51L913.004 1087.03C901.786 1079.15 886.342 1081.6 878.107 1092.56L707.176 1319.98C692.429 1339.61 661.199 1327.62 663.369 1303.17L688.521 1019.78C689.733 1006.13 679.893 993.978 666.286 992.325L383.864 958.008C359.497 955.047 354.265 922.008 376.524 911.662L634.519 791.752C646.948 785.975 652.552 771.377 647.181 758.766L535.689 497.023Z" stroke="#212730"/>
<path opacity="0.586207" d="M560.117 487.536C551.693 464.481 578.755 444.82 598.078 459.956L817.349 631.713C828.139 640.165 843.69 638.531 852.488 628.02L1031.26 414.427C1047.01 395.604 1077.57 409.21 1074.12 433.513L1035.01 709.285C1033.09 722.855 1042.28 735.505 1055.78 737.869L1330.14 785.891C1354.32 790.123 1357.81 823.391 1335.04 832.557L1076.66 936.572C1063.95 941.691 1057.59 955.975 1062.29 968.85L1157.89 1230.46C1166.31 1253.52 1139.25 1273.18 1119.92 1258.05L900.653 1086.29C889.863 1077.84 874.312 1079.47 865.514 1089.98L686.746 1303.57C670.991 1322.4 640.433 1308.79 643.88 1284.49L682.989 1008.72C684.914 995.145 675.723 982.495 662.222 980.132L387.862 932.11C363.684 927.878 360.187 894.611 382.956 885.444L641.338 781.429C654.053 776.31 660.413 762.025 655.709 749.151L560.117 487.536Z" stroke="#212730"/>
<path opacity="0.62069" d="M584.637 479.594C577.432 456.13 605.485 437.912 623.99 454.038L829.472 633.115C839.805 642.12 855.42 641.302 864.756 631.265L1050.39 431.691C1067.11 413.719 1096.92 428.905 1092.2 452.994L1039.86 720.485C1037.23 733.937 1045.74 747.051 1059.1 750.117L1324.76 811.097C1348.68 816.589 1350.43 849.994 1327.21 857.956L1069.39 946.371C1056.42 950.817 1049.32 964.749 1053.35 977.852L1133.36 1238.41C1140.57 1261.87 1112.52 1280.09 1094.01 1263.96L888.529 1084.89C878.196 1075.88 862.581 1076.7 853.246 1086.73L667.608 1286.31C650.89 1304.28 621.085 1289.1 625.799 1265.01L678.143 997.515C680.775 984.064 672.259 970.95 658.9 967.883L393.245 906.903C369.321 901.411 367.57 868.007 390.789 860.045L648.614 771.63C661.58 767.183 668.678 753.251 664.655 740.149L584.637 479.594Z" stroke="#212730"/>
<path opacity="0.655172" d="M609.157 473.181C603.189 449.372 632.158 432.647 649.793 449.72L841.334 635.154C851.182 644.688 866.818 644.688 876.666 635.154L1068.21 449.72C1085.84 432.646 1114.81 449.372 1108.84 473.181L1044.02 731.778C1040.69 745.073 1048.51 758.615 1061.69 762.376L1318.05 835.538C1341.65 842.275 1341.65 875.726 1318.05 882.462L1061.69 955.624C1048.51 959.386 1040.69 972.927 1044.02 986.223L1108.84 1244.82C1114.81 1268.63 1085.84 1285.35 1068.21 1268.28L876.666 1082.85C866.819 1073.31 851.182 1073.31 841.334 1082.85L649.794 1268.28C632.159 1285.35 603.189 1268.63 609.157 1244.82L673.978 986.222C677.31 972.926 669.492 959.385 656.311 955.623L399.95 882.461C376.346 875.725 376.347 842.274 399.95 835.538L656.311 762.376C669.491 758.615 677.31 745.073 673.977 731.778L609.157 473.181Z" stroke="#212730"/>
<path opacity="0.689655" d="M633.585 468.259C628.871 444.17 658.676 428.983 675.394 446.956L852.903 637.791C862.239 647.827 877.853 648.646 888.186 639.64L1084.67 468.405C1103.18 452.279 1131.23 470.498 1124.02 493.962L1047.51 743.106C1043.49 756.209 1050.59 770.141 1063.55 774.588L1310.09 859.131C1333.31 867.093 1331.55 900.497 1307.63 905.989L1053.61 964.299C1040.25 967.366 1031.73 980.479 1034.37 993.931L1084.42 1249.71C1089.13 1273.8 1059.33 1288.98 1042.61 1271.01L865.099 1080.18C855.763 1070.14 840.149 1069.32 829.816 1078.33L633.331 1249.56C614.826 1265.69 586.773 1247.47 593.979 1224.01L670.492 974.861C674.515 961.758 667.417 947.826 654.451 943.38L407.916 858.837C384.697 850.875 386.447 817.47 410.371 811.979L664.394 753.668C677.753 750.602 686.269 737.488 683.636 724.037L633.585 468.259Z" stroke="#212730"/>
<path opacity="0.724138" d="M657.83 464.83C654.384 440.528 684.943 426.922 700.697 445.745L864.145 641.033C872.942 651.544 888.493 653.178 899.284 644.726L1099.76 487.688C1119.09 472.552 1146.15 492.214 1137.72 515.269L1050.32 754.463C1045.62 767.337 1051.98 781.622 1064.69 786.741L1300.93 881.842C1323.7 891.008 1320.21 924.276 1296.03 928.508L1045.18 972.415C1031.68 974.778 1022.49 987.428 1024.41 1001L1060.17 1253.14C1063.62 1277.44 1033.06 1291.05 1017.3 1272.22L853.857 1076.94C845.059 1066.42 829.509 1064.79 818.718 1073.24L618.239 1230.28C598.916 1245.42 571.854 1225.75 580.277 1202.7L667.677 963.504C672.381 950.63 666.021 936.346 653.306 931.227L417.068 836.126C394.298 826.959 397.795 793.691 421.973 789.459L672.822 745.553C686.323 743.19 695.514 730.54 693.589 716.969L657.83 464.83Z" stroke="#212730"/>
<path opacity="0.758621" d="M681.807 462.848C679.638 438.399 710.866 426.411 725.614 446.033L875.032 644.837C883.267 655.794 898.711 658.24 909.929 650.364L1113.47 507.463C1133.56 493.359 1159.55 514.41 1149.93 536.993L1052.47 765.795C1047.1 778.405 1052.71 793.003 1065.14 798.78L1290.66 903.599C1312.92 913.945 1307.69 946.983 1283.32 949.944L1036.44 979.943C1022.84 981.596 1013 993.748 1014.21 1007.4L1036.19 1255.12C1038.36 1279.57 1007.13 1291.56 992.387 1271.94L842.969 1073.13C834.734 1062.18 819.29 1059.73 808.072 1067.61L604.533 1210.51C584.444 1224.61 558.448 1203.56 568.067 1180.98L665.527 952.176C670.898 939.566 665.295 924.968 652.865 919.191L427.34 814.371C405.081 804.025 410.313 770.987 434.68 768.025L681.558 738.027C695.165 736.374 705.006 724.222 703.794 710.569L681.807 462.848Z" stroke="#212730"/>
<path opacity="0.793103" d="M705.433 462.272C704.545 437.742 736.358 427.406 750.059 447.772L885.537 649.172C893.188 660.545 908.482 663.796 920.097 656.518L1125.78 527.634C1146.58 514.601 1171.44 536.983 1160.65 559.031L1053.97 777.059C1047.95 789.371 1052.78 804.242 1064.89 810.662L1279.35 924.346C1301.03 935.842 1294.08 968.561 1269.59 970.243L1027.44 986.871C1013.76 987.81 1003.3 999.43 1003.79 1013.13L1012.57 1255.7C1013.46 1280.23 981.643 1290.56 967.943 1270.2L832.465 1068.8C824.814 1057.42 809.52 1054.17 797.905 1061.45L592.223 1190.33C571.423 1203.37 546.564 1180.98 557.352 1158.94L664.031 940.909C670.055 928.597 665.223 913.726 653.113 907.306L438.654 793.622C416.967 782.125 423.922 749.406 448.41 747.725L690.567 731.097C704.241 730.158 714.704 718.538 714.209 704.84L705.433 462.272Z" stroke="#212730"/>
<path opacity="0.827586" d="M728.624 463.062C729.022 438.52 761.334 429.862 773.949 450.917L895.634 654.012C902.679 665.77 917.782 669.817 929.761 663.157L1136.69 548.114C1158.14 536.187 1181.8 559.841 1169.87 581.294L1054.83 788.224C1048.17 800.204 1052.21 815.307 1063.97 822.352L1267.07 944.037C1288.12 956.652 1279.47 988.964 1254.92 989.361L1018.2 993.196C1004.49 993.418 993.434 1004.47 993.212 1018.18L989.378 1254.91C988.98 1279.45 956.668 1288.11 944.053 1267.05L822.368 1063.96C815.323 1052.2 800.22 1048.15 788.24 1054.81L581.311 1169.86C559.857 1181.78 536.204 1158.13 548.131 1136.68L663.174 929.746C669.834 917.766 665.787 902.662 654.029 895.618L450.934 773.933C429.878 761.317 438.536 729.006 463.079 728.608L699.806 724.773C713.511 724.551 724.568 713.495 724.79 699.79L728.624 463.062Z" stroke="#212730"/>
<path opacity="0.862069" d="M751.307 465.169C752.989 440.681 785.708 433.726 797.205 455.413L905.299 659.326C911.718 671.436 926.59 676.268 938.902 670.244L1146.21 568.812C1168.26 558.024 1190.64 582.883 1177.61 603.682L1055.06 799.25C1047.78 810.865 1051.03 826.16 1062.4 833.81L1253.9 962.627C1274.27 976.328 1263.93 1008.14 1239.4 1007.25L1008.76 998.909C995.064 998.414 983.444 1008.88 982.505 1022.55L966.695 1252.8C965.013 1277.29 932.294 1284.24 920.797 1262.56L812.702 1058.64C806.283 1046.53 791.412 1041.7 779.1 1047.73L571.793 1149.16C549.745 1159.95 527.363 1135.09 540.396 1114.29L662.942 918.719C670.22 907.104 666.969 891.809 655.596 884.159L464.1 755.343C443.733 741.643 454.07 709.829 478.599 710.716L709.24 719.06C722.938 719.555 734.557 709.093 735.496 695.418L751.307 465.169Z" stroke="#212730"/>
<path opacity="0.896552" d="M773.407 468.541C776.368 444.175 809.406 438.942 819.752 461.201L914.511 665.08C920.288 677.51 934.886 683.113 947.496 677.742L1154.34 589.636C1176.92 580.017 1197.97 606.013 1183.87 626.102L1054.68 810.105C1046.81 821.323 1049.25 836.767 1060.21 845.002L1239.93 980.079C1259.55 994.827 1247.56 1026.06 1223.12 1023.89L999.172 1004.01C985.519 1002.8 973.367 1012.64 971.714 1026.24L944.595 1249.43C941.634 1273.79 908.595 1279.03 898.25 1256.77L803.491 1052.89C797.714 1040.46 783.116 1034.86 770.506 1040.23L563.665 1128.33C541.082 1137.95 520.031 1111.96 534.135 1091.87L663.32 907.863C671.195 896.645 668.749 881.201 657.792 872.966L478.07 737.889C458.449 723.142 470.437 691.913 494.886 694.083L718.83 713.959C732.483 715.171 744.635 705.33 746.288 691.724L773.407 468.541Z" stroke="#212730"/>
<path opacity="0.931035" d="M794.854 473.125C799.087 448.947 832.354 445.451 841.52 468.221L923.25 671.244C928.369 683.959 942.654 690.319 955.528 685.615L1161.09 610.503C1184.15 602.079 1203.81 629.141 1188.67 648.465L1053.71 820.757C1045.26 831.547 1046.9 847.098 1057.41 855.895L1225.24 996.362C1244.06 1012.12 1230.46 1042.67 1206.15 1039.23L989.464 1008.5C975.893 1006.57 963.243 1015.76 960.88 1029.26L923.147 1244.84C918.915 1269.02 885.647 1272.52 876.481 1249.75L794.751 1046.73C789.632 1034.01 775.347 1027.65 762.473 1032.35L556.91 1107.47C533.855 1115.89 514.193 1088.83 529.329 1069.5L664.287 897.214C672.739 886.423 671.105 870.873 660.594 862.075L492.764 721.608C473.941 705.854 487.546 675.295 511.849 678.741L728.537 709.472C742.108 711.397 754.758 702.206 757.121 688.705L794.854 473.125Z" stroke="#212730"/>
<path opacity="0.965517" d="M815.585 478.861C821.077 454.937 854.482 453.186 862.444 476.405L931.502 677.782C935.948 690.748 949.879 697.846 962.982 693.823L1166.49 631.325C1189.96 624.119 1208.17 652.172 1192.05 670.677L1052.18 831.171C1043.17 841.504 1043.99 857.119 1054.03 866.455L1209.91 1011.45C1227.88 1028.17 1212.69 1057.97 1188.6 1053.26L979.677 1012.37C966.225 1009.74 953.112 1018.26 950.045 1031.62L902.416 1239.11C896.924 1263.03 863.519 1264.78 855.557 1241.56L786.5 1040.19C782.054 1027.22 768.122 1020.12 755.019 1024.15L551.511 1086.65C528.047 1093.85 509.828 1065.8 525.955 1047.29L665.824 886.799C674.829 876.466 674.011 860.851 663.975 851.516L508.095 706.521C490.123 689.803 505.31 659.999 529.399 664.713L738.325 705.597C751.776 708.229 764.89 699.713 767.957 686.353L815.585 478.861Z" stroke="#212730"/>
<path d="M835.541 485.433C842.281 461.839 875.72 461.839 882.46 485.433L939.372 684.635C943.136 697.81 956.671 705.624 969.962 702.296L1171.08 651.937C1194.9 645.975 1211.62 674.956 1194.53 692.585L1050.38 841.324C1040.83 851.174 1040.83 866.825 1050.38 876.676L1194.53 1025.41C1211.62 1043.04 1194.9 1072.02 1171.08 1066.06L969.962 1015.7C956.671 1012.38 943.136 1020.19 939.372 1033.36L882.46 1232.57C875.72 1256.16 842.281 1256.16 835.541 1232.57L778.629 1033.36C774.865 1020.19 761.33 1012.38 748.039 1015.7L546.917 1066.06C523.102 1072.02 506.385 1043.04 523.47 1025.41L667.625 876.676C677.172 866.825 677.172 851.174 667.625 841.324L523.47 692.585C506.385 674.956 523.102 645.975 546.917 651.937L748.039 702.296C761.33 705.624 774.865 697.81 778.629 684.635L835.541 485.433Z" stroke="#212730"/>
</svg>
